<svg width="14" height="14" viewBox="0 0 14 14" fill="none" xmlns="http://www.w3.org/2000/svg">
<g clip-path="url(#clip0_102_4740)">
<path d="M14 7C14 5.65833 13.9417 4.43333 13.7083 3.73333C13.475 2.91667 13.1833 2.15833 12.4833 1.45833C11.6083 0.641667 10.85 0.408333 9.68333 0.175C8.86667 0.0583333 7.875 0 7.29167 0H6.76667C6.125 0 5.19167 0.0583333 4.31667 0.175C3.15 0.408333 2.33333 0.7 1.51667 1.45833C0.758333 2.15833 0.525 2.91667 0.291667 3.73333C0.0583333 4.43333 0 5.65833 0 7C0 8.34167 0.0583333 9.56667 0.291667 10.2667C0.525 11.0833 0.816667 11.8417 1.51667 12.5417C2.39167 13.3583 3.15 13.5917 4.31667 13.825C5.25 14 6.41667 14 7 14C7.58333 14 8.75 14 9.74167 13.825C10.85 13.5917 11.6667 13.3583 12.5417 12.5417C13.2417 11.9 13.5333 11.1417 13.7667 10.2667C13.9417 9.56667 14 8.34167 14 7Z" fill="url(#paint0_linear_102_4740)"/>
<path d="M5.24922 3.90938C5.01589 4.14271 5.01589 4.49271 5.24922 4.72604L7.52422 7.00104L5.24922 9.27604C5.01589 9.50938 5.01589 9.85938 5.24922 10.0927C5.48255 10.326 5.83255 10.326 6.06589 10.0927L8.74922 7.40938C8.98255 7.17604 8.98255 6.82604 8.74922 6.59271L6.06589 3.90938C5.83255 3.67604 5.48255 3.67604 5.24922 3.90938Z" fill="white"/>
</g>
<defs>
<linearGradient id="paint0_linear_102_4740" x1="14" y1="7" x2="0" y2="7" gradientUnits="userSpaceOnUse">
<stop stop-color="#FF2424"/>
<stop offset="1" stop-color="#FF5656"/>
</linearGradient>
<clipPath id="clip0_102_4740">
<rect width="14" height="14" fill="white"/>
</clipPath>
</defs>
</svg>
