<svg width="94" height="94" viewBox="0 0 94 94" fill="none" xmlns="http://www.w3.org/2000/svg">
<g clip-path="url(#clip0_102_6375)">
<path d="M91.158 23.8396C88.6905 14.7573 79.2446 5.30953 70.1604 2.84203C64.5901 1.45406 57.1289 0.0238672 47 0C36.8711 0.0238672 29.4099 1.45406 23.8396 2.84203C14.7573 5.30953 5.30953 14.7554 2.84203 23.8396C1.45406 29.4099 0.0238672 36.8711 0 47C0.0238672 57.1289 1.45406 64.5901 2.84203 70.1604C5.30953 79.2446 14.7573 88.6905 23.8396 91.158C29.4099 92.5459 36.8748 93.9761 47 94C57.127 93.9761 64.5901 92.5459 70.1604 91.158C79.2446 88.6905 88.6905 79.2446 91.158 70.1604C92.5459 64.5901 93.9761 57.1252 94 47C93.9761 36.8711 92.5459 29.4099 91.158 23.8396Z" fill="#FFE5E5"/>
<path d="M65.9211 23.7023C66.2716 23.7023 66.6079 23.5631 66.8558 23.3152C67.1037 23.0673 67.2429 22.7311 67.2429 22.3805C67.2429 22.0299 67.1037 21.6937 66.8558 21.4458C66.6079 21.1979 66.2716 21.0586 65.9211 21.0586H28.0787C27.7281 21.0586 27.3919 21.1979 27.144 21.4458C26.8961 21.6937 26.7568 22.0299 26.7568 22.3805C26.7568 22.7311 26.8961 23.0673 27.144 23.3152C27.3919 23.5631 27.7281 23.7023 28.0787 23.7023H65.9211Z" fill="url(#paint0_linear_102_6375)"/>
<path d="M43.1997 26.5098H50.795V31.9276H43.1997V26.5098Z" fill="#DD4247"/>
<path d="M59.9084 21.0588C59.6665 20.5849 59.2986 20.1869 58.8451 19.9086C58.3916 19.6304 57.8702 19.4827 57.3381 19.4817H54.5475C54.0986 19.4788 53.6563 19.373 53.2547 19.1725C52.853 18.972 52.5027 18.6821 52.2305 18.3251C51.6126 17.53 50.8213 16.8867 49.9168 16.4441C49.0124 16.0015 48.0188 15.7715 47.0119 15.7715C46.005 15.7715 45.0114 16.0015 44.1069 16.4441C43.2025 16.8867 42.4111 17.53 41.7932 18.3251C41.5211 18.6821 41.1707 18.972 40.7691 19.1725C40.3674 19.373 39.9252 19.4788 39.4763 19.4817H36.682C36.15 19.4831 35.6287 19.631 35.1753 19.9092C34.7219 20.1874 34.3539 20.5851 34.1117 21.0588C34.1117 21.0588 33.4177 22.3806 34.1117 23.7025C34.3542 24.1759 34.7223 24.5734 35.1756 24.8516C35.629 25.1297 36.1501 25.2778 36.682 25.2796H39.4726C39.9215 25.2825 40.3638 25.3883 40.7654 25.5888C41.1671 25.7893 41.5174 26.0792 41.7895 26.4362C42.4074 27.2313 43.1988 27.8746 44.1032 28.3172C45.0077 28.7597 46.0013 28.9898 47.0082 28.9898C48.0151 28.9898 49.0087 28.7597 49.9132 28.3172C50.8176 27.8746 51.609 27.2313 52.2269 26.4362C52.499 26.0792 52.8493 25.7893 53.251 25.5888C53.6526 25.3883 54.0949 25.2825 54.5438 25.2796H57.3344C57.8664 25.2782 58.3877 25.1303 58.8411 24.8521C59.2945 24.5739 59.6625 24.1762 59.9047 23.7025C60.5602 22.3806 59.9084 21.0588 59.9084 21.0588Z" fill="url(#paint1_linear_102_6375)"/>
<path d="M46.9999 26.0409C46.2703 26.0409 45.5572 25.8245 44.9506 25.4191C44.344 25.0138 43.8712 24.4376 43.5921 23.7635C43.313 23.0895 43.2401 22.3477 43.3825 21.6322C43.525 20.9167 43.8765 20.2595 44.3925 19.7437C44.9085 19.228 45.5659 18.8768 46.2815 18.7347C46.9971 18.5926 47.7387 18.6659 48.4127 18.9454C49.0866 19.2248 49.6625 19.6978 50.0676 20.3046C50.4727 20.9114 50.6887 21.6247 50.6883 22.3543C50.6883 22.8386 50.5929 23.3181 50.4075 23.7655C50.2221 24.2129 49.9504 24.6194 49.6079 24.9617C49.2654 25.3041 48.8588 25.5756 48.4113 25.7608C47.9638 25.9459 47.4842 26.0411 46.9999 26.0409Z" fill="url(#paint2_linear_102_6375)"/>
<path d="M53.8426 67.8846C54.364 67.7964 54.8487 67.701 55.2948 67.6128C58.5334 66.895 61.5003 63.7574 62.13 60.5077C62.5266 58.5286 63.0149 53.0098 62.9745 49.3581C63.0149 45.7064 62.5266 40.1784 62.13 38.2085C61.5003 34.9607 58.5334 31.8212 55.2948 31.1034C52.5656 30.5454 49.7856 30.2735 47 30.2919C44.2143 30.2756 41.4345 30.5488 38.7053 31.107C35.4667 31.8249 32.4998 34.9625 31.8701 38.2121C31.4735 40.1913 30.9852 45.7101 31.0255 49.3618C30.9852 53.0135 31.4735 58.5323 31.8701 60.5114C32.4998 63.7592 35.4667 66.8986 38.7053 67.6165C39.1514 67.7083 39.6361 67.8001 40.1575 67.8882C40.1575 67.8882 43.5742 68.2554 47 68.2554C50.4259 68.2554 53.8426 67.8846 53.8426 67.8846Z" fill="url(#paint3_linear_102_6375)"/>
<path d="M47.0698 51.5527H46.9303C44.367 51.5527 42.2891 53.6307 42.2891 56.194V73.584C42.2891 76.1473 44.367 78.2252 46.9303 78.2252H47.0698C49.6331 78.2252 51.7111 76.1473 51.7111 73.584V56.194C51.7111 53.6307 49.6331 51.5527 47.0698 51.5527Z" fill="url(#paint4_linear_102_6375)"/>
<path d="M39.2891 43.7349C39.2355 43.9667 39.1202 44.1798 38.9554 44.3514C38.7905 44.5231 38.5823 44.6469 38.3527 44.7097C37.6016 44.8566 36.8291 44.8566 36.078 44.7097C35.8482 44.647 35.6397 44.5233 35.4745 44.3516C35.3094 44.18 35.1937 43.9669 35.1398 43.7349C35.0433 42.7779 35.0047 41.8159 35.0242 40.8543C35.0067 39.8926 35.0453 38.9308 35.1398 37.9737C35.1935 37.7416 35.3091 37.5284 35.4743 37.3567C35.6395 37.185 35.8481 37.0614 36.078 36.9988C36.452 36.923 36.8328 36.8854 37.2145 36.8868C37.5967 36.8846 37.9782 36.9222 38.3527 36.9988C38.5825 37.0613 38.7909 37.185 38.9558 37.3567C39.1207 37.5284 39.2359 37.7416 39.2891 37.9737C39.3839 38.9308 39.4231 39.8926 39.4066 40.8543C39.4259 41.816 39.3866 42.7779 39.2891 43.7349ZM58.8657 43.7349C58.8118 43.9669 58.6962 44.18 58.531 44.3516C58.3658 44.5233 58.1573 44.647 57.9275 44.7097C57.1764 44.8566 56.4039 44.8566 55.6528 44.7097C55.4232 44.6466 55.2148 44.5228 55.0497 44.3512C54.8846 44.1796 54.7689 43.9667 54.7146 43.7349C54.6191 42.7778 54.5805 41.8159 54.599 40.8543C54.5825 39.8927 54.6211 38.9309 54.7146 37.9737C54.7685 37.7417 54.8841 37.5285 55.0493 37.3569C55.2145 37.1853 55.423 37.0615 55.6528 36.9988C56.0274 36.9231 56.4088 36.8856 56.7911 36.8868C57.1727 36.8847 57.5536 36.9222 57.9275 36.9988C58.1574 37.0614 58.366 37.185 58.5312 37.3567C58.6964 37.5284 58.812 37.7416 58.8657 37.9737C58.9595 38.9309 58.9981 39.8926 58.9813 40.8543C58.999 41.816 58.9585 42.778 58.8602 43.7349H58.8657Z" fill="url(#paint5_linear_102_6375)"/>
</g>
<defs>
<linearGradient id="paint0_linear_102_6375" x1="57.395" y1="32.7756" x2="36.6048" y2="11.9854" gradientUnits="userSpaceOnUse">
<stop stop-color="#34344F"/>
<stop offset="0.54" stop-color="#353551"/>
<stop offset="1" stop-color="#666684"/>
</linearGradient>
<linearGradient id="paint1_linear_102_6375" x1="54.217" y1="29.5904" x2="39.7957" y2="15.1691" gradientUnits="userSpaceOnUse">
<stop stop-color="#EF3739"/>
<stop offset="0.54" stop-color="#EF3739"/>
<stop offset="1" stop-color="#FF8C8B"/>
</linearGradient>
<linearGradient id="paint2_linear_102_6375" x1="49.6051" y1="24.9613" x2="44.3892" y2="19.7454" gradientUnits="userSpaceOnUse">
<stop stop-color="#FFD2D2"/>
<stop offset="0.57" stop-color="white"/>
<stop offset="1" stop-color="white"/>
</linearGradient>
<linearGradient id="paint3_linear_102_6375" x1="54.2171" y1="29.5887" x2="39.7958" y2="15.1674" gradientUnits="userSpaceOnUse">
<stop stop-color="#EF3739"/>
<stop offset="0.54" stop-color="#EF3739"/>
<stop offset="1" stop-color="#FF8C8B"/>
</linearGradient>
<linearGradient id="paint4_linear_102_6375" x1="54.6633" y1="72.5522" x2="39.3369" y2="57.2239" gradientUnits="userSpaceOnUse">
<stop stop-color="#34344F"/>
<stop offset="0.54" stop-color="#353551"/>
<stop offset="1" stop-color="#666684"/>
</linearGradient>
<linearGradient id="paint5_linear_102_6375" x1="49.6052" y1="24.9624" x2="44.3893" y2="19.7465" gradientUnits="userSpaceOnUse">
<stop stop-color="#FFD2D2"/>
<stop offset="0.57" stop-color="white"/>
<stop offset="1" stop-color="white"/>
</linearGradient>
<clipPath id="clip0_102_6375">
<rect width="94" height="94" fill="white"/>
</clipPath>
</defs>
</svg>
