<svg width="50" height="50" viewBox="0 0 50 50" fill="none" xmlns="http://www.w3.org/2000/svg">
<path d="M41.9879 33.2789L45.6632 33.2569C46.3637 33.2528 46.935 33.8172 46.9393 34.5179L46.9828 41.8157C46.987 42.5162 46.4225 43.0876 45.7219 43.0918L42.0466 43.1138C41.346 43.1179 40.7747 42.5535 40.7704 41.8528L40.7269 34.555C40.7226 33.8544 41.2872 33.2831 41.9879 33.2789ZM4.5875 33.5015L8.2628 33.4795C8.96332 33.4754 9.53468 34.0398 9.53894 34.7405L9.58233 42.0384C9.58647 42.739 9.02201 43.3103 8.32136 43.3146L4.64606 43.3365C3.94554 43.3407 3.37418 42.7762 3.36992 42.0755L3.3264 34.7777C3.32227 34.0771 3.88685 33.5057 4.5875 33.5015ZM46.1657 15.5046C46.0176 15.5186 45.8802 15.5877 45.7807 15.6982C45.6812 15.8087 45.6269 15.9526 45.6284 16.1013C45.665 16.392 45.5938 16.6861 45.4283 16.9279C45.2628 17.1698 45.0145 17.3426 44.7303 17.4139L43.8159 17.4195L44.2854 18.7899C44.2854 18.7899 50.1722 18.7545 49.9961 16.821C49.8597 15.3204 47.3046 15.3953 46.1657 15.5046ZM3.8343 15.5046C3.98236 15.5186 4.11975 15.5877 4.21926 15.6982C4.31876 15.8087 4.37312 15.9526 4.37155 16.1013C4.33501 16.392 4.40621 16.6861 4.57169 16.9279C4.73717 17.1698 4.98547 17.3426 5.26971 17.4139L6.18405 17.4195L5.71453 18.7899C5.71453 18.7899 -0.172199 18.7545 0.0038724 16.821C0.140315 15.3204 2.69536 15.3953 3.8343 15.5046Z" fill="#2F4859"/>
<path d="M48.6841 26.9851C48.5741 25.5471 48.1583 24.1491 47.4645 22.8848L44.9832 18.3341C44.9832 18.3341 40.5771 8.4029 38.7415 7.61259C36.9668 6.84836 25.6387 6.67655 24.8881 6.66602H24.8466C24.096 6.68583 12.7709 6.99295 11.0055 7.77825C9.17937 8.59026 4.88982 18.5717 4.88982 18.5717L2.46508 23.152C1.78676 24.4245 1.38769 25.827 1.29453 27.266C1.124 30.4446 1.46644 33.63 2.3087 36.6997C2.50164 37.4037 2.92215 38.0241 3.50463 38.4641C4.08712 38.9041 4.79883 39.1389 5.52877 39.132L25.0395 39.0191H25.081L44.5917 38.9031C45.3215 38.9011 46.0303 38.6577 46.6073 38.2108C47.1844 37.7638 47.5974 37.1385 47.7819 36.4324C48.5884 33.3522 48.893 30.1622 48.6841 26.9851Z" fill="#FF4747"/>
<path d="M15.5107 32.8869L34.5235 32.7734C34.6869 32.7725 34.8439 32.8364 34.9601 32.9513C35.0763 33.0661 35.1421 33.2223 35.1431 33.3857L35.1625 36.6231C35.1634 36.7864 35.0995 36.9435 34.9847 37.0597C34.8698 37.1759 34.7136 37.2417 34.5502 37.2427L15.5374 37.3562C15.374 37.3572 15.217 37.2932 15.1008 37.1784C14.9846 37.0636 14.9188 36.9073 14.9178 36.744L14.8984 33.5066C14.8975 33.3432 14.9614 33.1862 15.0763 33.07C15.1911 32.9538 15.3473 32.8879 15.5107 32.8869Z" fill="#3A556A"/>
<path d="M39.0977 9.11055C39.0005 8.89869 38.8455 8.71852 38.6505 8.59069C38.4555 8.46287 38.2285 8.39256 37.9954 8.38784L24.9948 8.12109H24.954L11.9572 8.54296C11.7243 8.55058 11.4982 8.62361 11.3049 8.75371C11.1116 8.88381 10.9589 9.06572 10.8641 9.2786L7.13477 17.6671L25.009 17.5604H25.0499L42.9267 17.4536L39.0977 9.11055Z" fill="#2F4859"/>
<path d="M43.3299 32.2266C42.0767 32.2339 41.0667 33.2556 41.0739 34.5088C41.0812 35.7619 42.1029 36.772 43.3561 36.7647C44.6093 36.7574 45.6193 35.7357 45.612 34.4825V34.4814C45.6041 33.2287 44.5826 32.2193 43.3299 32.2266ZM6.89403 32.4443C5.64084 32.4518 4.63107 33.4739 4.63872 34.7271C4.64624 35.9803 5.66831 36.9901 6.9215 36.9824C8.17469 36.9749 9.18434 35.9528 9.17682 34.6998C9.16917 33.4466 8.14723 32.4368 6.89403 32.4443Z" fill="#EBF0F3"/>
<path d="M16.5049 27.1328H33.0536V29.1985H16.5049V27.1328Z" fill="#3A556A"/>
<path d="M46.5133 23.8833C46.4992 23.7588 46.4588 23.6388 46.3946 23.5312C46.3305 23.4237 46.2441 23.331 46.1413 23.2595C46.0386 23.1879 45.9217 23.1391 45.7985 23.1163C45.6754 23.0935 45.5488 23.0972 45.4272 23.1272L37.8594 24.9776C37.7468 25.0052 37.6409 25.0548 37.5475 25.1234C37.4542 25.1921 37.3753 25.2785 37.3154 25.3776L35.8161 27.8589C35.7355 27.9924 35.6919 28.1448 35.6895 28.3007C35.6872 28.4565 35.7264 28.6102 35.803 28.7459C35.8796 28.8817 35.9909 28.9946 36.1255 29.0732C36.2601 29.1519 36.4132 29.1933 36.5691 29.1933H43.9632C44.1361 29.1945 44.3056 29.1451 44.4508 29.0512C46.195 27.8961 46.7409 26.0966 46.5133 23.8833Z" fill="#E1E6E9"/>
<path d="M42.9275 24.5854C42.0125 24.6227 41.3011 25.3949 41.3386 26.3098C41.3759 27.2248 42.1481 27.9362 43.063 27.8988C43.9779 27.8614 44.6893 27.0895 44.6521 26.1745C44.6143 25.2597 43.8424 24.5483 42.9275 24.5854ZM39.4146 26.1678C38.7187 26.1957 38.1772 26.7826 38.2051 27.4785C38.2331 28.1744 38.82 28.7159 39.5159 28.6879C40.2118 28.66 40.7533 28.0731 40.7253 27.3772V27.3762C40.6968 26.6807 40.1102 26.1398 39.4146 26.1678Z" fill="#BDBEC1"/>
<path d="M3.48646 23.8833C3.50054 23.7588 3.541 23.6388 3.60515 23.5312C3.66929 23.4237 3.75564 23.331 3.85844 23.2595C3.96123 23.1879 4.0781 23.1391 4.20126 23.1163C4.32441 23.0935 4.45101 23.0972 4.57261 23.1272L12.1404 24.9776C12.2529 25.0052 12.3589 25.0548 12.4523 25.1234C12.5456 25.1921 12.6245 25.2785 12.6844 25.3776L14.1837 27.8589C14.2643 27.9924 14.3079 28.1448 14.3102 28.3007C14.3125 28.4565 14.2734 28.6102 14.1968 28.7459C14.1202 28.8817 14.0089 28.9946 13.8743 29.0732C13.7397 29.1519 13.5866 29.1933 13.4307 29.1933H6.03661C5.8637 29.1945 5.69421 29.1451 5.54903 29.0512C3.80462 27.8961 3.25885 26.0966 3.48646 23.8833Z" fill="#E1E6E9"/>
<path d="M7.07267 24.5854C7.98764 24.6227 8.69908 25.3949 8.66158 26.3098C8.62421 27.2248 7.85208 27.9362 6.93711 27.8988C6.02227 27.8614 5.31083 27.0895 5.34808 26.1745C5.38583 25.2597 6.15771 24.5483 7.07267 24.5854ZM10.5856 26.1678C11.2815 26.1957 11.823 26.7826 11.795 27.4785C11.767 28.1744 11.1801 28.7159 10.4842 28.6879C9.78836 28.66 9.24685 28.0731 9.27482 27.3772V27.3762C9.30329 26.6807 9.88994 26.1398 10.5856 26.1678Z" fill="#BDBEC1"/>
</svg>
