<svg width="63" height="63" viewBox="0 0 63 63" fill="none" xmlns="http://www.w3.org/2000/svg">
<g clip-path="url(#clip0_102_1738)">
<path d="M27.6777 29.5895V44.878H21.9444L20.0393 41.0276H8.57292L6.65597 44.878L0.922852 42.9668V29.5895H27.6777ZM42.9661 6.66406V29.5895H54.4208V25.7673L42.9661 6.66406Z" fill="#FD4755"/>
<path d="M42.9668 25.7656H54.4215V29.5877H42.9668V25.7656Z" fill="#E5ECF5"/>
<path d="M54.4323 56.3452C57.5987 56.3452 60.1655 53.7783 60.1655 50.612C60.1655 47.4457 57.5987 44.8789 54.4323 44.8789C51.266 44.8789 48.6992 47.4457 48.6992 50.612C48.6992 53.7783 51.266 56.3452 54.4323 56.3452Z" fill="#72869E"/>
<path d="M59.8387 48.6992C60.0515 49.296 60.166 49.9395 60.166 50.6101C60.166 53.7761 57.5992 56.3429 54.432 56.3429C51.266 56.3429 48.6992 53.7761 48.6992 50.6101C48.6992 49.9395 48.8149 49.296 49.0265 48.6992" stroke="black" stroke-width="2.54032" stroke-miterlimit="10" stroke-linecap="round" stroke-linejoin="round"/>
<path d="M54.4266 52.5446C55.4852 52.5446 56.3434 51.6864 56.3434 50.6278C56.3434 49.5691 55.4852 48.7109 54.4266 48.7109C53.368 48.7109 52.5098 49.5691 52.5098 50.6278C52.5098 51.6864 53.368 52.5446 54.4266 52.5446Z" fill="#536275"/>
<path d="M54.4266 52.5446C55.4852 52.5446 56.3434 51.6864 56.3434 50.6278C56.3434 49.5691 55.4852 48.7109 54.4266 48.7109C53.368 48.7109 52.5098 49.5691 52.5098 50.6278C52.5098 51.6864 53.368 52.5446 54.4266 52.5446Z" stroke="black" stroke-width="2.54032" stroke-miterlimit="10" stroke-linecap="round" stroke-linejoin="round"/>
<path d="M46.7881 48.698H62.0765C62.0765 45.5316 59.5097 42.9648 56.3434 42.9648H46.7881V48.698Z" fill="#FD4755"/>
<path d="M46.7881 42.9648V48.6981H51.627L55.2039 42.9648H46.7881Z" fill="#FB2B3A"/>
<path d="M14.2949 52.5463H31.5002L27.6707 44.8789H14.2949V52.5463Z" fill="#FD4755"/>
<path d="M4.61523 42.3444V29.5879H0.923828V42.9653L6.65695 44.8763L7.18236 43.821L5.20414 43.1616C5.03264 43.1044 4.88348 42.9947 4.77779 42.848C4.6721 42.7014 4.61523 42.5252 4.61523 42.3444ZM20.0403 41.026L21.9455 44.8762H25.6369L23.9689 41.5052C23.8977 41.3613 23.7877 41.2402 23.6513 41.1555C23.5148 41.0708 23.3575 41.026 23.1969 41.026H20.0403Z" fill="#FB2B3A"/>
<path d="M50.8531 42.9648H56.3434C57.927 42.9648 59.3605 43.6059 60.3978 44.6444C61.4351 45.6817 62.0774 47.1152 62.0774 48.6976H47.2773" stroke="black" stroke-width="2.54032" stroke-miterlimit="10" stroke-linecap="round" stroke-linejoin="round"/>
<path d="M44.8772 52.5438L54.4209 37.2467V29.5879H27.6777V44.8763L31.4998 52.5438H44.8772Z" fill="#FD4755"/>
<path d="M31.3691 29.5879H27.6777V44.8763L31.4998 52.5438H35.1912L31.3691 44.8763V29.5879Z" fill="#FB2B3A"/>
<path d="M41.1551 52.5435H44.8772L54.4207 37.2463V29.5879H27.6777V44.8765L31.4996 52.5435H37.1327" stroke="black" stroke-width="2.54032" stroke-miterlimit="10" stroke-linecap="round" stroke-linejoin="round"/>
<path d="M54.4326 37.248H48.6995V33.4113H54.4326V37.248Z" fill="#FB2B3A"/>
<path d="M54.4326 37.2469H56.3364C57.3958 37.2469 58.2547 36.388 58.2547 35.3285C58.2547 34.269 57.3958 33.4102 56.3364 33.4102H54.4326V37.2469Z" fill="#FEE45A"/>
<path d="M0.922852 29.589L4.74493 10.4783L12.3775 6.65625L42.9661 6.66351V10.4783H12.3892V29.589H0.922852Z" fill="#72869E"/>
<path d="M16.0672 6.65711L12.3775 6.65625L4.74493 10.4783L0.922852 29.589H4.61426L8.35378 10.8912C8.37947 10.7626 8.43417 10.6416 8.51371 10.5375C8.59325 10.4333 8.69553 10.3486 8.81274 10.2899L16.0672 6.65711Z" fill="#63748A"/>
<path d="M14.2949 44.8789H27.6713L31.5006 52.546H19.6991" stroke="black" stroke-width="2.54032" stroke-miterlimit="10" stroke-linecap="round" stroke-linejoin="round"/>
<path d="M14.3005 56.3452C17.4668 56.3452 20.0336 53.7783 20.0336 50.612C20.0336 47.4457 17.4668 44.8789 14.3005 44.8789C11.1342 44.8789 8.56738 47.4457 8.56738 50.612C8.56738 53.7783 11.1342 56.3452 14.3005 56.3452Z" fill="#72869E"/>
<path d="M14.3005 56.3452C17.4668 56.3452 20.0336 53.7783 20.0336 50.612C20.0336 47.4457 17.4668 44.8789 14.3005 44.8789C11.1342 44.8789 8.56738 47.4457 8.56738 50.612C8.56738 53.7783 11.1342 56.3452 14.3005 56.3452Z" stroke="black" stroke-width="2.54032" stroke-miterlimit="10" stroke-linecap="round" stroke-linejoin="round"/>
<path d="M14.2948 52.5446C15.3534 52.5446 16.2116 51.6864 16.2116 50.6278C16.2116 49.5691 15.3534 48.7109 14.2948 48.7109C13.2361 48.7109 12.3779 49.5691 12.3779 50.6278C12.3779 51.6864 13.2361 52.5446 14.2948 52.5446Z" fill="#536275"/>
<path d="M14.2948 52.5446C15.3534 52.5446 16.2116 51.6864 16.2116 50.6278C16.2116 49.5691 15.3534 48.7109 14.2948 48.7109C13.2361 48.7109 12.3779 49.5691 12.3779 50.6278C12.3779 51.6864 13.2361 52.5446 14.2948 52.5446Z" stroke="black" stroke-width="2.54032" stroke-miterlimit="10" stroke-linecap="round" stroke-linejoin="round"/>
<path d="M54.4326 37.248H48.6995V33.4113H54.4326V37.248Z" stroke="black" stroke-width="2.54032" stroke-miterlimit="10" stroke-linecap="round" stroke-linejoin="round"/>
<path d="M50.4394 19.1265L54.4212 25.7686V29.5905H42.9667V6.66436M42.9667 6.66436L48.3709 15.6775M42.9667 6.66436V10.48H23.956M42.9667 6.66436L12.3773 6.6582L4.74469 10.48L0.922852 29.5905H12.3896V10.48H19.9336M54.421 25.7681H42.9664M29.589 33.4124H25.7669M29.7063 39.1455H25.8841M27.6779 10.4797V29.5903M54.4327 37.2491H56.3365C57.3959 37.2491 58.2548 36.3903 58.2548 35.3307C58.2548 34.2713 57.3959 33.4124 56.3365 33.4124H54.4327V37.2491Z" stroke="black" stroke-width="2.54032" stroke-miterlimit="10" stroke-linecap="round" stroke-linejoin="round"/>
<path d="M16.2108 29.5878V25.7656H18.1218M12.3887 29.5878V41.0259" stroke="black" stroke-width="2.54032" stroke-miterlimit="10" stroke-linecap="round" stroke-linejoin="round"/>
<path d="M27.6789 29.5879V44.8763H21.9454L20.0403 41.026H8.5739L6.65695 44.8763L0.923828 42.9652V29.5879H27.6789Z" stroke="black" stroke-width="2.54032" stroke-miterlimit="10" stroke-linecap="round" stroke-linejoin="round"/>
</g>
<defs>
<clipPath id="clip0_102_1738">
<rect width="63" height="63" fill="white"/>
</clipPath>
</defs>
</svg>
