<svg width="67" height="67" viewBox="0 0 67 67" fill="none" xmlns="http://www.w3.org/2000/svg">
<path d="M47.0895 15.2188C47.6789 15.2188 48.2441 15.4529 48.6609 15.8697C49.0776 16.2864 49.3118 16.8517 49.3118 17.4411V18.1244C49.3117 18.7343 49.111 19.3273 48.7405 19.8117C48.3699 20.2962 47.8503 20.6453 47.2617 20.8051L44.9249 21.4396H24.7097L22.3723 20.8051C21.7837 20.6453 21.2641 20.2962 20.8936 19.8117C20.5231 19.3273 20.3223 18.7343 20.3223 18.1244V17.4411C20.3223 16.8517 20.5564 16.2864 20.9732 15.8697C21.3899 15.4529 21.9552 15.2188 22.5446 15.2188H47.0895Z" fill="#F9BBAF"/>
<path d="M24.0357 15.2173C24.0357 15.2173 21.1217 6.47915 25.6141 4.10072C25.6141 4.10072 26.3919 0 32.7466 0C39.2363 0 41.9903 1.81341 47.1189 0.333347C47.1189 0.333347 46.6638 3.1479 45.131 4.95798C47.975 8.09255 45.5999 15.2151 45.5999 15.2151L24.0357 15.2173Z" fill="#42434D"/>
<path d="M57.5965 63.3336V44.5639C57.5965 42.9707 57.0261 41.4302 55.9884 40.2213C54.9507 39.0124 53.5144 38.215 51.9396 37.9737L39.4035 36.0547H30.2315L17.696 37.9737C16.1212 38.215 14.6848 39.0124 13.6472 40.2213C12.6095 41.4302 12.039 42.9707 12.0391 44.5639V63.3336H57.5965Z" fill="#FF4040"/>
<path d="M30.2305 30.291V36.0596C30.2305 36.0596 30.7527 39.6292 34.8168 39.6292C38.8808 39.6292 39.4025 36.0596 39.4025 36.0596V30.291H30.2305Z" fill="#F9BBAF"/>
<path d="M45.5999 15.2146C44.5795 14.7475 43.7015 14.0179 43.0554 13.1004C42.4094 12.1828 42.0184 11.1103 41.9225 9.99219C39.5667 10.2993 37.1935 10.4548 34.8178 10.4578C32.442 10.455 30.0689 10.2997 27.713 9.99274C27.6171 11.1108 27.2262 12.1834 26.5801 13.1009C25.934 14.0184 25.056 14.748 24.0357 15.2152C24.0357 21.856 25.9863 26.0101 28.2286 28.5907C29.0528 29.526 30.0666 30.2751 31.2027 30.7882C32.3388 31.3013 33.5712 31.5667 34.8178 31.5667C36.0644 31.5667 37.2967 31.3013 38.4328 30.7882C39.5689 30.2751 40.5827 29.526 41.4069 28.5907C43.6515 26.0095 45.5999 21.8554 45.5999 15.2146ZM12.0391 55.8479H20.7394V63.3327H12.0391V55.8479ZM48.8961 55.8479H57.5965V63.3327H48.8961V55.8479Z" fill="#FFD3C2"/>
<path d="M48.7329 63.3364C48.732 62.5621 48.667 61.7892 48.5384 61.0257C48.4601 60.9929 41.6143 58.1367 34.8157 58.1367C28.0171 58.1367 21.1734 60.9924 21.0929 61.0257C20.9643 61.7892 20.8993 62.5621 20.8984 63.3364H48.7329Z" fill="#063968"/>
<path d="M48.7327 63.3353C48.7327 59.6448 47.2667 56.1055 44.6571 53.4959C42.0476 50.8863 38.5082 49.4203 34.8177 49.4203C31.1272 49.4203 27.5879 50.8863 24.9783 53.4959C22.3688 56.1055 20.9027 59.6448 20.9027 63.3353H16.6992C16.6992 58.53 18.6081 53.9215 22.006 50.5236C25.4039 47.1257 30.0124 45.2168 34.8177 45.2168C39.6231 45.2168 44.2316 47.1257 47.6295 50.5236C51.0273 53.9215 52.9362 58.53 52.9362 63.3353H48.7327Z" fill="#3F568F"/>
<path d="M22.4782 56.9038V56.9094C21.4368 58.8916 20.8952 61.0982 20.9004 63.3374H16.7002C16.6958 60.4218 17.3993 57.5486 18.7503 54.9648L22.4782 56.9038ZM47.157 56.9038V56.9094C48.1984 58.8916 48.74 61.0982 48.7348 63.3374H52.935C52.9394 60.4218 52.2359 57.5486 50.8849 54.9648L47.157 56.9038Z" fill="#FB931F"/>
</svg>
