<svg width="94" height="94" viewBox="0 0 94 94" fill="none" xmlns="http://www.w3.org/2000/svg">
<g clip-path="url(#clip0_102_4819)">
<path d="M31.2874 37.0938L26.6038 38.6079L25.6128 40.1605C24.5016 42.2261 23.0263 44.0739 21.258 45.6148L21.2576 45.6151C18.9419 47.6378 16.1392 49.1014 13.153 49.8481L10.5352 50.5026L11.1259 53.1355C12.0157 57.1012 13.7367 60.4354 16.0953 62.8485L37.0472 53.9432L31.2874 37.0938Z" fill="#39506E"/>
<path d="M80.8472 49.8482C77.8609 49.1015 75.0584 47.6379 72.7427 45.6152L72.7423 45.6148C70.974 44.0741 69.4987 42.2264 68.3876 40.1608L67.5447 38.5788L62.5286 35.5273L57.1982 55.5215L77.9046 62.8487C80.2635 60.4359 81.9844 57.1013 82.8743 53.1356L83.4652 50.5027L80.8472 49.8482Z" fill="#28394F"/>
<path d="M47.0004 58.0582L41.1329 52.8666L34.5762 52.5195L37.5762 63.9988L43.0605 69.4005L45.0804 70.3303L47.0004 69.117L48.8435 63.5876L47.0004 58.0582Z" fill="#FCB0A2"/>
<path d="M51.362 53.1434L47 58.0585V69.1173L48.751 70.0081L50.9397 69.4008L56.3996 62.2048L59.4362 52.4961L51.362 53.1434Z" fill="#F98C82"/>
<path d="M43.0599 69.4005L34.5756 52.5195L20.019 60.0305C14.492 62.8923 11.0586 68.5369 11.0586 74.7608V82.9405L27.6468 93.998H43.9175L46.9998 87.7446L48.8429 79.4999L46.9998 74.6464L43.0599 69.4005Z" fill="#FC7063"/>
<path d="M73.9809 60.0308L59.4362 52.4961L50.9397 69.4008L47 74.6467V87.745L50.0821 93.9986H66.3529L82.9412 82.9408V74.7612C82.9412 68.5373 79.5078 62.8927 73.9809 60.0308Z" fill="#FC4336"/>
<path d="M35.6953 74.3398L35.8654 77.6599L43.9177 94H47L48.8431 90.6824L47 87.7453L40.961 75.4907L35.6953 74.3398Z" fill="#28394F"/>
<path d="M56.062 73.7559L53.0396 75.489L47 87.7449V93.9996H50.0821L58.1344 77.6596L56.062 73.7559Z" fill="#17202D"/>
<path d="M47.0001 69.1172C37.0184 69.1172 27.9255 74.5097 23.0508 82.9405L26.1696 84.9355L29.4852 83.2541C33.6007 77.9333 40.0296 74.6466 47.0001 74.6466L48.8433 71.759L47.0001 69.1172Z" fill="#39506E"/>
<path d="M47 69.1172V74.6466C53.9706 74.6466 60.3994 77.9333 64.5148 83.2541L66.9544 84.9783L70.9494 82.9407C66.0746 74.5098 56.9815 69.1172 47 69.1172Z" fill="#28394F"/>
<path d="M77.4115 82.9414H66.3527C63.2989 82.9414 60.8232 85.4171 60.8232 88.4708C60.8232 91.5245 63.2989 94.0002 66.3527 94.0002H82.9409V82.9414H77.4115Z" fill="#FCB0A2"/>
<path d="M16.588 82.9414H27.6468C30.7005 82.9414 33.1762 85.4171 33.1762 88.4708C33.1762 91.5245 30.7005 94.0002 27.6468 94.0002H11.0586V82.9414H16.588Z" fill="#FDD0BB"/>
<path d="M27.6466 27.6465C24.5929 27.6465 22.1172 30.1222 22.1172 33.1759C22.1172 36.2296 24.5929 38.7053 27.6466 38.7053H30.4113L32.2544 32.9455L30.4113 27.6465H27.6466Z" fill="#FCB0A2"/>
<path d="M66.353 27.6465H63.5883L61.7451 32.7461L63.5883 38.7053H66.353C69.4067 38.7053 71.8824 36.2296 71.8824 33.1759C71.8824 30.1222 69.4067 27.6465 66.353 27.6465Z" fill="#F98C82"/>
<path d="M30.4121 22.1172V41.4701C30.4121 50.6314 37.8388 58.0584 47.0003 58.0584L50.6866 44.2348L47.0003 33.4562L30.4121 22.1172Z" fill="#FDD0BB"/>
<path d="M47 33.4562V58.0584C56.1613 58.0584 63.5882 50.6314 63.5882 41.4701V22.1172L47 33.4562Z" fill="#FCB0A2"/>
<path d="M43.8278 45.3789L39.918 49.2888C42.0691 51.4401 44.5348 52.5155 47.0004 52.5155L48.8435 48.9474L47.0004 47.0023C45.9552 47.0023 44.9101 46.4612 43.8278 45.3789Z" fill="#FCB0A2"/>
<path d="M50.1726 45.3789C49.0901 46.4612 48.0451 47.0023 47 47.0023V52.5155C49.4656 52.5155 51.9313 51.4401 54.0824 49.2888L50.1726 45.3789Z" fill="#F98C82"/>
<path d="M30.4121 22.1185L38.7062 33.4573H47.0003L48.8435 26.7264L47.0003 22.1185L39.6934 20.2754L30.4121 22.1185Z" fill="#39506E"/>
<path d="M47 33.4573H55.2941L63.5882 22.1185L54.1847 20.2754L47 22.1185V33.4573Z" fill="#28394F"/>
<path d="M46.9996 3.4615e-09C40.8826 -6.41984e-05 34.7985 0.892954 28.9396 2.6508C24.1561 4.08568 22.1017 9.72089 24.8397 13.8978L26.6032 16.5882L37.876 18.4314L46.9996 16.5882L48.8427 8.7549L46.9996 3.4615e-09Z" fill="#39506E"/>
<path d="M65.06 2.6508C59.2011 0.892969 53.1169 -4.83993e-05 47 1.96739e-09V16.5882L55.3857 18.4314L67.3962 16.5882L69.1599 13.8976C71.8977 9.72089 69.8437 4.08568 65.06 2.6508Z" fill="#28394F"/>
<path d="M46.9999 16.5879H26.6035L30.4116 22.1173H46.9999L48.843 19.3526L46.9999 16.5879Z" fill="#FFE32D"/>
<path d="M47 22.1173H63.5882L67.3962 16.5879H47V22.1173Z" fill="#FFBC16"/>
<path d="M38.7061 5.5293V11.0587H47.0002L48.8433 8.294L47.0002 5.5293H38.7061Z" fill="#28394F"/>
<path d="M47 5.5293H55.2941V11.0587H47V5.5293Z" fill="#17202D"/>
</g>
<defs>
<clipPath id="clip0_102_4819">
<rect width="94" height="94" fill="white"/>
</clipPath>
</defs>
</svg>
