<svg width="63" height="53" viewBox="0 0 63 53" fill="none" xmlns="http://www.w3.org/2000/svg">
<path d="M27.6777 24.5895V39.878H21.9444L20.0393 36.0276H8.57292L6.65597 39.878L0.922852 37.9668V24.5895H27.6777ZM42.9661 1.66406V24.5895H54.4208V20.7673L42.9661 1.66406Z" fill="#FD4755"/>
<path d="M42.9668 20.7656H54.4215V24.5877H42.9668V20.7656Z" fill="#E5ECF5"/>
<path d="M54.4323 51.3452C57.5987 51.3452 60.1655 48.7783 60.1655 45.612C60.1655 42.4457 57.5987 39.8789 54.4323 39.8789C51.266 39.8789 48.6992 42.4457 48.6992 45.612C48.6992 48.7783 51.266 51.3452 54.4323 51.3452Z" fill="#72869E"/>
<path d="M59.8387 43.6992C60.0515 44.296 60.166 44.9395 60.166 45.6101C60.166 48.7761 57.5992 51.3429 54.432 51.3429C51.266 51.3429 48.6992 48.7761 48.6992 45.6101C48.6992 44.9395 48.8149 44.296 49.0265 43.6992" stroke="black" stroke-width="2.54032" stroke-miterlimit="10" stroke-linecap="round" stroke-linejoin="round"/>
<path d="M54.4266 47.5446C55.4852 47.5446 56.3434 46.6864 56.3434 45.6278C56.3434 44.5691 55.4852 43.7109 54.4266 43.7109C53.368 43.7109 52.5098 44.5691 52.5098 45.6278C52.5098 46.6864 53.368 47.5446 54.4266 47.5446Z" fill="#536275"/>
<path d="M54.4266 47.5446C55.4852 47.5446 56.3434 46.6864 56.3434 45.6278C56.3434 44.5691 55.4852 43.7109 54.4266 43.7109C53.368 43.7109 52.5098 44.5691 52.5098 45.6278C52.5098 46.6864 53.368 47.5446 54.4266 47.5446Z" stroke="black" stroke-width="2.54032" stroke-miterlimit="10" stroke-linecap="round" stroke-linejoin="round"/>
<path d="M46.7881 43.698H62.0765C62.0765 40.5316 59.5097 37.9648 56.3434 37.9648H46.7881V43.698Z" fill="#FD4755"/>
<path d="M46.7881 37.9648V43.6981H51.627L55.2039 37.9648H46.7881Z" fill="#FB2B3A"/>
<path d="M14.2949 47.5463H31.5002L27.6707 39.8789H14.2949V47.5463Z" fill="#FD4755"/>
<path d="M4.61523 37.3444V24.5879H0.923828V37.9653L6.65695 39.8763L7.18236 38.821L5.20414 38.1616C5.03264 38.1044 4.88348 37.9947 4.77779 37.848C4.6721 37.7014 4.61523 37.5252 4.61523 37.3444ZM20.0403 36.026L21.9455 39.8762H25.6369L23.9689 36.5052C23.8977 36.3613 23.7877 36.2402 23.6513 36.1555C23.5148 36.0708 23.3575 36.026 23.1969 36.026H20.0403Z" fill="#FB2B3A"/>
<path d="M50.8531 37.9648H56.3434C57.927 37.9648 59.3605 38.6059 60.3978 39.6444C61.4351 40.6817 62.0774 42.1152 62.0774 43.6976H47.2773" stroke="black" stroke-width="2.54032" stroke-miterlimit="10" stroke-linecap="round" stroke-linejoin="round"/>
<path d="M44.8772 47.5438L54.4209 32.2467V24.5879H27.6777V39.8763L31.4998 47.5438H44.8772Z" fill="#FD4755"/>
<path d="M31.3691 24.5879H27.6777V39.8763L31.4998 47.5438H35.1912L31.3691 39.8763V24.5879Z" fill="#FB2B3A"/>
<path d="M41.1551 47.5435H44.8772L54.4207 32.2463V24.5879H27.6777V39.8765L31.4996 47.5435H37.1327" stroke="black" stroke-width="2.54032" stroke-miterlimit="10" stroke-linecap="round" stroke-linejoin="round"/>
<path d="M54.4326 32.248H48.6995V28.4113H54.4326V32.248Z" fill="#FB2B3A"/>
<path d="M54.4326 32.2469H56.3364C57.3958 32.2469 58.2547 31.388 58.2547 30.3285C58.2547 29.269 57.3958 28.4102 56.3364 28.4102H54.4326V32.2469Z" fill="#FEE45A"/>
<path d="M0.922852 24.589L4.74493 5.47833L12.3775 1.65625L42.9661 1.66351V5.47833H12.3892V24.589H0.922852Z" fill="#72869E"/>
<path d="M16.0672 1.65711L12.3775 1.65625L4.74493 5.47833L0.922852 24.589H4.61426L8.35378 5.89115C8.37947 5.76262 8.43417 5.64165 8.51371 5.53746C8.59325 5.43327 8.69553 5.34862 8.81274 5.28995L16.0672 1.65711Z" fill="#63748A"/>
<path d="M14.2949 39.8789H27.6713L31.5006 47.546H19.6991" stroke="black" stroke-width="2.54032" stroke-miterlimit="10" stroke-linecap="round" stroke-linejoin="round"/>
<path d="M14.3005 51.3452C17.4668 51.3452 20.0336 48.7783 20.0336 45.612C20.0336 42.4457 17.4668 39.8789 14.3005 39.8789C11.1342 39.8789 8.56738 42.4457 8.56738 45.612C8.56738 48.7783 11.1342 51.3452 14.3005 51.3452Z" fill="#72869E"/>
<path d="M14.3005 51.3452C17.4668 51.3452 20.0336 48.7783 20.0336 45.612C20.0336 42.4457 17.4668 39.8789 14.3005 39.8789C11.1342 39.8789 8.56738 42.4457 8.56738 45.612C8.56738 48.7783 11.1342 51.3452 14.3005 51.3452Z" stroke="black" stroke-width="2.54032" stroke-miterlimit="10" stroke-linecap="round" stroke-linejoin="round"/>
<path d="M14.2948 47.5446C15.3534 47.5446 16.2116 46.6864 16.2116 45.6278C16.2116 44.5691 15.3534 43.7109 14.2948 43.7109C13.2361 43.7109 12.3779 44.5691 12.3779 45.6278C12.3779 46.6864 13.2361 47.5446 14.2948 47.5446Z" fill="#536275"/>
<path d="M14.2948 47.5446C15.3534 47.5446 16.2116 46.6864 16.2116 45.6278C16.2116 44.5691 15.3534 43.7109 14.2948 43.7109C13.2361 43.7109 12.3779 44.5691 12.3779 45.6278C12.3779 46.6864 13.2361 47.5446 14.2948 47.5446Z" stroke="black" stroke-width="2.54032" stroke-miterlimit="10" stroke-linecap="round" stroke-linejoin="round"/>
<path d="M54.4326 32.248H48.6995V28.4113H54.4326V32.248Z" stroke="black" stroke-width="2.54032" stroke-miterlimit="10" stroke-linecap="round" stroke-linejoin="round"/>
<path d="M50.4394 14.1265L54.4212 20.7686V24.5905H42.9667V1.66436M42.9667 1.66436L48.3709 10.6775M42.9667 1.66436V5.48004H23.956M42.9667 1.66436L12.3773 1.6582L4.74469 5.48004L0.922852 24.5905H12.3896V5.48004H19.9336M54.421 20.7681H42.9664M29.589 28.4124H25.7669M29.7063 34.1455H25.8841M27.6779 5.47967V24.5903M54.4327 32.2491H56.3365C57.3959 32.2491 58.2548 31.3903 58.2548 30.3307C58.2548 29.2713 57.3959 28.4124 56.3365 28.4124H54.4327V32.2491Z" stroke="black" stroke-width="2.54032" stroke-miterlimit="10" stroke-linecap="round" stroke-linejoin="round"/>
<path d="M16.2108 24.5878V20.7656H18.1218M12.3887 24.5878V36.0259" stroke="black" stroke-width="2.54032" stroke-miterlimit="10" stroke-linecap="round" stroke-linejoin="round"/>
<path d="M27.6789 24.5879V39.8763H21.9454L20.0403 36.026H8.5739L6.65695 39.8763L0.923828 37.9652V24.5879H27.6789Z" stroke="black" stroke-width="2.54032" stroke-miterlimit="10" stroke-linecap="round" stroke-linejoin="round"/>
</svg>
