<svg width="92" height="32" viewBox="0 0 92 32" fill="none" xmlns="http://www.w3.org/2000/svg">
<path d="M72.6297 10.25H65.0469L57.0867 4.85938C52.6125 1.80469 47.3297 0.1875 41.9211 0.1875H23L0.898438 6.92578V9.35156H2.875V17.0781H0.898438V23.1875L4.04297 27.3203H88.9453V23.0438L91.1016 18.1383L86.9508 15.0297C82.818 11.9211 77.8047 10.25 72.6297 10.25Z" fill="#DB3328"/>
<path d="M17.7891 2.70312H14.7523L0.898438 6.92578L4.63594 7.01562L17.7891 2.70312Z" fill="#485143"/>
<path d="M53.2957 2.70312H51.2832L62.316 10.25H65.0473L57.0871 4.84141C55.8832 4.03281 54.6074 3.24219 53.2957 2.70312Z" fill="#747E6C"/>
<path d="M88.9453 27.3203H4.04297L0.898438 23.1875H88.9453V27.3203ZM6.77422 17.0781H2.875V9.35156H6.77422L8.66094 13.7539L6.77422 17.0781Z" fill="#B5100B"/>
<path d="M59.4766 9.89062H46L15.9023 5.25469L24.6172 2.70312H40.7531C46.3773 2.70312 51.8758 4.46406 56.4578 7.73438L59.4766 9.89062Z" fill="#485143"/>
<path d="M64.148 23.0258L34.877 21.2828L29.3066 14.275L35.1285 11.6875L63.609 16C63.609 16.9523 62.7824 17.707 61.8301 17.5992L37.2668 14.8141L35.0926 15.8922L38.1293 18.7672L62.7824 21.4984C63.5551 21.5703 64.148 22.2352 64.148 23.0258Z" fill="#B5100B"/>
<path d="M85.5312 17.2578H91.1016V19.0547H85.5312V17.2578Z" fill="#EBEADF"/>
<path d="M16.7293 31.8121C21.5622 31.8121 25.4801 27.8942 25.4801 23.0613C25.4801 18.2284 21.5622 14.3105 16.7293 14.3105C11.8964 14.3105 7.97852 18.2284 7.97852 23.0613C7.97852 27.8942 11.8964 31.8121 16.7293 31.8121Z" fill="#323D2C"/>
<path d="M17.1241 14.3116C16.4054 14.2756 15.6866 14.3295 15.0038 14.4733C14.2312 14.617 14.3749 15.7491 15.1476 15.7491H15.2733C20.071 15.7491 24.0241 19.7022 24.0241 24.4998V24.6256C24.0062 25.3983 25.1382 25.542 25.2999 24.7694C25.4257 24.0866 25.4976 23.3858 25.4616 22.6491C25.264 18.1569 21.6163 14.5092 17.1241 14.3116Z" fill="#485143"/>
<path d="M20.6464 27.3024C16.28 27.0329 12.7581 23.4931 12.4706 19.1266V19.0188C12.3808 17.4196 10.3323 16.8626 9.4339 18.1923C8.42765 19.6837 7.88859 21.5165 7.97844 23.4571C8.19406 27.9313 11.8237 31.579 16.3159 31.7946C18.2745 31.8845 20.0894 31.3274 21.5808 30.3391C22.9105 29.4407 22.3534 27.3923 20.7542 27.3024H20.6464Z" fill="#1C2617"/>
<path d="M16.7291 27.3566C19.1009 27.3566 21.0236 25.4339 21.0236 23.0621C21.0236 20.6903 19.1009 18.7676 16.7291 18.7676C14.3573 18.7676 12.4346 20.6903 12.4346 23.0621C12.4346 25.4339 14.3573 27.3566 16.7291 27.3566Z" fill="#747E6C"/>
<path d="M17.0699 18.7674C16.8363 18.7494 16.6027 18.7494 16.3691 18.7674C15.9199 18.8033 15.9378 19.4502 16.387 19.4861H16.441C18.4535 19.6838 20.0886 21.3189 20.2863 23.3314V23.3854C20.3222 23.8346 20.9691 23.8346 21.005 23.4033C21.023 23.1697 21.023 22.9361 21.005 22.7025C20.8433 20.6182 19.1542 18.9291 17.0699 18.7674Z" fill="#C4C1AB"/>
<path d="M18.2019 25.3436C16.2254 25.1279 14.6441 23.5467 14.4285 21.5701V21.5162C14.3387 20.6717 13.2066 20.4561 12.8293 21.2108C12.5238 21.8576 12.3801 22.5944 12.434 23.367C12.5777 25.4694 14.3027 27.1944 16.4051 27.3381C17.1777 27.392 17.9144 27.2483 18.5433 26.9428C19.316 26.5834 19.0824 25.4334 18.2379 25.3436H18.2019Z" fill="#485143"/>
<path d="M3.95312 9.35156H5.33672V17.0781H3.95312V9.35156Z" fill="#E67368"/>
<path d="M74.9832 31.8121C79.8161 31.8121 83.734 27.8942 83.734 23.0613C83.734 18.2284 79.8161 14.3105 74.9832 14.3105C70.1503 14.3105 66.2324 18.2284 66.2324 23.0613C66.2324 27.8942 70.1503 31.8121 74.9832 31.8121Z" fill="#323D2C"/>
<path d="M78.9003 27.3024C74.5339 27.0329 71.012 23.4931 70.7245 19.1266V19.0188C70.6347 17.4196 68.5862 16.8626 67.6878 18.1923C66.6816 19.6837 66.1425 21.5165 66.2323 23.4571C66.448 27.9313 70.0777 31.579 74.5698 31.7946C76.5284 31.8845 78.3433 31.3274 79.8347 30.3391C81.1644 29.4407 80.6073 27.3923 79.0081 27.3024H78.9003Z" fill="#1C2617"/>
<path d="M74.9479 27.3566C77.3197 27.3566 79.2424 25.4339 79.2424 23.0621C79.2424 20.6903 77.3197 18.7676 74.9479 18.7676C72.576 18.7676 70.6533 20.6903 70.6533 23.0621C70.6533 25.4339 72.576 27.3566 74.9479 27.3566Z" fill="#747E6C"/>
<path d="M75.3429 14.3116C74.6241 14.2756 73.9054 14.3295 73.2226 14.4733C72.4499 14.617 72.5937 15.7491 73.3663 15.7491H73.4921C78.2898 15.7491 82.2429 19.7022 82.2429 24.4998V24.6256C82.2249 25.3983 83.3569 25.542 83.5187 24.7694C83.6444 24.0866 83.7163 23.3858 83.6804 22.6491C83.4827 18.1569 79.8351 14.5092 75.3429 14.3116Z" fill="#485143"/>
<path d="M75.2886 18.7674C75.055 18.7494 74.8214 18.7494 74.5878 18.7674C74.1386 18.8033 74.1566 19.4502 74.6058 19.4861H74.6597C76.6722 19.6838 78.3074 21.3189 78.505 23.3314V23.3854C78.541 23.8346 79.1878 23.8346 79.2238 23.4033C79.2417 23.1697 79.2417 22.9361 79.2238 22.7025C79.062 20.6182 77.373 18.9291 75.2886 18.7674Z" fill="#C4C1AB"/>
<path d="M76.4207 25.3436C74.4441 25.1279 72.8629 23.5467 72.6472 21.5701V21.5162C72.5574 20.6717 71.4254 20.4561 71.048 21.2108C70.7426 21.8576 70.5988 22.5944 70.6527 23.367C70.7965 25.4694 72.5215 27.1944 74.6238 27.3381C75.3965 27.392 76.1332 27.2483 76.7621 26.9428C77.5348 26.5834 77.3012 25.4334 76.4566 25.3436H76.4207Z" fill="#485143"/>
<path d="M46 11.3273H59.4766L65.0469 11.6867H80.7695C78.182 10.7883 75.4148 10.2492 72.6297 10.2492H65.0469L59.4766 9.88984H46L15.8844 5.25391L0.898438 6.925V8.47031L15.9023 7.24844L46 11.3273Z" fill="#E67368"/>
<mask id="mask0_102_1796" style="mask-type:luminance" maskUnits="userSpaceOnUse" x="15" y="2" width="45" height="8">
<path d="M59.4766 9.89062H46L15.9023 5.25469L24.6172 2.70312H40.7531C46.3773 2.70312 51.8758 4.46406 56.4578 7.73438L59.4766 9.89062Z" fill="white"/>
</mask>
<g mask="url(#mask0_102_1796)">
<path d="M37.483 11.5609H34.2666L23.8447 1.21094H27.0611L37.483 11.5609ZM47.2041 11.5609H40.4838L30.0619 1.21094H36.7643L47.2041 11.5609Z" fill="#747E6C"/>
</g>
<path d="M35.0748 8.21953L31.4092 7.64453V2.70312H35.0748V8.21953Z" fill="#323D2C"/>
</svg>
