<svg width="63" height="57" viewBox="0 0 63 57" fill="none" xmlns="http://www.w3.org/2000/svg">
<path d="M54.8978 48.6918V19.0027L31.4992 10.8926L8.10059 19.0027V48.6918L31.4992 56.113L54.8978 48.6918Z" fill="#FD982C"/>
<path d="M54.8966 48.6918V19.0027L31.498 10.8926V56.113L54.8966 48.6918Z" fill="#FA502E"/>
<path d="M54.8978 19.0027L31.4992 10.8926L8.10059 19.0027L31.4992 27.2358L54.8978 19.0027Z" fill="#FFF2B4"/>
<path d="M54.8966 19.0027L31.498 10.8926V27.2358L54.8966 19.0027Z" fill="#FFDF8E"/>
<path d="M8.10005 19.0039L0 28.5888L23.839 37.2519L31.4986 27.237L8.10005 19.0039Z" fill="#FABE3D"/>
<path d="M54.8966 19.0039L62.9994 28.5888L39.1604 37.2519L31.498 27.237L54.8966 19.0039Z" fill="#FABE3D"/>
<path d="M54.8966 19.0039L62.9994 28.5888L39.1604 37.2519L31.498 27.237L54.8966 19.0039Z" fill="#FD982C"/>
<path d="M8.10005 19.003L0 9.548L23.839 0.884766L31.4986 10.8929L8.10005 19.003Z" fill="#FDDA50"/>
<path d="M54.8966 19.003L62.9994 9.548L39.1604 0.884766L31.498 10.8929L54.8966 19.003Z" fill="#FABE3D"/>
</svg>
