<svg width="76" height="52" viewBox="0 0 76 52" fill="none" xmlns="http://www.w3.org/2000/svg">
<path d="M0 35.1735V40.9079C0 41.212 0.120832 41.5038 0.335914 41.7188C0.550996 41.9339 0.842709 42.0548 1.14688 42.0548H18.3501V30.5859L0 35.1735Z" fill="#ACD5DF"/>
<path d="M66.8242 28.293L71.4117 42.0555H74.8524C75.1566 42.0555 75.4483 41.9347 75.6634 41.7196C75.8784 41.5045 75.9993 41.2128 75.9993 40.9087V35.1743L66.8242 28.293Z" fill="#9ABBD0"/>
<path d="M57.6504 30.5859H71.413V42.0548H57.6504V30.5859Z" fill="#ACD5DF"/>
<path d="M71.5342 23.1783L66.8242 21.4121L71.4117 35.1747H75.9993V29.6215C75.9993 26.7531 74.2199 24.1856 71.5342 23.1783Z" fill="#FF3E3A"/>
<path d="M18.3496 32.8809H57.6494V42.0559H18.3496V32.8809Z" fill="#ACD5DF"/>
<path d="M51.6873 0.767578H4.58753C2.05383 0.767578 0 2.82141 0 5.3551L29.8163 12.2364L59.6326 5.3551C58.0068 2.53775 54.9882 0.767578 51.6873 0.767578Z" fill="#4A527B"/>
<path d="M71.4125 29.6212C71.4125 26.7528 70.5228 24.1853 69.1799 23.178L66.8249 21.4118L60.0715 6.2167C59.9403 5.92216 59.7937 5.63468 59.6325 5.35547H0V35.1744H18.3501V37.4681H57.6499V35.1744H71.4125V29.6212Z" fill="#EA1827"/>
<path d="M18.3508 51.231C23.4181 51.231 27.5259 47.1231 27.5259 42.0559C27.5259 36.9887 23.4181 32.8809 18.3508 32.8809C13.2836 32.8809 9.17578 36.9887 9.17578 42.0559C9.17578 47.1231 13.2836 51.231 18.3508 51.231Z" fill="#4A527B"/>
<path d="M18.3504 37.4688L16.0566 42.0563L18.3504 46.6438C20.8841 46.6438 22.9379 44.59 22.9379 42.0563C22.9379 39.5226 20.8841 37.4688 18.3504 37.4688Z" fill="#C5F3FF"/>
<path d="M13.7627 42.0563C13.7627 44.59 15.8165 46.6438 18.3502 46.6438V37.4688C15.8165 37.4688 13.7627 39.5226 13.7627 42.0563Z" fill="white"/>
<path d="M57.6497 51.231C62.7169 51.231 66.8247 47.1231 66.8247 42.0559C66.8247 36.9887 62.7169 32.8809 57.6497 32.8809C52.5824 32.8809 48.4746 36.9887 48.4746 42.0559C48.4746 47.1231 52.5824 51.231 57.6497 51.231Z" fill="#4A527B"/>
<path d="M57.6502 37.4688L55.3564 42.0563L57.6502 46.6438C60.1839 46.6438 62.2377 44.59 62.2377 42.0563C62.2377 39.5226 60.1837 37.4688 57.6502 37.4688Z" fill="#C5F3FF"/>
<path d="M53.0625 42.0563C53.0625 44.59 55.1163 46.6438 57.65 46.6438V37.4688C55.1163 37.4688 53.0625 39.5226 53.0625 42.0563Z" fill="white"/>
<path d="M58.7465 14.5309L56.7077 9.94336H51.6875L51.4326 16.8246L58.7465 14.5309Z" fill="#A0ECFF"/>
<path d="M44.8809 9.94336V14.5309L49.3034 16.8246L53.7258 14.5309L51.6869 9.94336H44.8809ZM56.7841 21.4122H61.8044L58.7459 14.5309H53.7258V17.9715L56.7841 21.4122Z" fill="#C5F3FF"/>
<path d="M44.8809 21.4106H56.7841L53.7258 14.5293H44.8809V21.4106Z" fill="white"/>
<path d="M35.7067 9.94336L31.1191 15.6778L35.7067 21.4122H40.2942V9.94336H35.7067Z" fill="#C5F3FF"/>
<path d="M28.3921 9.94336L25.9408 15.6778L28.3921 21.4122H35.7066V9.94336H28.3921ZM4.58789 9.94336V21.4122H16.4899L18.9412 15.6778L16.4899 9.94336H4.58789Z" fill="white"/>
<path d="M16.4902 9.94336H28.3923V21.4122H16.4902V9.94336Z" fill="#E5FAFF"/>
<path d="M49.4688 27.1453H44.8813C44.2477 27.1453 43.7344 26.632 43.7344 25.9984C43.7344 25.3649 44.2477 24.8516 44.8813 24.8516H49.4688C50.1023 24.8516 50.6157 25.3649 50.6157 25.9984C50.6157 26.632 50.1023 27.1453 49.4688 27.1453Z" fill="#323752"/>
</svg>
