<svg width="97" height="53" viewBox="0 0 97 53" fill="none" xmlns="http://www.w3.org/2000/svg">
<path d="M70.4033 6.94336V10.0726L78.2258 12.1645V6.94336H70.4033Z" fill="#5D5360"/>
<path d="M59.4512 10.0723H78.2254V14.7658H59.4512V10.0723Z" fill="#B6B1B7"/>
<path d="M81.3542 21.0234C72.7136 21.0234 65.709 28.0279 65.709 36.6687C65.709 45.3092 72.7136 52.3139 81.3542 52.3139C89.9948 52.3139 96.9994 45.3091 96.9994 36.6685C96.9994 28.0279 89.9948 21.0234 81.3542 21.0234ZM81.3542 46.0557C76.1698 46.0557 71.9672 41.8531 71.9672 36.6687C71.9672 31.4843 76.1698 27.2816 81.3542 27.2816C86.5386 27.2816 90.7412 31.4843 90.7412 36.6687C90.7414 41.8529 86.5386 46.0557 81.3542 46.0557Z" fill="#5D5360"/>
<path d="M81.3548 47.6218C75.3168 47.6218 70.4033 42.7091 70.4033 36.6703C70.4033 30.6315 75.3168 25.7188 81.3548 25.7188C87.3929 25.7188 92.3064 30.6315 92.3064 36.6703C92.3064 42.7091 87.3929 47.6218 81.3548 47.6218ZM81.3548 28.8476C77.0418 28.8476 73.5323 32.357 73.5323 36.6701C73.5323 40.9832 77.0418 44.4926 81.3548 44.4926C85.6679 44.4926 89.1774 40.9832 89.1774 36.6701C89.1776 32.357 85.6679 28.8476 81.3548 28.8476Z" fill="#EA1827"/>
<path d="M81.3556 41.3616C83.9478 41.3616 86.0491 39.2603 86.0491 36.6681C86.0491 34.076 83.9478 31.9746 81.3556 31.9746C78.7635 31.9746 76.6621 34.076 76.6621 36.6681C76.6621 39.2603 78.7635 41.3616 81.3556 41.3616Z" fill="#857E87"/>
<path d="M81.3548 38.2338C81.0337 38.2336 80.7204 38.1345 80.4574 37.9502C80.1945 37.7658 79.9947 37.505 79.885 37.2032L73.1244 18.6116C72.8279 17.7996 73.2481 16.9019 74.0593 16.6062C74.2524 16.5358 74.4575 16.5042 74.6627 16.5132C74.868 16.5222 75.0695 16.5715 75.2557 16.6585C75.4419 16.7454 75.6091 16.8682 75.7478 17.0198C75.8865 17.1714 75.9939 17.3489 76.064 17.5421L82.8246 36.1337C83.1211 36.9457 82.7009 37.8433 81.8896 38.1391C81.7123 38.2031 81.5321 38.2338 81.3548 38.2338Z" fill="#B6B1B7"/>
<path d="M32.5146 34.8792L41.0834 23.4004L50.2603 32.7577L42.3291 37.1706L32.5146 34.8792Z" fill="#9B959D"/>
<path d="M43.8067 11.637H31.9818C31.2779 11.637 30.583 11.4787 29.9486 11.1737C29.3142 10.8688 28.7565 10.4251 28.3168 9.87544L25.3469 6.1631C24.7606 5.43024 24.017 4.83863 23.1711 4.43208C22.3252 4.02553 21.3987 3.81444 20.4602 3.81445H14.5233C13.3674 3.81445 12.8712 5.2812 13.7895 5.98312L55.7361 38.0384V28.4557L43.8067 11.637Z" fill="#EA1827"/>
<path d="M43.8065 13.2019H31.981C30.0696 13.2019 28.2897 12.3456 27.095 10.8529C26.8405 10.5283 26.7244 10.1163 26.772 9.70654C26.8196 9.2968 27.027 8.92242 27.3492 8.66484C27.6714 8.40727 28.0823 8.28733 28.4925 8.33111C28.9027 8.37489 29.279 8.57886 29.5395 8.89864C29.8315 9.26591 30.2028 9.56233 30.6256 9.76569C31.0485 9.96905 31.5118 10.0741 31.981 10.0729H43.8065C44.6713 10.0729 45.371 10.7735 45.371 11.6374C45.371 12.5013 44.6712 13.2019 43.8065 13.2019ZM15.6452 21.0246C7.00465 21.0246 0 28.0291 0 36.6696C0 45.3102 7.00465 52.3149 15.6452 52.3149C24.2858 52.3149 31.2905 45.3102 31.2905 36.6696C31.2903 28.0291 24.2858 21.0246 15.6452 21.0246ZM15.6452 46.0569C10.4608 46.0569 6.25821 41.8542 6.25821 36.6698C6.25821 31.4854 10.4608 27.2828 15.6452 27.2828C20.8296 27.2828 25.0323 31.4854 25.0323 36.6698C25.0323 41.854 20.8296 46.0569 15.6452 46.0569Z" fill="#5D5360"/>
<path d="M15.6449 47.6218C9.60683 47.6218 4.69336 42.7091 4.69336 36.6703C4.69336 30.6315 9.60683 25.7188 15.6449 25.7188C21.6829 25.7188 26.5964 30.6315 26.5964 36.6703C26.5964 42.7091 21.6829 47.6218 15.6449 47.6218ZM15.6449 28.8476C11.3318 28.8476 7.82237 32.357 7.82237 36.6701C7.82237 40.9832 11.3318 44.4926 15.6449 44.4926C19.958 44.4926 23.4674 40.9832 23.4674 36.6701C23.4674 32.357 19.958 28.8476 15.6449 28.8476Z" fill="#EA1827"/>
<path d="M15.6447 41.3616C18.2368 41.3616 20.3382 39.2603 20.3382 36.6681C20.3382 34.076 18.2368 31.9746 15.6447 31.9746C13.0525 31.9746 10.9512 34.076 10.9512 36.6681C10.9512 39.2603 13.0525 41.3616 15.6447 41.3616Z" fill="#857E87"/>
<path d="M28.218 29.1929C27.8553 28.9914 27.4273 28.9423 27.0283 29.0563C26.6293 29.1703 26.292 29.4382 26.0905 29.8009L24.5709 32.5368C24.3694 32.8995 24.3202 33.3274 24.4342 33.7264C24.5483 34.1253 24.8161 34.4627 25.1788 34.6642L40.4328 43.3178L42.3287 37.1701L28.218 29.1929Z" fill="#DAD8DB"/>
<path d="M86.9734 14.4317L75.7898 0.685547C74.6974 0.685547 73.9413 1.77661 74.3249 2.79946L76.6404 8.97393C77.4075 11.0195 75.8953 13.2016 73.7105 13.2016H64.145V11.6371C64.145 8.18088 61.3432 5.37906 57.887 5.37906H51.3263C48.4841 5.37901 45.7265 6.34628 43.5072 8.12177L41.4751 9.74747C40.1578 10.8012 39.913 12.7098 40.9217 14.0619L43.6256 17.6861L47.8686 18.9852L47.4459 22.8069L52.0892 29.031L48.2391 30.0203L38.6045 36.4776L40.0377 42.9192H63.3404L66.1091 41.3628C66.2064 41.0865 66.2777 40.8016 66.3221 40.512L67.6461 31.9059C68.0036 29.5822 69.0083 27.4062 70.5452 25.6271C72.082 23.848 74.0889 22.5377 76.336 21.8463L85.2539 19.1025C87.2282 18.4949 88.0825 16.1747 86.9734 14.4317Z" fill="#FF4040"/>
<path d="M48.5002 36.6702C51.0923 36.6702 53.1937 34.5689 53.1937 31.9767C53.1937 29.3846 51.0923 27.2832 48.5002 27.2832C45.908 27.2832 43.8066 29.3846 43.8066 31.9767C43.8066 34.5689 45.908 36.6702 48.5002 36.6702Z" fill="#B6B1B7"/>
<path d="M79.1483 2.13467C78.8656 1.69056 78.4755 1.32493 78.0141 1.07163C77.5526 0.818321 77.0347 0.68553 76.5083 0.685547H75.79L80.4106 9.35189C81.4024 11.2122 82.9915 12.6845 84.9221 13.5316L86.9736 14.4319L79.1483 2.13467Z" fill="#DAD8DB"/>
<path d="M70.4024 10.0724C71.2664 10.0724 71.9669 9.37191 71.9669 8.50786C71.9669 7.64381 71.2664 6.94336 70.4024 6.94336C69.5383 6.94336 68.8379 7.64381 68.8379 8.50786C68.8379 9.37191 69.5383 10.0724 70.4024 10.0724Z" fill="#4B3F4E"/>
<path d="M48.432 14.3669L43.625 17.6855L47.4453 22.8064L51.6614 19.7506C51.9227 19.5612 52.2371 19.4592 52.5598 19.4592H61.0157C62.7439 19.4592 64.1447 18.0582 64.1447 16.3302V13.2012H52.0695C50.7651 13.2012 49.4934 13.6088 48.432 14.3669Z" fill="#DAD8DB"/>
<path d="M43.9472 41.3639C43.0756 41.3639 42.2211 41.1212 41.4797 40.6629C40.7382 40.2047 40.139 39.549 39.7491 38.7694L38.6037 36.4785L38.2723 36.7006C36.9638 37.5775 36.511 39.2904 37.2154 40.6993L37.8148 41.8982C38.2046 42.6779 38.8038 43.3336 39.5453 43.7919C40.2868 44.2502 41.1412 44.493 42.0129 44.4929H61.6823C63.7007 44.4929 65.457 43.2086 66.1083 41.3639H43.9472Z" fill="#DB4655"/>
<path d="M48.5 33.5392C49.3641 33.5392 50.0646 32.8387 50.0646 31.9747C50.0646 31.1106 49.3641 30.4102 48.5 30.4102C47.636 30.4102 46.9355 31.1106 46.9355 31.9747C46.9355 32.8387 47.636 33.5392 48.5 33.5392Z" fill="#DAD8DB"/>
</svg>
