<svg width="16" height="16" viewBox="0 0 16 16" fill="none" xmlns="http://www.w3.org/2000/svg">
<path d="M1 8C1 11.866 4.134 15 8 15C11.866 15 15 11.866 15 8C15 4.134 11.866 1 8 1C4.134 1 1 4.134 1 8Z" stroke="#061E38" stroke-linecap="round" stroke-linejoin="round"/>
<path d="M8.69922 1.0332C8.69922 1.0332 10.7992 3.79864 10.7992 7.99861C10.7992 12.1986 8.69922 14.9641 8.69922 14.9641" stroke="#061E38" stroke-linecap="round" stroke-linejoin="round"/>
<path d="M7.29922 14.9641C7.29922 14.9641 5.19922 12.1986 5.19922 7.99861C5.19922 3.79864 7.29922 1.0332 7.29922 1.0332" stroke="#061E38" stroke-linecap="round" stroke-linejoin="round"/>
<path d="M1.44141 10.4492H14.5599" stroke="#061E38" stroke-linecap="round" stroke-linejoin="round"/>
<path d="M1.44141 5.55078H14.5599" stroke="#061E38" stroke-linecap="round" stroke-linejoin="round"/>
</svg>
