<svg width="65" height="65" viewBox="0 0 65 65" fill="none" xmlns="http://www.w3.org/2000/svg">
<path d="M53.3513 57.5177V62.8335C53.3513 63.4319 52.8666 63.9167 52.2681 63.9167H12.7316C12.1332 63.9167 11.6484 63.4319 11.6484 62.8335V57.5177C11.6484 51.9406 16.1694 47.4224 21.7478 47.421C23.7192 47.4197 25.4551 46.4055 26.4543 44.8674C27.4582 43.3247 27.3547 41.9831 27.3547 40.8988L27.375 40.8488C22.5142 38.8367 19.0954 34.0477 19.0954 28.4598V28.036C17.1653 28.036 15.7104 26.5107 15.7104 24.7133V19.0861C15.6671 17.1269 15.7564 10.2175 20.7472 5.40674C26.5504 -0.186588 35.7467 0.271061 42.4084 3.26338C42.625 3.36086 42.6182 3.67093 42.3989 3.76164L40.6617 4.47655C40.4017 4.58352 40.4573 4.96669 40.7362 4.99648L41.5797 5.0872C45.6187 5.51912 49.3706 7.71258 51.6967 11.3629C51.759 11.4618 51.7414 11.6121 51.6615 11.6974C50.2246 13.2186 49.4243 15.232 49.4247 17.3246V24.7133C49.4247 26.5479 47.9367 28.036 46.102 28.036H45.9044V28.4598C45.9044 34.0477 42.4855 38.8367 37.6247 40.8488L37.645 40.8988C37.645 41.9518 37.5331 43.3117 38.5454 44.8674C39.5447 46.4055 41.2805 47.4197 43.2519 47.421C48.8303 47.4224 53.3513 51.9406 53.3513 57.5177Z" fill="#FFDFBA"/>
<path d="M53.3513 57.5175V62.8333C53.3513 63.1205 53.2372 63.3961 53.034 63.5992C52.8309 63.8023 52.5554 63.9165 52.2681 63.9165H12.7316C12.4443 63.9165 12.1688 63.8023 11.9657 63.5992C11.7626 63.3961 11.6484 63.1205 11.6484 62.8333V57.5175C11.6484 51.9404 16.1701 47.4228 21.7472 47.4208C23.7191 47.4201 25.4553 46.4048 26.4543 44.8672C29.9414 47.8462 35.0563 47.848 38.5454 44.8672C39.5443 46.4048 41.2806 47.4201 43.2526 47.4208C48.8297 47.4228 53.3513 51.9404 53.3513 57.5175Z" fill="#FF4040"/>
<path d="M51.6964 11.3635C51.7592 11.4622 51.7416 11.6117 51.6613 11.6968C50.2248 13.2184 49.4247 15.2319 49.4249 17.3245V24.7132C49.4249 26.3905 48.1612 28.0359 45.9045 28.0359V19.6723C45.9045 16.0829 42.9948 13.1731 39.4054 13.1731H25.5947C22.0053 13.1731 19.0956 16.0829 19.0956 19.6723V28.0359C17.1655 28.0359 15.7106 26.5106 15.7106 24.7132V19.086C15.6673 17.1268 15.7566 10.2174 20.7474 5.40666C26.5504 -0.1868 35.7475 0.271119 42.4081 3.26371C42.6249 3.36106 42.6191 3.67126 42.3993 3.7617L40.662 4.47688C40.4023 4.58384 40.457 4.96662 40.7362 4.99654L41.58 5.08712C45.6195 5.51864 49.3705 7.7121 51.6964 11.3635Z" fill="#42434D"/>
<path d="M45.9047 28.4604C45.9047 35.8661 39.9 41.8649 32.5002 41.8649C25.5282 41.8649 19.0957 36.4447 19.0957 28.0366V19.673C19.0957 16.0836 22.0054 13.1738 25.5949 13.1738H39.4055C42.995 13.1738 45.9047 16.0836 45.9047 19.673V28.4604Z" fill="#FFEBD2"/>
<path d="M29.4651 37.1159C31.669 38.4947 29.9311 41.876 27.5186 40.9076C22.5584 38.9167 19.0957 34.083 19.0957 28.4601V19.6728C19.0936 18.3592 19.4914 17.0762 20.2362 15.9942C21.1182 14.7116 23.1577 15.2782 23.1577 16.9648V25.7522C23.1577 30.6956 25.7563 34.7955 29.4651 37.1159Z" fill="#FFF3E4"/>
<path d="M37.7985 43.121C34.4626 44.5174 30.7967 44.6257 27.2021 43.121C27.3857 42.3593 27.3551 41.8659 27.3551 40.8978L27.3755 40.8477C30.6361 42.2011 34.3581 42.2038 37.6252 40.8477L37.6455 40.8978C37.6455 41.8663 37.6149 42.3595 37.7985 43.121Z" fill="#FFD6A6"/>
<path d="M27.2033 50.6916C26.7026 50.8491 26.1656 50.9359 25.5899 50.9409C19.9985 50.9902 15.4396 55.4114 15.4396 61.0031V62.0209C15.4396 63.0678 14.5909 63.9165 13.544 63.9165H12.7316C12.4443 63.9165 12.1688 63.8023 11.9657 63.5992C11.7626 63.3961 11.6484 63.1205 11.6484 62.8333V57.5175C11.6484 51.9403 16.1701 47.4228 21.7472 47.4208C23.7191 47.4201 25.4553 46.4048 26.4543 44.8672C26.8568 45.2109 27.2876 45.5199 27.7422 45.7909C29.7398 46.9812 29.4214 49.9942 27.2033 50.6916Z" fill="#FF6D7A"/>
<path d="M37.7973 50.6916C38.298 50.8491 38.835 50.9359 39.4107 50.9409C45.0021 50.9902 49.561 55.4114 49.561 61.0031V62.0209C49.561 63.0678 50.4097 63.9165 51.4566 63.9165H52.269C52.5562 63.9165 52.8318 63.8023 53.0349 63.5992C53.238 63.3961 53.3522 63.1205 53.3522 62.8333V57.5175C53.3522 51.9403 48.8305 47.4228 43.2534 47.4208C41.2815 47.4201 39.5453 46.4048 38.5463 44.8672C38.1438 45.2109 37.713 45.5199 37.2584 45.7909C35.2608 46.9812 35.5792 49.9942 37.7973 50.6916Z" fill="#E84857"/>
<path d="M42.3991 3.76164C40.8071 4.41684 40.5801 4.56131 40.0285 4.47574C31.1363 3.09738 23.3346 6.77657 20.6852 15.4141V15.4154C19.6578 16.5954 19.093 18.1078 19.0956 19.6724V24.7529C19.0956 26.9448 15.7106 27.0974 15.7106 24.7133V19.0861C15.6673 17.1269 15.7566 10.2175 20.7474 5.40674C26.5506 -0.186588 35.7469 0.271061 42.4086 3.26338C42.6252 3.36086 42.6184 3.67093 42.3991 3.76164Z" fill="#4D4E59"/>
<path d="M54.4345 57.5182V63.9168C54.4345 64.2041 54.3204 64.4796 54.1173 64.6827C53.9141 64.8859 53.6386 65 53.3513 65C53.0641 65 52.7886 64.8859 52.5854 64.6827C52.3823 64.4796 52.2682 64.2041 52.2682 63.9168V57.5182C52.2682 52.5362 48.2367 48.5045 43.2542 48.5046C40.8968 48.5046 38.7579 47.3036 37.5324 45.2919C37.4584 45.1704 37.4091 45.0355 37.3872 44.8949C37.3653 44.7544 37.3714 44.6109 37.405 44.4727C37.4385 44.3344 37.499 44.2042 37.5829 44.0893C37.6669 43.9745 37.7726 43.8773 37.8941 43.8033C38.0156 43.7293 38.1504 43.68 38.291 43.6581C38.4315 43.6362 38.575 43.6422 38.7133 43.6758C38.8515 43.7094 38.9817 43.7699 39.0966 43.8538C39.2115 43.9377 39.3087 44.0434 39.3826 44.1649C40.2116 45.5258 41.6588 46.3382 43.2542 46.3382C49.4334 46.338 54.4345 51.3385 54.4345 57.5182ZM35.532 46.6602C35.5932 46.9409 35.5404 47.2344 35.3852 47.4761C35.2299 47.7179 34.985 47.888 34.7043 47.9492C31.8537 48.5703 28.9544 47.9485 26.6459 46.3729C24.3607 48.8218 21.3416 48.5046 21.7457 48.5046C16.7637 48.5045 12.7318 52.5358 12.7318 57.5182V63.9168C12.7318 64.2041 12.6177 64.4796 12.4146 64.6827C12.2114 64.8859 11.9359 65 11.6486 65C11.3613 65 11.0858 64.8859 10.8827 64.6827C10.6796 64.4796 10.5654 64.2041 10.5654 63.9168V57.5182C10.5654 51.3392 15.5656 46.3382 21.7455 46.3382C24.2452 46.3382 26.2717 44.3242 26.2717 41.8238V41.5385C21.5437 39.2777 18.2251 34.527 18.0228 28.9947C16.0771 28.5269 14.6274 26.7854 14.6274 24.7134V19.098C14.5682 16.3494 14.9763 9.46532 19.9957 4.62697C26.1936 -1.34764 36.1329 -0.968116 43.4415 2.55022C44.1538 2.89346 44.262 3.85588 43.6705 4.35428C47.3729 5.25739 50.5656 7.53345 52.6168 10.7909C52.7227 10.9586 52.9166 11.222 52.8659 11.6421C52.8345 11.9036 52.7567 12.1248 52.5552 12.3293C51.2351 13.6681 50.5081 15.4422 50.5081 17.325V24.7137C50.5081 25.0009 50.394 25.2765 50.1908 25.4796C49.9877 25.6827 49.7122 25.7969 49.4249 25.7969C49.1376 25.7969 48.8621 25.6827 48.659 25.4796C48.4558 25.2765 48.3417 25.0009 48.3417 24.7137V17.325C48.3417 15.1536 49.0836 13.0925 50.4461 11.4369C48.3693 8.46675 45.1292 6.55654 41.4648 6.16416L39.561 5.96025C38.4477 5.84109 38.2293 4.30743 39.2639 3.8816L40.1298 3.5251C28.8529 -0.40621 16.7936 3.96189 16.7936 19.0862V24.7134C16.7936 25.5729 17.2887 26.3199 18.0122 26.6951V19.6729C18.0122 15.4921 21.4137 12.0906 25.5946 12.0906H39.4053C43.5861 12.0906 46.9876 15.4918 46.9876 19.6725V28.5415C46.9876 37.9618 37.7821 45.1171 28.4149 42.3594C28.3555 43.1239 28.1637 43.8724 27.8482 44.5713C29.6703 45.8226 31.9715 46.3274 34.243 45.8324C34.5238 45.7712 34.8172 45.8241 35.059 45.9794C35.3007 46.1346 35.4709 46.3795 35.532 46.6602ZM32.4999 40.7805C39.294 40.7805 44.8212 35.2533 44.8212 28.4592V19.6725C44.8212 16.6864 42.3916 14.2569 39.4053 14.2569H25.5946C22.6082 14.2569 20.1786 16.6865 20.1786 19.6729V28.4592C20.1786 35.2533 25.7059 40.7805 32.4999 40.7805ZM43.4672 59.4486H40.2177C39.9304 59.4486 39.6549 59.5628 39.4517 59.7659C39.2486 59.969 39.1345 60.2445 39.1345 60.5318C39.1345 60.8191 39.2486 61.0946 39.4517 61.2978C39.6549 61.5009 39.9304 61.615 40.2177 61.615H43.4672C43.7545 61.615 44.03 61.5009 44.2332 61.2978C44.4363 61.0946 44.5504 60.8191 44.5504 60.5318C44.5504 60.2445 44.4363 59.969 44.2332 59.7659C44.03 59.5628 43.7545 59.4486 43.4672 59.4486Z" fill="black"/>
</svg>
