<svg width="94" height="94" viewBox="0 0 94 94" fill="none" xmlns="http://www.w3.org/2000/svg">
<path fill-rule="evenodd" clip-rule="evenodd" d="M18.9225 16.2398C16.3259 15.0542 15.1772 15.2249 15.9263 12.0502C16.2077 10.8567 16.392 9.69231 17.2109 8.72385C17.7969 8.02914 19.0525 7.45871 19.4524 6.66687C20.0169 5.54328 17.341 2.46937 19.6328 2.83233C22.9221 3.35429 23.9175 8.72202 26.9935 9.12776C27.2476 9.16264 26.912 6.89599 27.0245 6.71167C27.1332 6.53101 28.9185 7.79046 29.1125 7.98452C30.9698 9.84176 30.5719 12.1413 33.5002 13.3038C35.9356 14.2702 34.0125 9.89996 36.607 10.3211C36.8769 10.3657 37.1504 10.4065 37.3483 10.6121C42.0155 15.4617 34.5443 22.8165 41.9476 24.8289C44.284 25.4654 50.4474 25.6613 52.6848 25.1568C53.9307 24.8755 54.9533 24.1768 56.2769 24.1555C58.9353 24.1129 61.3183 25.6554 63.9674 25.6031C68.1901 25.5177 72.5875 23.9711 75.572 28.1317C76.2126 29.0244 72.0402 28.5858 71.5959 29.2612C70.3501 31.1552 72.1664 34.6269 70.2239 36.3386C69.368 37.0913 67.7515 36.9751 66.7676 37.6601C65.4986 38.545 65.5684 39.7558 63.9461 40.5902C61.3029 41.9507 60.0319 40.5517 58.2116 43.346C57.7381 44.0717 57.059 44.8828 56.9385 45.7639C56.8163 46.6565 58.066 53.697 58.3864 55.0302C58.8073 56.7942 59.9076 54.1743 60.4724 53.9648C60.5287 53.9454 60.8994 54.5742 60.9343 54.6383C61.8541 56.2704 62.6149 58.8958 65.0308 57.3182C67.3615 55.7947 65.5471 54.1784 66.1562 52.3367C66.5135 51.2519 67.6584 50.7376 68.3046 49.8799C68.6112 49.4741 67.8583 47.2815 68.4113 47.1205C69.2032 46.8895 71.396 46.8506 72.1392 47.4502C77.2119 51.541 73.5248 54.5083 73.6898 58.5718C73.7634 60.4018 75.1646 62.1269 75.6148 63.9044C76.096 65.8004 75.9447 67.7643 76.2183 69.6797C76.4492 71.2904 77.0334 72.7691 77.0488 74.4109C77.0683 76.0914 76.4784 77.6885 76.6082 79.4001C76.682 80.3432 76.9537 81.3018 77.5438 82.0549C77.8504 82.443 78.8963 83.3297 78.4073 83.2618C75.6361 82.8855 73.9557 79.3671 71.6365 82.4856C70.5013 84.0109 74.8483 89.1651 73.8916 90.5448C73.6916 90.8321 73.5073 89.9628 73.3171 89.6696C72.7406 88.7829 72.3275 87.7369 71.6637 86.9161C71.6344 86.879 71.604 86.8427 71.5726 86.8074C70.187 85.2334 66.7773 81.1389 66.4863 79.1032C66.2108 77.1819 68.0193 75.4782 67.8427 73.4988C67.672 71.5524 66.2106 70.3609 65.5276 68.6667C64.8832 67.0676 64.7998 65.2862 64.1246 63.7065C62.3353 59.5226 57.3771 58.6397 53.3155 58.432C51.9086 58.3623 50.5618 58.8047 49.25 59.2529C48.433 59.5323 46.8339 58.9501 46.7234 59.804C46.3353 62.7731 48.534 65.5986 48.1574 68.556C47.95 70.1668 46.0443 70.9877 45.2893 72.3073C44.7459 73.2582 44.4587 75.3073 43.2962 75.8061C41.9437 76.3883 39.7975 69.6526 39.6886 68.5075C39.6635 68.2339 39.7431 65.7927 39.6053 65.7714C36.7449 65.36 38.5109 74.0072 37.719 75.189C36.2248 77.4246 35.5552 73.7742 35.1963 72.8293C35.1924 72.8157 34.9886 72.2937 34.9517 72.3053C33.803 72.6547 34.0435 76.0234 33.1975 76.3223C33.048 76.3767 32.7201 75.9225 32.4736 75.9632C31.8567 76.066 31.321 76.6367 30.7349 76.7046C28.0084 77.0191 28.9864 73.0621 28.6429 71.8221C27.8007 68.7928 26.6033 67.3782 26.2308 63.9667C25.9824 61.7039 27.1332 59.7653 26.3259 57.4948C25.8192 56.0723 28.0763 54.9913 26.9177 53.5283C26.4016 52.8761 25.5807 52.5947 24.7773 52.4998C24.4707 52.4629 23.7817 52.8005 23.8516 52.4998C24.5366 49.612 21.1638 49.0765 21.222 45.8823C21.2589 43.8292 25.7981 40.9552 24.3193 38.0133C22.8173 35.0207 18.5908 37.468 16.3785 35.3875C14.4415 33.5692 15.5596 28.3278 15.6468 28.3199C17.5738 28.1745 19.8948 29.4299 20.6439 26.69C20.8282 26.0145 21.1484 24.1613 21.8762 23.5461C22.9026 22.6768 25.2624 25.0927 26.2754 24.1885C26.4385 24.0429 25.8756 20.7206 25.5651 20.5111C23.2305 18.9451 20.1471 21.2038 18.9225 16.2398Z" fill="#71E4BF"/>
<path fill-rule="evenodd" clip-rule="evenodd" d="M21.5027 45.2773C23.021 46.0466 24.5687 46.6598 25.7382 47.6604C26.9058 48.661 27.2234 50.2068 28.2259 51.3047C29.1402 52.3072 30.295 52.4852 30.7723 53.9173C31.7454 56.8529 30.6181 59.5793 30.8568 62.5168C30.9229 63.3173 31.0532 65.1661 31.929 65.5681C32.3531 65.7646 32.8818 66.0124 33.3647 66.1207C36.4086 66.8055 35.6761 62.9446 38.3933 61.8577C40.1099 61.1729 41.2977 61.4648 42.9905 61.8742C43.578 62.0156 44.4959 62.3167 44.9659 61.7457C45.7389 60.8094 45.2542 59.1809 45.3386 58.0683C45.4763 56.2342 46.89 54.9656 48.636 54.7049C49.5154 54.5727 50.4683 55.173 51.2742 55.4209C52.6604 55.8468 54.0024 55.9203 55.4143 56.1645C55.8641 56.2416 56.2937 56.7061 56.7857 56.6143C57.4503 56.4894 58.1058 56.1443 58.7557 55.7293C59.0329 55.9607 59.4074 55.5219 59.7673 55.0427C60.1069 54.8059 60.4466 54.5727 60.7862 54.3634C60.9019 54.5415 61.0286 54.7581 61.0488 54.793C61.9686 56.4252 62.7286 59.0524 65.1466 57.4735C65.6955 57.1136 66.015 56.7501 66.1912 56.3774C67.1349 58.4025 67.0853 60.6478 67.5278 62.9023C67.7426 63.9874 68.3172 64.9274 68.7267 65.9371C69.114 66.8937 69.7125 69.4511 70.994 69.5723C71.4714 69.6164 72.0772 69.1115 72.4591 68.9077C75.7528 67.1489 74.6953 64.4959 74.9009 61.9789C75.2332 62.6729 75.5582 63.3632 75.7344 64.0627C76.2154 65.961 76.0649 67.9236 76.3403 69.8404C76.5698 71.4505 77.1536 72.9302 77.1701 74.5734C77.1885 76.2551 76.5991 77.8505 76.7295 79.5635C76.8029 80.5072 77.0747 81.4655 77.6658 82.2201C77.9706 82.6093 79.0189 83.4942 78.5287 83.4281C75.7565 83.0518 74.0747 79.5304 71.7559 82.6497C70.6195 84.1772 74.9688 89.3343 74.0105 90.715C73.8122 91.0014 73.6268 90.1311 73.4358 89.8374C72.8593 88.9506 72.4463 87.9041 71.7817 87.0835C71.7523 87.0468 71.7211 87.01 71.6899 86.9752C70.3056 85.3999 66.8944 81.304 66.6025 79.2679C66.3252 77.3457 68.1355 75.6401 67.9611 73.6609C67.7885 71.7148 66.3271 70.5233 65.6441 68.8269C64.9997 67.2278 64.9152 65.4451 64.2396 63.8644C62.4496 59.6784 57.4889 58.7954 53.4259 58.5897C52.0178 58.5181 50.672 58.9606 49.3593 59.4104C48.5424 59.6876 46.9433 59.1056 46.8313 59.9612C46.4439 62.9299 48.6433 65.7572 48.2651 68.7149C48.0595 70.3287 46.152 71.1494 45.3974 72.4694C44.854 73.4204 44.5657 75.4712 43.4036 75.9705C42.0505 76.5507 39.9043 69.8128 39.7941 68.6672C39.7684 68.3936 39.8492 65.9518 39.7115 65.9316C36.8493 65.5186 38.6154 74.1695 37.8242 75.3518C36.3297 77.588 35.6577 73.9363 35.2997 72.9908C35.2961 72.978 35.0923 72.4547 35.0556 72.4657C33.9063 72.8164 34.1468 76.1854 33.3004 76.4864C33.1517 76.5397 32.8231 76.0862 32.577 76.1266C31.9583 76.2294 31.4222 76.8004 30.8366 76.8683C28.1102 77.1823 29.0888 73.224 28.7436 71.9847C27.9027 68.9536 26.7039 67.5381 26.3312 64.1251C26.0833 61.8595 27.2345 59.9208 26.4248 57.6516C25.9199 56.2287 28.1763 55.1455 27.0197 53.6823C26.5019 53.0305 25.6794 52.7496 24.8771 52.6523C24.5705 52.6174 23.8802 52.9534 23.9518 52.6541C24.6366 49.7644 21.2622 49.2283 21.3191 46.0338C21.3246 45.7932 21.3907 45.5399 21.5027 45.2773Z" fill="#14D597"/>
<path fill-rule="evenodd" clip-rule="evenodd" d="M48.748 62.0574C48.9595 61.8613 49.5283 61.1027 49.8426 61.1512C50.353 61.2307 50.5761 61.7331 50.7896 62.1486C51.2826 63.1051 51.7658 64.0639 52.2993 64.9993C52.54 65.4223 52.9263 65.8473 52.9922 66.348C53.1124 67.2696 52.3498 67.9335 52.1403 68.7776C51.8686 69.8741 52.3984 71.1644 51.8512 72.1717C51.5833 72.6627 50.9993 72.9518 50.5161 73.1749C50.2695 73.2874 49.9434 73.3361 49.7688 73.0682C49.4604 72.5946 49.5825 71.8495 49.6273 71.312C49.6603 70.9007 49.6309 70.4755 49.7126 70.07C49.9085 69.1017 50.2812 68.075 50.3064 67.0834C50.3431 65.6999 49.109 63.3458 48.748 62.0574ZM59.8094 62.5793C59.8094 62.9869 59.8637 63.4486 59.724 63.8388C59.5009 64.4617 59.0934 64.9275 59.0972 65.6184C59.1049 66.4974 60.0189 67.916 60.9971 67.9432C61.4318 67.9548 62.0294 67.3959 62.274 67.1068C62.5864 66.7341 62.2624 66.1326 62.2042 65.7056C62.0063 64.2464 61.2396 63.373 59.8094 62.5793ZM55.6313 67.1378C55.1676 68.3488 55.1656 69.5575 54.9135 70.8133C54.8162 71.3004 54.5913 72.0669 55.0763 72.422C55.94 73.0567 56.6463 72.0766 57.1722 71.5488C57.6263 71.0928 58.0862 70.821 58.1715 70.1204C58.3056 69.0143 56.2135 67.9528 55.6313 67.1378ZM52.2606 60.5864C52.8136 61.0094 53.2193 61.5664 53.4172 62.2437C53.5782 62.7927 53.6364 63.5573 54.0965 63.9533C54.8979 64.6422 56.2409 64.2172 57.0054 63.7127C57.2984 63.5186 57.6981 63.3537 57.7311 62.9559C57.7601 62.5988 57.3274 62.1446 57.0518 61.9661C56.6172 61.6808 56.0505 61.7915 55.61 61.5411C55.3071 61.3685 55.1676 60.9881 54.9172 60.7513C54.5369 60.3924 52.7594 60.5787 52.2606 60.5864Z" fill="#14D597"/>
<path fill-rule="evenodd" clip-rule="evenodd" d="M42.8357 33.1191C45.4637 33.1191 47.5972 35.2525 47.5972 37.8805C47.5972 40.5084 42.8357 47.9408 42.8357 47.9408C42.8357 47.9408 38.0742 40.5084 38.0742 37.8805C38.0742 35.2525 40.2076 33.1191 42.8357 33.1191Z" fill="#F05475"/>
<path fill-rule="evenodd" clip-rule="evenodd" d="M44.1503 45.7896C43.7796 46.4221 42.8398 47.9434 42.8398 47.9434C42.8398 47.9434 38.0781 40.5107 38.0781 37.8826C38.0781 35.2546 40.2118 33.1211 42.8398 33.1211L42.8103 33.174C38.4585 35.523 39.7866 41.0239 44.1503 45.7896Z" fill="#F62E59"/>
<path d="M42.8498 39.6509C43.8224 39.6509 44.6108 38.8624 44.6108 37.8899C44.6108 36.9173 43.8224 36.1289 42.8498 36.1289C41.8773 36.1289 41.0889 36.9173 41.0889 37.8899C41.0889 38.8624 41.8773 39.6509 42.8498 39.6509Z" fill="white"/>
<path fill-rule="evenodd" clip-rule="evenodd" d="M25.1062 21.1681L25.5964 23.7806C25.5303 23.7659 25.4605 23.7476 25.3907 23.7255C24.9373 23.5842 24.4379 23.3235 23.9605 23.1233C23.463 22.9122 22.9783 22.7653 22.5652 22.7617C22.1577 22.758 21.7996 22.8736 21.4985 23.1288C21.1277 23.4428 20.8156 23.9936 20.5879 24.6159C20.3125 25.3687 20.1473 26.2224 20.0316 26.641C19.9031 27.1092 19.7324 27.4268 19.4937 27.6214C19.132 27.9151 18.6602 27.9115 18.1608 27.8839C17.3585 27.8362 16.4901 27.6709 15.686 27.7334C15.5519 27.7426 15.3757 27.7848 15.2105 27.9574C15.1793 27.9904 15.0544 28.1373 14.9791 28.431C14.8341 28.9855 14.4944 30.8912 14.6487 32.7051C14.7607 34.0361 15.1572 35.3048 15.9724 36.0704C17.2116 37.2362 18.998 37.216 20.7018 37.2399C21.941 37.2582 23.1509 37.2729 23.7623 38.492C24.3755 39.711 23.6301 40.8915 22.8388 42.006C22.255 42.8266 21.6032 43.6106 21.1699 44.3302C20.8101 44.9269 20.5953 45.4979 20.5861 46.0211C20.5512 47.8351 21.4545 48.9128 22.3082 49.9299C22.9122 50.6514 23.5126 51.3215 23.2372 52.4855C23.1711 52.7609 23.2372 52.961 23.3235 53.1097C23.4061 53.2492 23.5236 53.3594 23.687 53.4347C23.8045 53.4879 23.9716 53.5265 24.179 53.5099C24.3424 53.4953 24.7592 53.4016 24.8198 53.3869C25.4256 53.4622 26.0535 53.6476 26.4427 54.1397C26.6539 54.4059 26.6373 54.6482 26.5455 54.8814C26.4372 55.1586 26.2646 55.4267 26.1104 55.7002C25.7157 56.396 25.455 57.1157 25.7341 57.8978C26.0939 58.9076 26.0003 59.8458 25.8607 60.7821C25.6973 61.8947 25.4697 63.0072 25.6 64.2043C25.9782 67.6669 27.1826 69.1062 28.0363 72.1814C28.1263 72.5082 28.0969 73.0535 28.0969 73.6465C28.0987 74.3864 28.1281 75.1869 28.3154 75.8441C28.4751 76.4022 28.7487 76.8667 29.1562 77.1807C29.573 77.502 30.1366 77.6874 30.9206 77.5974C31.2455 77.5607 31.565 77.4249 31.8808 77.2486C32.0956 77.1293 32.3049 76.9751 32.5307 76.8961C32.6611 76.9879 32.885 77.1385 32.9823 77.1733C33.1935 77.2486 33.3826 77.2358 33.546 77.1788C33.7846 77.0944 34.0013 76.9255 34.1775 76.6593C34.3887 76.3362 34.5447 75.7982 34.6714 75.1924C34.7448 74.8472 34.8128 74.4745 34.8954 74.1257C35.1249 74.8527 35.4296 75.7523 35.828 76.2297C36.12 76.5785 36.4633 76.7658 36.8213 76.7951C37.2619 76.8319 37.8512 76.6317 38.4351 75.7615C38.6205 75.4806 38.7545 74.8949 38.7784 74.1073C38.8206 72.7138 38.6425 70.5328 38.771 68.7831C38.8151 68.1901 38.8886 67.6522 39.0354 67.2336C39.0409 67.8835 39.052 68.6087 39.063 68.7372C39.1548 69.7066 40.6382 74.469 41.9582 76.0204C42.5439 76.707 43.1846 76.8631 43.6932 76.6446C44.3082 76.3802 44.7691 75.8147 45.1105 75.1189C45.4887 74.3442 45.7146 73.3931 46.034 72.8332C46.3792 72.231 46.9997 71.7555 47.545 71.2322C48.2665 70.5419 48.8687 69.7837 48.9935 68.8088C49.1955 67.2244 48.731 65.673 48.2445 64.1235C47.8406 62.8347 47.4165 61.5477 47.5395 60.2295C47.6864 60.2203 47.9397 60.2056 48.1196 60.2129C48.6466 60.2331 49.1973 60.2405 49.5957 60.1046C50.8221 59.686 52.0743 59.2564 53.3888 59.3225C55.3459 59.4217 57.5196 59.6769 59.418 60.4186C61.208 61.1181 62.7521 62.2545 63.5635 64.1529C64.2373 65.7299 64.32 67.5071 64.9625 69.1026C65.3205 69.9912 65.8768 70.7512 66.3707 71.5407C66.7838 72.1961 67.1528 72.8754 67.2281 73.7254C67.3052 74.5938 66.916 75.3925 66.569 76.1929C66.1173 77.2358 65.7171 78.2767 65.875 79.371C65.9723 80.0539 66.367 80.9499 66.9362 81.9082C68.1516 83.9498 70.1509 86.3365 71.1386 87.4601C71.1643 87.4876 71.1882 87.5152 71.2102 87.5445C71.8583 88.3469 72.2567 89.3713 72.8185 90.2379C72.9378 90.4196 73.0498 90.8309 73.1692 91.031C73.283 91.2238 73.4225 91.3413 73.54 91.4055C73.7126 91.501 73.8907 91.5249 74.0651 91.4937C74.2359 91.4643 74.4415 91.3817 74.6141 91.1338C74.8491 90.7923 74.9409 90.3205 74.8435 89.7422C74.6985 88.8683 74.089 87.64 73.4739 86.4099C73.0058 85.4736 72.5376 84.5354 72.3614 83.7754C72.3246 83.6175 72.3008 83.4706 72.2989 83.3366C72.2989 83.2393 72.2971 83.153 72.3448 83.0887C72.7616 82.5269 73.1269 82.2203 73.507 82.1322C74.0908 81.9945 74.6306 82.3544 75.2309 82.7215C76.1838 83.2999 77.2156 83.992 78.4291 84.1572C78.8055 84.2068 79.0185 84.0636 79.1378 83.9553C79.3177 83.7919 79.4224 83.5697 79.3838 83.2705C79.3673 83.1493 79.3067 82.9621 79.1543 82.7583C78.945 82.4792 78.4402 82.0184 78.2419 81.7669C77.7407 81.1279 77.5222 80.3091 77.4616 79.5087C77.3312 77.8122 77.9224 76.2315 77.9041 74.5663C77.8875 72.8901 77.3 71.381 77.065 69.7378C76.7878 67.7935 76.9328 65.8052 76.4463 63.883C76.2095 62.9503 75.7303 62.0287 75.2952 61.1015C74.9225 60.3103 74.5755 59.519 74.5425 58.6983C74.48 57.1469 75.0216 55.7663 75.365 54.4151C75.666 53.2309 75.8276 52.0651 75.51 50.8552C75.1942 49.6545 74.4048 48.3895 72.7194 47.0309C72.3375 46.7225 71.6729 46.5113 70.933 46.4306C69.9563 46.3222 68.8566 46.4104 68.3241 46.5664C67.9257 46.6821 67.5732 47.1282 67.5843 47.8754C67.5916 48.2867 67.6852 48.8338 67.7366 49.2946C67.7513 49.4268 67.7587 49.6012 67.7605 49.6857C67.4723 50.0345 67.0922 50.3191 66.7471 50.6312C66.2403 51.0883 65.796 51.5932 65.5757 52.2597C65.2912 53.1189 65.4289 53.9359 65.5592 54.7217C65.6363 55.1806 65.7281 55.6231 65.5298 56.0546C65.4032 56.3318 65.1553 56.5906 64.7441 56.8587C64.263 57.1726 63.8959 57.2901 63.5801 57.1965C63.2551 57.0992 63.0219 56.811 62.7998 56.4842C62.3775 55.8618 62.0471 55.0686 61.6872 54.4334C61.645 54.3581 61.2282 53.6954 61.0961 53.5797C60.7876 53.308 60.4828 53.3741 60.3323 53.431C60.0844 53.5228 59.7173 53.8808 59.3758 54.3379C59.3097 54.4279 59.2197 54.5381 59.1316 54.6464C58.8562 53.3447 58.2834 50.1428 57.975 47.9562C57.8409 47.0015 57.7436 46.258 57.7767 46.0138C57.885 45.2354 58.5221 44.5377 58.9388 43.897C59.8513 42.4943 60.5985 42.3529 61.5275 42.2189C62.3353 42.1051 63.2459 41.9858 64.3971 41.3927C65.3499 40.9026 65.8126 40.3077 66.2165 39.7C66.5121 39.2539 66.7581 38.7912 67.3034 38.4112C67.8284 38.0458 68.5628 37.9632 69.2237 37.7906C69.8388 37.6291 70.4024 37.4106 70.8265 37.0379C71.9685 36.0318 72.0878 34.5318 72.0235 32.9842C71.996 32.3489 71.9464 31.7082 71.9813 31.1115C72.0052 30.6709 72.0731 30.2541 72.2696 29.9035C72.3981 29.8722 72.7836 29.7823 73.0866 29.7492C74.1147 29.6372 75.3907 29.573 75.8864 29.3325C76.193 29.1838 76.36 28.969 76.4371 28.7578C76.5308 28.5063 76.5381 28.196 76.2884 27.849C74.6398 25.5504 72.6055 24.8216 70.3969 24.6857C68.3755 24.5609 66.2 24.9684 64.0666 25.0107C62.8182 25.0364 61.6358 24.6729 60.448 24.3222C59.1169 23.9256 57.7822 23.5419 56.3759 23.564C55.6268 23.5768 54.9622 23.7714 54.3086 24.0119C53.7615 24.2139 53.2254 24.4489 52.6342 24.5829C50.4696 25.0713 44.5065 24.8785 42.2465 24.2635C40.9907 23.922 40.2214 23.4299 39.7918 22.78C39.1217 21.7666 39.2649 20.4465 39.454 19.0218C39.8414 16.1192 40.495 12.8494 37.9816 10.2387C37.6695 9.91376 37.2564 9.80361 36.8286 9.73384C36.232 9.63653 35.795 9.732 35.4645 9.91376C35.1267 10.0992 34.8844 10.3838 34.7136 10.7363C34.5355 11.1108 34.4456 11.5808 34.3721 12.0379C34.3281 12.3097 34.2161 12.7099 34.1775 12.8384C34.1096 12.8274 33.9793 12.7999 33.8746 12.7595C32.3416 12.1518 31.8734 11.1659 31.3796 10.1414C30.9665 9.28954 30.5405 8.40829 29.7327 7.60048C29.5969 7.46646 28.7725 6.85876 28.1465 6.48239C27.8068 6.2786 27.5057 6.14458 27.3497 6.11337C26.8815 6.01974 26.6227 6.26025 26.4978 6.46403C26.4482 6.54482 26.3638 6.75962 26.3656 7.08275C26.3675 7.36364 26.4134 7.852 26.4409 8.28896C26.1471 8.13107 25.8791 7.91075 25.6239 7.65923C25.0731 7.11763 24.5866 6.42548 24.0891 5.7315C22.9251 4.10669 21.6766 2.53329 19.8444 2.24138C18.9943 2.10735 18.5445 2.36622 18.3095 2.66181C18.0709 2.9629 17.9846 3.4329 18.1241 4.00939C18.2398 4.48673 18.5115 5.08708 18.7116 5.65439C18.7905 5.87653 18.8566 6.09134 18.8842 6.28595C18.8952 6.35755 18.9191 6.42181 18.8934 6.47321C18.7373 6.77982 18.3977 7.02583 18.058 7.28103C17.5733 7.64454 17.0703 8.00071 16.7453 8.38442C15.8494 9.44743 15.6144 10.7106 15.3059 12.0196C14.9443 13.5563 15.0269 14.4449 15.3628 15.0507C15.5942 15.4656 15.9485 15.7796 16.4461 16.0513C16.9344 16.3175 17.5898 16.5525 18.3995 16.905C18.8218 18.3995 19.4294 19.255 20.1051 19.7764C20.8486 20.3511 21.7005 20.5347 22.5891 20.632C23.43 20.7219 24.3149 20.7091 25.1062 21.1681ZM19.5782 3.6881L19.6149 3.69177C20.2868 3.79825 20.8321 4.16728 21.326 4.64278C21.8988 5.1954 22.3982 5.89489 22.8957 6.58704C23.4428 7.35079 23.9862 8.10903 24.5921 8.70571C25.2898 9.39235 26.07 9.8697 26.9972 9.99271C27.3093 10.0331 27.66 9.9413 27.8399 9.47314C27.8931 9.32993 27.9335 9.02333 27.9225 8.64329C27.9188 8.47989 27.9096 8.27243 27.8968 8.05946C28.2713 8.30915 28.6183 8.56435 28.6936 8.63962C29.5638 9.50802 29.8888 10.4902 30.3569 11.3825C30.9261 12.4731 31.655 13.459 33.3312 14.1236C34.1592 14.4522 34.6898 14.3145 35.0441 14.0556C35.3801 13.8115 35.6004 13.3837 35.7197 12.8458C35.8042 12.4565 35.8427 11.9939 35.9566 11.5955C35.9988 11.4468 36.0392 11.3017 36.1475 11.2173C36.2448 11.1402 36.3898 11.1512 36.5936 11.1824C36.6616 11.1952 36.7313 11.2044 36.7993 11.2191C36.8415 11.2283 36.8911 11.2246 36.9241 11.2577C38.167 12.5502 38.4222 14.0501 38.3727 15.5556C38.3359 16.6608 38.1395 17.7716 37.9981 18.8272C37.7576 20.6393 37.7154 22.3008 38.5673 23.5897C39.1511 24.4746 40.1535 25.2163 41.8609 25.6808C44.277 26.3381 50.6459 26.5382 52.9573 26.0149C53.6128 25.8681 54.2094 25.6147 54.8153 25.3907C55.3165 25.2071 55.8251 25.0419 56.3997 25.0327C57.6555 25.0125 58.8415 25.3779 60.0294 25.7285C61.3623 26.1251 62.6951 26.507 64.096 26.4794C65.7887 26.4464 67.5071 26.1783 69.1521 26.1361C71.1735 26.0829 73.0811 26.3803 74.6269 28.1171C74.436 28.1465 74.2285 28.174 74.0486 28.1905C73.283 28.2548 72.4477 28.3135 71.9336 28.4622C71.5132 28.5852 71.2378 28.7945 71.1001 29.002C70.4006 30.0668 70.4942 31.5631 70.5566 33.0447C70.6025 34.1353 70.6594 35.2277 69.8553 35.9345C69.512 36.2374 69.0016 36.3366 68.4912 36.4577C67.7642 36.6303 67.028 36.8139 66.4643 37.2068C65.8676 37.6217 65.517 38.0917 65.1957 38.5764C64.8469 39.1052 64.5531 39.6615 63.7251 40.0874C62.4859 40.7245 61.566 40.7006 60.7435 40.8585C59.7118 41.0586 58.7809 41.4478 57.7087 43.0965C57.18 43.9061 56.4566 44.8296 56.3226 45.8155C56.1959 46.7335 57.4554 53.9836 57.784 55.3551C57.9493 56.049 58.2742 56.3336 58.5294 56.4438C58.8782 56.598 59.3097 56.5484 59.7283 56.1922C59.9725 55.9848 60.2368 55.6415 60.4847 55.3073L60.4902 55.3018C60.8372 55.9426 61.1732 56.7008 61.5844 57.3085C62.0122 57.9401 62.5299 58.4137 63.1578 58.6028C63.7949 58.7938 64.577 58.7222 65.5464 58.0888C66.2881 57.6041 66.6828 57.0992 66.8958 56.598C67.1143 56.0858 67.1418 55.5625 67.0849 55.0264C67.0096 54.2976 66.7012 53.5338 66.9692 52.7205C67.1069 52.3037 67.4135 52.0081 67.7311 51.7217C68.1773 51.3178 68.6583 50.9396 69.0089 50.4751C69.1209 50.3264 69.2146 50.0914 69.2292 49.7775C69.2458 49.4452 69.1723 48.9476 69.1099 48.4666C69.0879 48.2922 69.075 48.0701 69.0677 47.9085C69.523 47.8406 70.1766 47.824 70.7714 47.8901C71.1882 47.936 71.5811 48.0003 71.7977 48.1729C73.1563 49.2708 73.8338 50.2603 74.089 51.2297C74.3423 52.1899 74.1808 53.1134 73.9421 54.0534C73.5639 55.5368 73.0058 57.057 73.0737 58.7589C73.1159 59.7687 73.507 60.7546 73.966 61.7276C74.3607 62.5666 74.8087 63.3983 75.0216 64.2428C75.4971 66.1155 75.3411 68.0524 75.6128 69.9453C75.8368 71.5223 76.4188 72.9727 76.4353 74.5828C76.4537 76.2792 75.8643 77.8912 75.9965 79.6206C76.0553 80.3807 76.2334 81.15 76.5693 81.8385C76.1305 81.5667 75.7138 81.2822 75.3044 81.0747C74.6177 80.7259 73.9458 80.5496 73.261 80.6818C72.6 80.8122 71.8932 81.2326 71.1662 82.213C70.832 82.6628 70.7457 83.3201 70.9312 84.1095C71.0321 84.5483 71.2176 85.0422 71.4434 85.5599C70.6227 84.5832 69.5762 83.2705 68.7317 82C68.0194 80.9297 67.4355 79.9034 67.3291 79.1635C67.2097 78.3355 67.5769 77.5644 67.9166 76.7786C68.3609 75.7505 68.7905 74.7077 68.6913 73.5951C68.594 72.499 68.1479 71.6086 67.6155 70.7604C67.1657 70.0426 66.6498 69.3596 66.3248 68.5536C65.6786 66.9472 65.5923 65.1608 64.9148 63.5764C63.9362 61.2906 62.1058 59.8917 59.9523 59.0508C57.907 58.2522 55.5699 57.9621 53.4622 57.8556C51.9623 57.7803 50.521 58.2375 49.1221 58.7148C48.9091 58.7883 48.6227 58.7626 48.34 58.7515C47.8846 58.7332 47.4293 58.7222 47.0952 58.8048C46.5371 58.9443 46.1809 59.2711 46.1038 59.866C45.8945 61.4559 46.3571 63.0128 46.8437 64.5623C47.2659 65.908 47.7121 67.2483 47.5358 68.6234C47.455 69.2604 47.0016 69.7194 46.5279 70.1711C45.8798 70.7935 45.1693 71.3883 44.7599 72.1043C44.4753 72.6019 44.2513 73.384 43.9521 74.1092C43.7685 74.5553 43.583 74.9996 43.2489 75.2199C43.1296 75.0914 42.8523 74.7848 42.6779 74.491C41.6296 72.7267 40.5978 69.3614 40.5262 68.5977C40.5023 68.3443 40.5537 66.2789 40.4638 65.8529C40.3555 65.3389 39.9681 65.2269 39.8157 65.2049C38.5746 65.0249 37.7888 65.8787 37.4712 67.4117C37.1059 69.1852 37.3335 71.9666 37.317 73.7658C37.3133 74.1092 37.3005 74.4121 37.2693 74.6581C37.2527 74.7738 37.2105 74.9317 37.205 74.9574C37.1224 75.0767 37.0141 75.1924 36.9406 75.264C36.9186 75.2364 36.8929 75.2052 36.8764 75.1777C36.7717 75.0161 36.6799 74.816 36.5955 74.603C36.3201 73.9127 36.1291 73.1067 35.9878 72.7304C35.9804 72.7157 35.7344 72.1319 35.65 72.0254C35.3617 71.6545 35.0019 71.7151 34.8421 71.7628C34.4401 71.8858 34.1059 72.1869 33.8636 72.6478C33.6286 73.0939 33.4744 73.7199 33.3459 74.3478C33.2596 74.7609 33.1861 75.1758 33.0852 75.51C33.0705 75.5008 33.0576 75.4953 33.0448 75.4898C32.8428 75.398 32.6409 75.3723 32.4573 75.4017C32.1268 75.4567 31.811 75.5999 31.5062 75.7725C31.2492 75.9157 31.0142 76.1085 30.7535 76.1379C30.4451 76.1746 30.2156 76.1434 30.054 76.0185C29.7584 75.7909 29.6813 75.3668 29.6244 74.917C29.4812 73.7732 29.6299 72.4293 29.4518 71.7867C28.622 68.7996 27.4286 67.408 27.0596 64.0445C26.9439 62.9779 27.1679 61.9883 27.3148 60.9987C27.4874 59.8311 27.5645 58.6653 27.1165 57.4058C27.0082 57.101 27.1661 56.833 27.3111 56.5613C27.4819 56.2418 27.6838 55.9279 27.8307 55.6084C28.1759 54.8594 28.2768 54.0883 27.5939 53.2272C26.9568 52.4212 25.9562 52.043 24.963 51.9237C24.9171 51.9182 24.8528 51.92 24.7812 51.9255C24.7922 50.7083 24.1625 49.8564 23.4318 48.9862C22.7837 48.2133 22.0291 47.4275 22.053 46.0468C22.0585 45.7476 22.2201 45.4318 22.4275 45.0885C22.8443 44.3963 23.474 43.6454 24.0358 42.856C25.1539 41.2826 25.9415 39.555 25.075 37.8329C24.1845 36.0557 22.5285 35.7986 20.7238 35.7711C19.9968 35.7619 19.2477 35.7803 18.5482 35.6756C17.9662 35.5894 17.4191 35.4149 16.9766 35C16.3983 34.4566 16.1909 33.5276 16.1119 32.5802C16.0018 31.2749 16.178 29.9126 16.3157 29.1874C17.1253 29.2131 17.9736 29.3931 18.7208 29.3545C19.3321 29.3233 19.8884 29.1672 20.3603 28.8074C20.8174 28.4586 21.2085 27.9115 21.449 27.0265C21.5573 26.6336 21.7097 25.8295 21.9686 25.119C22.0971 24.7647 22.2366 24.4287 22.4477 24.2488C22.4863 24.2157 22.5377 24.2286 22.5909 24.2322C22.7066 24.2396 22.8314 24.2726 22.9618 24.313C23.4189 24.4599 23.922 24.7224 24.4012 24.9226C24.9005 25.1318 25.3871 25.2751 25.802 25.2714C26.2077 25.2695 26.5657 25.1465 26.8632 24.8803C26.9458 24.8069 27.0468 24.6876 27.1 24.4929C27.1275 24.3901 27.1496 24.1643 27.1257 23.8577C27.0651 23.0646 26.7714 21.4343 26.5217 20.7219C26.3877 20.3382 26.1875 20.1197 26.0737 20.0426C25.0327 19.345 23.8687 19.2936 22.7488 19.1706C22.1283 19.1045 21.5224 19.0145 21.0028 18.6143C20.4649 18.1993 20.0445 17.4686 19.7324 16.2018C19.7054 16.0944 19.6546 15.9944 19.5837 15.9092C19.5128 15.824 19.4237 15.7559 19.323 15.7098C18.5482 15.3555 17.9019 15.1242 17.3971 14.8873C17.0556 14.7258 16.7875 14.5899 16.6462 14.3365C16.4259 13.94 16.4993 13.3617 16.7361 12.3556C16.9913 11.276 17.1272 10.2093 17.8671 9.3336C18.192 8.94989 18.7483 8.61392 19.2146 8.24306C19.6406 7.90341 20.0023 7.53439 20.2042 7.13232C20.3566 6.83122 20.4007 6.44935 20.3291 6.0179C20.2593 5.58646 20.072 5.08341 19.8811 4.59505C19.8389 4.48673 19.7966 4.38025 19.7562 4.2756C19.6865 4.09567 19.6222 3.86067 19.5782 3.6881ZM48.3546 61.6799C48.2565 61.7714 48.1855 61.8881 48.1492 62.0173C48.1129 62.1465 48.1129 62.2832 48.149 62.4124C48.3693 63.1982 48.9054 64.3713 49.2928 65.4876C49.515 66.1265 49.6949 66.7415 49.682 67.2226C49.6563 68.1736 49.2891 69.1558 49.1019 70.0848C49.0137 70.5181 49.0395 70.9734 49.0027 71.4122C48.9734 71.7683 48.9183 72.209 48.9495 72.6165C48.977 72.9911 49.0743 73.3417 49.2634 73.6318C49.6582 74.2395 50.376 74.2597 50.9323 74.0027C51.551 73.7181 52.2652 73.3105 52.6067 72.6845C52.9445 72.0621 52.9794 71.3553 52.9427 70.6319C52.9151 70.1178 52.8435 69.5946 52.9629 69.1154C53.0546 68.7482 53.2768 68.4269 53.4512 68.091C53.7229 67.5714 53.9102 67.0316 53.8294 66.4111C53.7523 65.8181 53.3319 65.2948 53.0473 64.7954C52.5186 63.8665 52.0394 62.9173 51.551 61.9681C51.2352 61.3567 50.8166 60.6995 50.0621 60.582C49.8197 60.5453 49.4893 60.6187 49.1716 60.861C48.8632 61.0942 48.5125 61.5312 48.3546 61.6799ZM56.341 66.8701C56.1831 66.6497 55.9187 66.5341 55.6507 66.569C55.5189 66.585 55.394 66.6368 55.2895 66.7187C55.185 66.8005 55.1048 66.9094 55.0577 67.0335C54.5785 68.2856 54.5656 69.5322 54.3049 70.8283C54.2333 71.179 54.1232 71.6545 54.1599 72.0694C54.2003 72.5137 54.3784 72.9029 54.7529 73.1765C55.4946 73.7199 56.1666 73.5914 56.7669 73.1949C57.1598 72.936 57.5105 72.5229 57.8042 72.2273C58.3825 71.6472 58.9039 71.2616 59.0123 70.3694C59.0894 69.7323 58.7369 69.064 58.131 68.4655C57.5325 67.8725 56.6733 67.3364 56.341 66.8701ZM49.9666 62.1388C49.9795 62.159 49.9923 62.1811 50.0052 62.2013C50.097 62.3408 50.1704 62.4987 50.2457 62.6419C50.7432 63.6076 51.2316 64.577 51.7713 65.5225C51.8943 65.7391 52.0559 65.9576 52.1936 66.1853C52.2744 66.3174 52.3533 66.4515 52.3735 66.602C52.4249 66.9931 52.2101 67.3052 52.032 67.6301C51.8319 67.9937 51.6373 68.3627 51.5382 68.7611C51.3839 69.3779 51.4409 70.0481 51.4757 70.7072C51.4978 71.1551 51.5253 71.5976 51.316 71.9813C51.1416 72.3044 50.7542 72.4733 50.4219 72.622C50.4109 72.5413 50.4091 72.455 50.4091 72.3687C50.4054 72.0786 50.4458 71.783 50.4678 71.5333C50.499 71.1515 50.4641 70.7549 50.5412 70.3767C50.745 69.3669 51.1232 68.2947 51.1508 67.2629C51.1673 66.6369 50.969 65.8346 50.6808 65.0066C50.365 64.0978 49.9446 63.1504 49.6912 62.4197L49.9666 62.1388ZM55.636 72.0015C55.6305 71.985 55.6231 71.9464 55.6213 71.9226C55.6176 71.8601 55.6213 71.794 55.6286 71.728C55.6525 71.5113 55.7094 71.2947 55.7443 71.1184C55.9132 70.2849 55.9609 69.4697 56.1207 68.6619C56.3428 68.8474 56.576 69.0383 56.7981 69.2329C57.0405 69.444 57.2663 69.6589 57.4223 69.8828C57.4958 69.9875 57.5674 70.0829 57.5545 70.1913C57.527 70.4226 57.415 70.564 57.2828 70.698C57.1249 70.8596 56.9432 71.0101 56.7632 71.19C56.5668 71.3883 56.3446 71.6563 56.095 71.8656C55.9573 71.9813 55.8122 72.119 55.636 72.0015ZM60.2772 62.0948C60.0496 61.9699 59.7723 61.9736 59.5484 62.1058C59.4384 62.1706 59.3472 62.2629 59.2838 62.3736C59.2204 62.4844 59.1869 62.6097 59.1867 62.7374C59.1867 63.0642 59.2583 63.435 59.1463 63.749C59.0416 64.039 58.8911 64.2906 58.7718 64.5531C58.5973 64.9295 58.4725 65.3205 58.4762 65.7832C58.4798 66.457 58.8801 67.3933 59.4896 68.0322C59.9504 68.5151 60.5214 68.8198 61.0905 68.8363C61.3311 68.8419 61.6046 68.7739 61.8727 68.6326C62.3004 68.4086 62.7355 67.9937 62.9503 67.7385C63.2074 67.4337 63.2882 67.061 63.2459 66.6571C63.2129 66.356 63.0807 66.0274 63.0458 65.7648C62.8145 64.0611 61.9479 63.0201 60.2772 62.0948ZM61.7827 66.8425C61.6854 66.9508 61.5403 67.0904 61.3825 67.2079C61.298 67.2703 61.1419 67.3492 61.1071 67.3658C60.9014 67.3492 60.7197 67.1932 60.5526 67.0188C60.2093 66.6589 59.9468 66.1522 59.9449 65.7722C59.9431 65.4821 60.0606 65.2526 60.1781 65.0176C60.2993 64.7697 60.4296 64.5201 60.5287 64.2447C60.5489 64.1878 60.5655 64.129 60.5802 64.0703C61.1456 64.566 61.4798 65.1516 61.5899 65.9631C61.6175 66.1577 61.6872 66.3854 61.746 66.6149C61.7625 66.681 61.7772 66.7893 61.7827 66.8425ZM52.3588 60.0092C52.2066 60.0117 52.059 60.0615 51.9363 60.1516C51.8136 60.2417 51.722 60.3677 51.674 60.5122C51.5767 60.8096 51.6759 61.1346 51.9237 61.3255C52.3515 61.6542 52.6691 62.0819 52.8233 62.6088C52.9243 62.9522 52.9886 63.3744 53.1262 63.749C53.2584 64.1088 53.4494 64.4283 53.7266 64.6669C54.1911 65.0672 54.7731 65.2251 55.3826 65.203C56.1519 65.1773 56.9652 64.8505 57.5215 64.4833C57.7381 64.3401 57.9933 64.2006 58.1787 64.0133C58.3991 63.7912 58.5459 63.5213 58.5735 63.1725C58.5973 62.8879 58.5055 62.5648 58.3128 62.2655C58.1108 61.9479 57.7969 61.6597 57.5655 61.5073C57.3067 61.3402 57.0203 61.2539 56.7247 61.2007C56.5062 61.1603 56.2767 61.1695 56.0839 61.0593C55.9958 61.0097 55.9554 60.9051 55.8948 60.8188C55.7847 60.6591 55.669 60.503 55.5332 60.3745C55.3386 60.1928 54.953 60.0312 54.4536 59.9816C53.7395 59.9119 52.7223 60.0036 52.3588 60.0092ZM54.5711 61.4926C54.6703 61.6028 54.7437 61.7404 54.8355 61.8598C54.9824 62.0526 55.1513 62.2178 55.3569 62.3353C55.6084 62.4785 55.8875 62.5501 56.1739 62.5978C56.374 62.6309 56.5888 62.6235 56.7632 62.7374C56.8403 62.7888 56.9707 62.9448 57.0496 63.044C57.0331 63.0568 57.0166 63.0678 57.0037 63.077C56.9046 63.1394 56.8036 63.1963 56.7118 63.2569C56.4071 63.4589 55.9866 63.6462 55.5607 63.7141C55.2468 63.7637 54.9236 63.7581 54.6868 63.5544C54.5601 63.446 54.5087 63.2735 54.4591 63.1045C54.3673 62.7961 54.3123 62.4675 54.2315 62.1939C54.1525 61.9204 54.0442 61.6633 53.9139 61.4228L54.0461 61.4265C54.2315 61.4338 54.4885 61.4779 54.5711 61.4926ZM42.8395 32.3875C39.8065 32.3875 37.3427 34.8495 37.3427 37.8824C37.3427 38.7417 37.7852 40.0782 38.4369 41.5176C39.8561 44.6479 42.2208 48.3399 42.2208 48.3399C42.2874 48.4435 42.3789 48.5288 42.487 48.5878C42.5951 48.6468 42.7163 48.6778 42.8395 48.6778C42.9627 48.6778 43.0839 48.6468 43.192 48.5878C43.3001 48.5288 43.3916 48.4435 43.4582 48.3399C43.4582 48.3399 45.8229 44.6479 47.2421 41.5176C47.8938 40.0782 48.3363 38.7417 48.3363 37.8824C48.3363 34.8495 45.8725 32.3875 42.8395 32.3875ZM42.8395 33.8562C45.0628 33.8562 46.8675 35.6609 46.8675 37.8824C46.8675 38.6021 46.4508 39.7055 45.9037 40.9117C44.971 42.9661 43.6198 45.2721 42.8395 46.5517C42.0592 45.2721 40.708 42.9661 39.7753 40.9117C39.2282 39.7055 38.8114 38.6021 38.8114 37.8824C38.8114 35.6609 40.6162 33.8562 42.8395 33.8562ZM42.8395 35.3874C41.4625 35.3874 40.3444 36.5055 40.3444 37.8824C40.3444 39.2594 41.4625 40.3775 42.8395 40.3775C44.2164 40.3775 45.3345 39.2594 45.3345 37.8824C45.3345 36.5055 44.2164 35.3874 42.8395 35.3874ZM42.8395 36.8561C43.1115 36.8566 43.3723 36.9649 43.5646 37.1573C43.757 37.3496 43.8653 37.6104 43.8658 37.8824C43.8658 38.4497 43.405 38.9087 42.8395 38.9087C42.274 38.9087 41.8132 38.4497 41.8132 37.8824C41.8137 37.6104 41.922 37.3496 42.1143 37.1573C42.3067 36.9649 42.5674 36.8566 42.8395 36.8561Z" fill="black"/>
</svg>
