<svg width="94" height="94" viewBox="0 0 94 94" fill="none" xmlns="http://www.w3.org/2000/svg">
<g clip-path="url(#clip0_102_4862)">
<path d="M50.8946 29.0117L60.4466 32.1554C63.4895 33.1569 65.5459 35.9986 65.5459 39.2019V49.5977H28.4541V39.2019C28.4541 35.9984 30.5105 33.1569 33.5534 32.1554L43.1054 29.0117H50.8946Z" fill="#9BD069"/>
<path d="M32.5341 47.186V41.2513C32.5371 38.7428 31.7875 36.291 30.3824 34.2129C29.1413 35.5778 28.4537 37.3565 28.4541 39.2013V49.5971H32.3004C32.4554 48.8028 32.5337 47.9953 32.5341 47.186ZM61.4659 47.186V41.2513C61.4629 38.7428 62.2125 36.291 63.6176 34.2129C64.8587 35.5778 65.5463 37.3565 65.5459 39.2013V49.5971H61.6996C61.5446 48.8028 61.4663 47.9953 61.4659 47.186ZM47 49.5969H59.6112V48.6696C59.6112 41.7158 53.9538 36.0584 47 36.0584C40.0462 36.0584 34.3888 41.7158 34.3888 48.6696V49.5969H47Z" fill="#7DBE3B"/>
<path d="M47 32.9022C44.8491 32.9022 43.1055 31.1584 43.1055 29.0076V24.1855H50.8948V29.0075C50.8946 31.1584 49.151 32.9022 47 32.9022Z" fill="#AA7A63"/>
<path d="M55.9028 10.279C55.9028 5.36259 51.9172 1.37695 47.0007 1.37695C42.0843 1.37695 38.0986 5.36259 38.0986 10.279V16.2137C38.0986 21.1302 42.0843 25.1158 47.0007 25.1158C51.9172 25.1158 55.9028 21.1302 55.9028 16.2137V10.279Z" fill="#B78B7A"/>
<path d="M47.0001 1.37695C46.2978 1.37695 45.6154 1.46086 44.96 1.61452C48.8927 2.53708 51.822 6.06484 51.822 10.2789V16.2135C51.822 20.4277 48.8927 23.9553 44.96 24.8779C45.6286 25.0353 46.3131 25.115 47.0001 25.1154C51.9165 25.1154 55.9022 21.1298 55.9022 16.2133V10.279C55.9022 5.36259 51.9165 1.37695 47.0001 1.37695Z" fill="#AA7A63"/>
<path d="M77.9719 59.9805L87.5239 63.1241C90.5668 64.1257 92.6232 66.9673 92.6232 70.1707V80.5665H55.5312V70.1707C55.5312 66.9671 57.5877 64.1257 60.6306 63.1241L70.1826 59.9805H77.9719Z" fill="#CBE2FF"/>
<path d="M69.2553 77.5906C69.2584 75.2471 68.5203 72.9627 67.1464 71.0642C65.7725 69.1656 63.8334 67.7503 61.6064 67.0207L57.1461 65.5529C56.1003 66.8654 55.5309 68.494 55.5313 70.1723V80.5681H69.2553V77.5906ZM87.5238 63.1256L87.0593 62.9727V80.5679H92.6231V70.1721C92.6231 66.9686 90.5666 64.1269 87.5238 63.1256Z" fill="#BED8FB"/>
<path d="M74.0772 63.8766C71.9262 63.8766 70.1826 62.1329 70.1826 59.9821V55.1602H77.972V59.9821C77.9718 62.1329 76.2282 63.8766 74.0772 63.8766Z" fill="#F1B986"/>
<path d="M82.979 41.2497C82.979 36.3333 78.9934 32.3477 74.0769 32.3477C69.1604 32.3477 65.1748 36.3333 65.1748 41.2497V47.1844C65.1748 52.1009 69.1604 56.0865 74.0769 56.0865C78.9934 56.0865 82.979 52.1009 82.979 47.1844V41.2497Z" fill="#F1D0A5"/>
<path d="M74.0772 32.3477C73.375 32.3477 72.6925 32.4316 72.0371 32.5852C75.9699 33.5078 78.8991 37.0355 78.8991 41.2496V47.1842C78.8991 51.3984 75.9699 54.926 72.0371 55.8486C72.7057 56.006 73.3903 56.0857 74.0772 56.0861C78.9937 56.0861 82.9793 52.1005 82.9793 47.184V41.2494C82.9793 36.3333 78.9937 32.3477 74.0772 32.3477Z" fill="#F1B986"/>
<path d="M23.8176 59.9805L33.3696 63.1241C36.4125 64.1257 38.469 66.9673 38.469 70.1707V80.5665H1.37695V70.1707C1.37695 66.9671 3.4332 64.1257 6.47627 63.1241L16.0283 59.9805H23.8176Z" fill="#FFE07D"/>
<path d="M33.3696 63.1254L32.9053 62.9727V66.3142C32.9053 66.4708 32.8559 66.6233 32.7641 66.7502C32.6723 66.877 32.5429 66.9716 32.3942 67.0205C27.8297 68.5227 24.7451 72.7852 24.7451 77.5906V80.5679H38.4691V70.1721C38.4691 66.9686 36.4127 64.1269 33.3696 63.1254Z" fill="#FFD064"/>
<path d="M19.9229 63.8766C17.7719 63.8766 16.0283 62.1329 16.0283 59.9821V55.1602H23.8177V59.9821C23.8177 62.1329 22.0739 63.8766 19.9229 63.8766Z" fill="#F1B986"/>
<path d="M28.8247 41.2497C28.8247 36.3333 24.8391 32.3477 19.9226 32.3477C15.0061 32.3477 11.0205 36.3333 11.0205 41.2497V47.1844C11.0205 52.1009 15.0061 56.0865 19.9226 56.0865C24.8391 56.0865 28.8247 52.1009 28.8247 47.1844V41.2497Z" fill="#F1D0A5"/>
<path d="M19.9229 32.3477C19.2207 32.3477 18.5382 32.4316 17.8828 32.5852C21.8156 33.5078 24.7448 37.0355 24.7448 41.2496V47.1842C24.7448 51.3984 21.8156 54.926 17.8828 55.8486C18.5514 56.006 19.236 56.0857 19.9229 56.0861C24.8394 56.0861 28.825 52.1005 28.825 47.184V41.2494C28.825 36.3333 24.8394 32.3477 19.9229 32.3477Z" fill="#F1B986"/>
<path d="M50.8946 67.4004L60.4466 70.5441C63.4895 71.5456 65.5459 74.3872 65.5459 77.5906V92.6229H28.4541V77.5906C28.4541 74.3871 30.5105 71.5456 33.5534 70.5441L43.1054 67.4004H50.8946Z" fill="#E28086"/>
<path d="M60.4469 70.5436L59.9824 70.3906V92.6224H65.5462V77.5901C65.546 74.3867 63.4898 71.5451 60.4469 70.5436Z" fill="#DD636E"/>
<path d="M47 71.2966C44.8491 71.2966 43.1055 69.5528 43.1055 67.402V62.5801H50.8948V67.402C50.8946 69.553 49.151 71.2966 47 71.2966Z" fill="#AA7A63"/>
<path d="M55.9028 48.6697C55.9028 43.7532 51.9172 39.7676 47.0007 39.7676C42.0843 39.7676 38.0986 43.7532 38.0986 48.6697V54.6043C38.0986 59.5208 42.0843 63.5064 47.0007 63.5064C51.9172 63.5064 55.9028 59.5208 55.9028 54.6043V48.6697Z" fill="#B78B7A"/>
<path d="M47.0001 39.7676C46.2978 39.7676 45.6154 39.8515 44.96 40.0051C48.8927 40.9277 51.822 44.4555 51.822 48.6695V54.6042C51.822 58.8184 48.8927 62.3459 44.96 63.2685C45.6286 63.4259 46.3131 63.5057 47.0001 63.5061C51.9165 63.5061 55.9022 59.5204 55.9022 54.604V48.6693C55.9022 43.753 51.9165 39.7676 47.0001 39.7676Z" fill="#AA7A63"/>
<path d="M92.6231 73.6604C92.9883 73.6604 93.3385 73.5153 93.5967 73.2571C93.8549 72.9989 94 72.6486 94 72.2834V70.1732C94.0025 68.3208 93.4191 66.5151 92.3334 65.0143C91.2476 63.5135 89.7151 62.3944 87.955 61.8171L79.3487 58.9854V56.0056C82.3455 54.2077 84.356 50.9274 84.356 47.1856V41.2509C84.356 35.583 79.7449 30.9719 74.077 30.9719C70.7385 30.9719 67.7678 32.5728 65.8889 35.046C64.8488 33.0942 63.085 31.5721 60.8769 30.8469L52.2715 28.0137V25.0339C55.2683 23.236 57.2789 19.9557 57.2789 16.2139V10.279C57.2791 4.61114 52.6679 0 47 0C41.3321 0 36.721 4.61114 36.721 10.279V16.2137C36.721 19.9555 38.7315 23.2358 41.7283 25.0337V28.0135L33.1238 30.8465C30.9152 31.5721 29.1512 33.0942 28.1112 35.046C26.2323 32.5727 23.2615 30.9719 19.9231 30.9719C14.2551 30.9719 9.644 35.583 9.644 41.2509V47.1856C9.644 50.9274 11.6545 54.2077 14.6513 56.0056V58.9854L6.04428 61.8173C4.28431 62.3947 2.75197 63.5138 1.66637 65.0145C0.580777 66.5153 -0.00247819 68.3209 7.91475e-06 70.1732V72.2834C7.91475e-06 73.0439 0.616332 73.6604 1.37696 73.6604C2.13759 73.6604 2.75391 73.0439 2.75391 72.2834V70.1732C2.75219 68.9008 3.15279 67.6605 3.89844 66.6295C4.64408 65.5986 5.6966 64.8297 6.90552 64.433L14.9673 61.7802C15.7041 63.8043 17.6472 65.2536 19.9229 65.2536C22.1983 65.2536 24.1415 63.8042 24.8783 61.7802L32.9389 64.4326C33.7991 64.7146 34.5846 65.1868 35.2371 65.8142C35.8897 66.4415 36.3924 67.2078 36.7081 68.0562L33.1229 69.2361C31.3626 69.8128 29.8298 70.9314 28.7439 72.432C27.6579 73.9326 27.0745 75.7383 27.077 77.5906V79.191H10.5432V75.7458C10.5432 74.9854 9.92692 74.3689 9.16629 74.3689C8.40566 74.3689 7.78934 74.9854 7.78934 75.7458V79.191H2.75391V78.7155C2.75391 77.955 2.13759 77.3385 1.37696 77.3385C0.616332 77.3385 7.91475e-06 77.955 7.91475e-06 78.7155V80.5679C7.91475e-06 80.9331 0.145079 81.2833 0.403308 81.5416C0.661537 81.7998 1.01177 81.9449 1.37696 81.9449H27.077V92.6227C27.077 92.9879 27.222 93.3381 27.4803 93.5963C27.7385 93.8546 28.0887 93.9996 28.4539 93.9996H65.5459C65.9111 93.9996 66.2613 93.8546 66.5196 93.5963C66.7778 93.3381 66.9229 92.9879 66.9229 92.6227V90.7834C66.9229 90.023 66.3065 89.4065 65.5459 89.4065C64.7853 89.4065 64.169 90.023 64.169 90.7834V91.2461H59.1337V83.1647C59.1337 82.4042 58.5174 81.7877 57.7568 81.7877C56.9961 81.7877 56.3798 82.4042 56.3798 83.1647V91.2461H37.6202V83.1647C37.6202 82.4042 37.0039 81.7877 36.2433 81.7877C35.4826 81.7877 34.8663 82.4042 34.8663 83.1647V91.2461H29.8309V77.5909C29.8291 76.3186 30.2299 75.0783 30.9758 74.0475C31.7217 73.0168 32.7746 72.2484 33.9838 71.8523L42.0446 69.1994C42.7816 71.2232 44.7245 72.6725 47 72.6725C49.2755 72.6725 51.2184 71.2234 51.9554 69.1994L60.0163 71.8523C61.2254 72.2484 62.2782 73.0168 63.0242 74.0476C63.7701 75.0783 64.1709 76.3186 64.1691 77.5909V84.3549C64.1691 85.1153 64.7855 85.7319 65.5461 85.7319C66.3067 85.7319 66.923 85.1153 66.923 84.3549V81.9452H92.6231C92.9883 81.9452 93.3385 81.8002 93.5967 81.5419C93.8549 81.2837 94 80.9335 94 80.5683V78.7158C94 77.9554 93.3837 77.3389 92.6231 77.3389C91.8624 77.3389 91.2461 77.9554 91.2461 78.7158V79.1913H86.2107V75.7462C86.2107 74.9857 85.5944 74.3692 84.8337 74.3692C84.0731 74.3692 83.4568 74.9857 83.4568 75.7462V79.1913H66.9229V77.5909C66.9254 75.7386 66.342 73.933 65.256 72.4324C64.17 70.9317 62.6372 69.8131 60.8769 69.2365L57.2917 68.0565C57.6074 67.2083 58.1101 66.4421 58.7625 65.8148C59.4149 65.1875 60.2002 64.7153 61.0602 64.4331L69.1216 61.7806C69.8584 63.8045 71.8015 65.254 74.077 65.254C76.3526 65.254 78.2958 63.8045 79.0325 61.7806L87.0936 64.4331C88.3027 64.8296 89.3555 65.5984 90.1013 66.6293C90.8471 67.6603 91.2478 68.9007 91.2461 70.1732V72.2834C91.2461 72.6486 91.3912 72.9989 91.6494 73.2571C91.9076 73.5153 92.2579 73.6604 92.6231 73.6604ZM74.077 33.7256C78.2264 33.7256 81.6021 37.1014 81.6021 41.2508V47.1854C81.6021 51.3348 78.2262 54.7106 74.077 54.7106C69.9277 54.7106 66.552 51.3348 66.552 47.1854V41.2508C66.552 37.1014 69.9277 33.7256 74.077 33.7256ZM39.4749 16.2137V10.279C39.4749 6.12964 42.8506 2.75391 47 2.75391C51.1494 2.75391 54.5252 6.12964 54.5252 10.279V16.2137C54.5252 20.3631 51.1492 23.7389 47 23.7389C42.8508 23.7389 39.4749 20.3631 39.4749 16.2137ZM47 26.4928C47.8684 26.4928 48.7117 26.3835 49.5178 26.1797V28.9735C49.5174 28.9865 49.5176 28.9994 49.5178 29.0122C49.5167 30.3996 48.3878 31.528 47.0002 31.528C45.6126 31.528 44.4835 30.3996 44.4826 29.0122V26.1797C45.3055 26.3878 46.1511 26.4929 47 26.4928ZM33.9841 33.4625L42.0444 30.8087C42.7812 32.8326 44.7244 34.2819 46.9998 34.2819C49.2753 34.2819 51.2184 32.8326 51.9552 30.8087L60.0164 33.4627C62.3182 34.2188 63.9143 36.2344 64.1374 38.6307C63.9117 39.4857 63.7975 40.3664 63.7977 41.2508V47.1854C63.7977 47.5343 63.8155 47.8791 63.8497 48.2191H57.2673C57.0308 42.7594 52.5166 38.39 46.9996 38.39C41.4827 38.39 36.9684 42.7594 36.732 48.2191H30.1496C30.1837 47.8791 30.2015 47.5343 30.2015 47.1854V41.2508C30.2015 40.3455 30.0828 39.4677 29.8619 38.6307C30.0853 36.2346 31.6817 34.2189 33.9841 33.4625ZM47 62.1289C42.8506 62.1289 39.4749 58.7531 39.4749 54.6037V48.6691C39.4749 44.5196 42.8508 41.1439 47 41.1439C51.1492 41.1439 54.5252 44.5196 54.5252 48.6691V54.6037C54.5252 58.7531 51.1494 62.1289 47 62.1289ZM12.3977 47.1854V41.2508C12.3977 37.1014 15.7737 33.7256 19.9229 33.7256C24.0721 33.7256 27.4478 37.1014 27.4478 41.2508V47.1854C27.4478 51.3348 24.0721 54.7106 19.9229 54.7106C15.7737 54.7106 12.3977 51.3348 12.3977 47.1854ZM22.4405 59.9821C22.4405 61.3704 21.3112 62.4997 19.9229 62.4997C18.5345 62.4997 17.4051 61.3703 17.4051 59.9821V57.1514C18.2281 57.3596 19.0739 57.4647 19.9229 57.4645C20.7913 57.4645 21.6345 57.3552 22.4405 57.1514V59.9821ZM33.8004 61.8171L25.1946 58.9854V56.0055C27.1203 54.8501 28.6366 53.0819 29.4758 50.973H36.721V54.6037C36.721 58.3455 38.7315 61.6258 41.7283 63.4237V66.404L39.3234 67.1955C38.8734 65.9375 38.1418 64.799 37.1846 63.8668C36.2274 62.9347 35.0699 62.2336 33.8004 61.8171ZM47 69.9184C45.6117 69.9184 44.4822 68.7889 44.4822 67.4006V64.5699C45.2882 64.7737 46.1314 64.8829 47 64.8829C47.8686 64.8829 48.7117 64.7737 49.5178 64.5699V67.4006C49.5178 68.7889 48.3883 69.9184 47 69.9184ZM60.1991 61.8173C58.9297 62.2338 57.7723 62.9349 56.8152 63.8671C55.8581 64.7992 55.1267 65.9377 54.6768 67.1957L52.2717 66.4042V63.4239C55.2685 61.626 57.2791 58.3457 57.2791 54.6039V50.973H64.5242C65.3623 53.0737 66.8662 54.8415 68.8054 56.0055V58.9854L60.1991 61.8173ZM74.077 62.4999C72.6886 62.4999 71.5593 61.3704 71.5593 59.9823V57.1516C72.3653 57.3554 73.2086 57.4647 74.077 57.4647C74.9454 57.4647 75.7886 57.3554 76.5948 57.1516V59.9823C76.5948 61.3704 75.4653 62.4999 74.077 62.4999Z" fill="black"/>
</g>
<defs>
<clipPath id="clip0_102_4862">
<rect width="94" height="94" fill="white"/>
</clipPath>
</defs>
</svg>
