<svg width="94" height="94" viewBox="0 0 94 94" fill="none" xmlns="http://www.w3.org/2000/svg">
<g clip-path="url(#clip0_102_4888)">
<path d="M76.375 58.75V91.1629C76.375 92.7297 75.1049 94 73.5379 94H41.125L76.375 58.75Z" fill="#C8EFFE"/>
<path d="M76.375 2.83707C76.375 1.2701 75.1049 0 73.5379 0H8.71207C7.1451 0 5.875 1.2701 5.875 2.83707V91.1631C5.875 92.7299 7.1451 94 8.71207 94H46.0198C52.2901 94 56.8346 90.0404 61.2684 85.6066L67.9818 78.8932C72.4156 74.4594 76.3752 69.9149 76.3752 63.6446V2.83707H76.375Z" fill="#F2FBFF"/>
<path d="M11.75 4.49805C11.3848 4.49805 11.0346 4.64312 10.7763 4.90135C10.5181 5.15958 10.373 5.50981 10.373 5.875V88.125C10.373 88.8856 10.9894 89.502 11.75 89.502C12.5106 89.502 13.127 88.8856 13.127 88.125V5.875C13.127 5.50981 12.9819 5.15958 12.7237 4.90135C12.4654 4.64312 12.1152 4.49805 11.75 4.49805Z" fill="#DFF6FD"/>
<path d="M11.75 50.2098C11.75 48.9041 10.6916 47.8457 9.38586 47.8457H5.875V53.7207H9.38586C10.6916 53.7207 11.75 52.6623 11.75 51.3566V50.2098ZM11.75 68.9814V67.8348C11.75 66.5291 10.6916 65.4707 9.38586 65.4707H5.875V71.3457H9.38586C10.6916 71.3457 11.75 70.2871 11.75 68.9814ZM11.75 32.5848C11.75 31.2791 10.6916 30.2207 9.38586 30.2207H5.875V36.0957H9.38586C10.6916 36.0957 11.75 35.0373 11.75 33.7316V32.5848ZM9.38586 12.5957H5.875V18.4707H9.38586C10.6916 18.4707 11.75 17.4123 11.75 16.1066V14.96C11.75 13.6541 10.6916 12.5957 9.38586 12.5957ZM11.75 86.6064V85.4598C11.75 84.1541 10.6916 83.0957 9.38586 83.0957H5.875V88.9707H9.38586C10.6916 88.9707 11.75 87.9121 11.75 86.6064Z" fill="#DFF6FD"/>
<path d="M73.5379 0H68.8095V57.3611C68.8095 64.1508 63.3053 69.6549 56.5157 69.6549C51.949 69.6549 48.247 73.3569 48.247 77.9236C48.247 84.7133 42.7428 90.2174 35.9532 90.2174H5.875V91.1631C5.875 92.7299 7.14528 94 8.71207 94H46.0198C52.2901 94 56.8346 90.0404 61.2684 85.6066L67.9818 78.8932C72.4154 74.4596 76.375 69.9149 76.375 63.6448V2.83707C76.375 1.2701 75.1047 0 73.5379 0Z" fill="#DFF6FD"/>
<path d="M76.3749 50.783V15.5332C66.818 15.5345 58.9122 23.2851 58.7525 32.8567C58.6921 36.4743 59.7219 39.8478 61.5349 42.6704C61.6333 42.8237 61.6874 43.0008 61.6874 43.1832V46.8998C61.6874 47.024 61.7119 47.147 61.7594 47.2618C61.8069 47.3765 61.8766 47.4808 61.9644 47.5686C62.0522 47.6564 62.1565 47.7261 62.2712 47.7736C62.386 47.8211 62.5089 47.8455 62.6331 47.8455H66.3498C66.5319 47.8455 66.7093 47.8997 66.8626 47.9983C69.6066 49.7608 72.8714 50.783 76.3749 50.783Z" fill="#DFF6FD"/>
<path d="M62.7371 87.0754C58.3034 91.5091 52.29 94 46.0198 94H41.125H43.5187C50.3084 94 55.8125 88.4959 55.8125 81.7062V76.2744C55.8125 74.7076 57.0826 73.4373 58.6496 73.4373H64.0814C70.8709 73.4375 76.375 67.9334 76.375 61.1437V58.75V63.6448C76.375 66.7495 75.7635 69.8238 74.5754 72.6922C73.3872 75.5605 71.6458 78.1668 69.4504 80.3621L62.7371 87.0754Z" fill="white"/>
<path d="M9.45508 14.6875H2.29492C1.02739 14.6875 0 13.6601 0 12.3926V11.1074C0 9.83989 1.02739 8.8125 2.29492 8.8125H9.45508C10.7226 8.8125 11.75 9.83989 11.75 11.1074V12.3926C11.75 13.6601 10.7226 14.6875 9.45508 14.6875ZM9.45508 32.3125H2.29492C1.02739 32.3125 0 31.2851 0 30.0176V28.7324C0 27.4649 1.02739 26.4375 2.29492 26.4375H9.45508C10.7226 26.4375 11.75 27.4649 11.75 28.7324V30.0176C11.75 31.2851 10.7226 32.3125 9.45508 32.3125ZM9.45508 67.5625H2.29492C1.02739 67.5625 0 66.5351 0 65.2676V63.9824C0 62.7149 1.02739 61.6875 2.29492 61.6875H9.45508C10.7226 61.6875 11.75 62.7149 11.75 63.9824V65.2676C11.75 66.5351 10.7226 67.5625 9.45508 67.5625ZM9.45508 49.9375H2.29492C1.02739 49.9375 0 48.9101 0 47.6426V46.3574C0 45.0899 1.02739 44.0625 2.29492 44.0625H9.45508C10.7226 44.0625 11.75 45.0899 11.75 46.3574V47.6426C11.75 48.9101 10.7226 49.9375 9.45508 49.9375ZM9.45508 85.1875H2.29492C1.02739 85.1875 0 84.1601 0 82.8926V81.6074C0 80.3399 1.02739 79.3125 2.29492 79.3125H9.45508C10.7226 79.3125 11.75 80.3399 11.75 81.6074V82.8926C11.75 84.1601 10.7226 85.1875 9.45508 85.1875Z" fill="#B2CAEC"/>
<path d="M29.5312 40.9862C33.2518 44.7021 38.3887 47 44.0623 47C49.7449 47 54.8892 44.6948 58.611 40.9686L44.08 23.8672L29.5312 40.9862Z" fill="#FD6930"/>
<path d="M44.0801 5.875H44.0625C32.7061 5.875 23.5 15.0811 23.5 26.4375L35.9159 30.2203L44.0801 26.4375L46.3497 19.5834L44.0801 5.875Z" fill="#26A6FE"/>
<path d="M23.5 26.4375C23.5 32.1201 25.8052 37.2644 29.5314 40.9862L44.0801 26.4375H23.5Z" fill="#FED402"/>
<path d="M44.0801 5.875V26.4375L58.6112 40.9686C62.3271 37.2481 64.625 32.1111 64.625 26.4375C64.625 15.087 55.4284 5.88455 44.0801 5.875Z" fill="#0055A3"/>
<path d="M53.2193 34.623C49.487 39.8281 43.3851 43.2173 36.4968 43.2173C34.6972 43.2173 32.9516 42.9859 31.2881 42.5517C34.7964 45.3365 39.2349 46.9998 44.0622 46.9998C49.7448 46.9998 54.8891 44.6946 58.6109 40.9684L53.2193 34.623Z" fill="#FD5426"/>
<path d="M49.2715 6.54102C54.0166 10.3078 57.0599 16.1261 57.0599 22.6552C57.0599 27.3664 55.4764 31.7053 52.8136 35.171L58.6114 40.9689C62.3274 37.2485 64.6252 32.1116 64.6252 26.438C64.6252 16.8812 58.1056 8.84732 49.2715 6.54102Z" fill="#004281"/>
<path d="M61.5393 38.8941C59.7234 36.0697 58.6918 32.6933 58.7525 29.0721C58.911 19.6362 66.605 11.9279 76.0406 11.7531C86.0393 11.5679 94.1821 19.7106 93.997 29.7093C93.8223 39.1447 86.1139 46.839 76.6781 46.9974C73.0569 47.0582 69.6802 46.0267 66.856 44.2106C66.7078 44.1144 66.535 44.0629 66.3583 44.0623H62.6054C62.362 44.0623 62.1285 43.9656 61.9563 43.7934C61.7842 43.6213 61.6875 43.3878 61.6875 43.1443V39.3917C61.6875 39.2151 61.635 39.043 61.5393 38.8941Z" fill="#80D261"/>
<path d="M78.264 11.8496C83.1759 14.9779 86.4343 20.4717 86.4343 26.7266C86.4343 36.4605 78.5432 44.3516 68.8093 44.3516C68.1782 44.3517 67.5475 44.3183 66.9199 44.2515C69.652 45.9914 72.8955 46.9995 76.3746 46.9995C86.1086 46.9995 93.9996 39.1085 93.9996 29.3746C93.9996 20.2788 87.1095 12.7924 78.264 11.8496Z" fill="#68CA44"/>
<path d="M68.9395 52.875C68.9395 53.6356 68.3231 54.252 67.5625 54.252H32.3125C31.5519 54.252 30.9355 53.6356 30.9355 52.875C30.9355 52.1144 31.5519 51.498 32.3125 51.498H67.5625C68.3231 51.498 68.9395 52.1144 68.9395 52.875ZM67.5625 57.373H20.5625C19.8019 57.373 19.1855 57.9894 19.1855 58.75C19.1855 59.5106 19.8019 60.127 20.5625 60.127H67.5625C68.3231 60.127 68.9395 59.5106 68.9395 58.75C68.9395 57.9894 68.3231 57.373 67.5625 57.373ZM61.6875 63.248H20.5625C19.8019 63.248 19.1855 63.8644 19.1855 64.625C19.1855 65.3856 19.8019 66.002 20.5625 66.002H61.6875C62.4481 66.002 63.0645 65.3856 63.0645 64.625C63.0645 63.8644 62.4481 63.248 61.6875 63.248Z" fill="#0055A3"/>
<path d="M68.7866 58.1192C68.7553 58.6369 68.6912 59.152 68.5947 59.6616C68.8173 59.4102 68.94 59.086 68.9395 58.7502C68.9398 58.5307 68.8873 58.3143 68.7866 58.1192ZM68.8097 52.291V53.4596C68.8929 53.2822 68.9395 53.0841 68.9395 52.8752C68.9395 52.6663 68.8929 52.4686 68.8097 52.291Z" fill="#004281"/>
<path d="M37.6925 70.995C37.4342 70.7368 37.084 70.5918 36.7188 70.5918C36.3536 70.5918 36.0034 70.7368 35.7451 70.995L21.0576 85.6825C20.9297 85.8104 20.8283 85.9622 20.7591 86.1292C20.6899 86.2963 20.6543 86.4754 20.6543 86.6562C20.6543 86.8371 20.6899 87.0161 20.7591 87.1832C20.8284 87.3503 20.9298 87.5021 21.0577 87.6299C21.1856 87.7578 21.3374 87.8592 21.5044 87.9284C21.6715 87.9976 21.8506 88.0332 22.0314 88.0332C22.2123 88.0332 22.3913 87.9976 22.5584 87.9284C22.7255 87.8592 22.8773 87.7577 23.0051 87.6299L37.6926 72.9424C37.9507 72.684 38.0957 72.3338 38.0957 71.9686C38.0956 71.6035 37.9506 71.2533 37.6925 70.995Z" fill="#FED402"/>
<path d="M82.25 26.8353C83.0106 26.8353 83.627 26.219 83.627 25.4584V24.1356C83.627 20.8843 80.9964 18.236 77.752 18.2068V17.625C77.752 16.8644 77.1356 16.248 76.375 16.248C75.6144 16.248 74.998 16.8644 74.998 17.625V18.2068C71.7536 18.236 69.123 20.8843 69.123 24.1356C69.1219 25.3803 69.513 26.5937 70.2408 27.6035C70.9685 28.6132 71.996 29.368 73.1772 29.7605L74.998 30.3675V37.7891C73.2721 37.7601 71.877 36.3472 71.877 34.6144V33.2916C71.877 32.531 71.2606 31.9147 70.5 31.9147C69.7394 31.9147 69.123 32.531 69.123 33.2916V34.6144C69.123 37.8657 71.7536 40.514 74.998 40.5432V41.125C74.998 41.8856 75.6144 42.502 76.375 42.502C77.1356 42.502 77.752 41.8856 77.752 41.125V40.5432C80.9964 40.514 83.627 37.8657 83.627 34.6144C83.6281 33.3697 83.237 32.1563 82.5093 31.1465C81.7815 30.1368 80.754 29.382 79.5728 28.9895L77.752 28.3825V20.9609C79.4779 20.9899 80.873 22.4028 80.873 24.1356V25.4584C80.873 26.219 81.4894 26.8353 82.25 26.8353ZM78.7019 31.6022C79.3345 31.8123 79.8847 32.2165 80.2745 32.7572C80.6643 33.298 80.8737 33.9478 80.873 34.6144C80.873 36.3472 79.4779 37.7601 77.752 37.7891V31.2855L78.7019 31.6022ZM74.0481 27.1478C73.4155 26.9377 72.8653 26.5335 72.4755 25.9928C72.0857 25.452 71.8763 24.8022 71.877 24.1356C71.877 22.4028 73.2721 20.9899 74.998 20.9609V27.4645L74.0481 27.1478Z" fill="white"/>
<path d="M83.1142 37.0254C82.4139 37.9964 81.617 38.8938 80.7356 39.704C81.784 39.0757 82.6142 38.1407 83.1142 37.0254ZM76.835 42.4225C76.9595 42.3783 77.0771 42.3163 77.184 42.2385C77.0685 42.3011 76.9521 42.3625 76.835 42.4225Z" fill="#F2FBFF"/>
<path d="M27.8145 73.4375C27.8145 71.0585 25.879 69.123 23.5 69.123C21.121 69.123 19.1855 71.0585 19.1855 73.4375C19.1855 75.8165 21.121 77.752 23.5 77.752C25.879 77.752 27.8145 75.8165 27.8145 73.4375ZM21.9395 73.4375C21.9395 72.577 22.6395 71.877 23.5 71.877C24.3605 71.877 25.0605 72.577 25.0605 73.4375C25.0605 74.298 24.3605 74.998 23.5 74.998C22.6395 74.998 21.9395 74.298 21.9395 73.4375ZM35.25 80.873C32.871 80.873 30.9355 82.8085 30.9355 85.1875C30.9355 87.5665 32.871 89.502 35.25 89.502C37.629 89.502 39.5645 87.5665 39.5645 85.1875C39.5645 82.8085 37.629 80.873 35.25 80.873ZM35.25 86.748C34.3895 86.748 33.6895 86.048 33.6895 85.1875C33.6895 84.327 34.3895 83.627 35.25 83.627C36.1105 83.627 36.8105 84.327 36.8105 85.1875C36.8105 86.048 36.1105 86.748 35.25 86.748Z" fill="#FED402"/>
</g>
<defs>
<clipPath id="clip0_102_4888">
<rect width="94" height="94" fill="white"/>
</clipPath>
</defs>
</svg>
