<svg width="94" height="94" viewBox="0 0 94 94" fill="none" xmlns="http://www.w3.org/2000/svg">
<g clip-path="url(#clip0_102_4761)">
<path d="M8.85742 35.1914H12.5281V83.0688H8.85742V35.1914Z" fill="#707070"/>
<path d="M8.85742 35.1914H12.5281V83.0688H8.85742V35.1914Z" fill="#707070"/>
<path d="M33.9658 74.0996V80.8545C33.9658 82.0774 34.9778 83.0685 36.226 83.0685H43.0793C44.3275 83.0685 45.3394 82.0774 45.3394 80.8545V74.0996H33.9658ZM84.3305 74.0996V80.8545C84.3305 82.0774 83.3185 83.0685 82.0703 83.0685H75.217C73.9688 83.0685 72.9569 82.0774 72.9569 80.8545V74.0996H84.3305Z" fill="#3F3F3F"/>
<path d="M85.4444 16.2864C81.1842 14.6308 70.4026 10.9297 59.1487 10.9297C47.8946 10.9297 37.1128 14.6308 32.8528 16.2864C31.6952 16.7363 30.9395 17.8334 30.9395 19.0532V71.6623C30.9395 73.3075 32.3009 74.6412 33.9804 74.6412H84.3166C85.9961 74.6412 87.3578 73.3075 87.3578 71.6623V19.0532C87.3578 17.8334 86.6019 16.7363 85.4444 16.2864Z" fill="#F6737C"/>
<path d="M8.85645 61.071L12.5271 64.7417V35.1914H8.85645V61.071Z" fill="#3F3F3F"/>
<path d="M84.3164 74.6411C85.9959 74.6411 87.3576 73.3075 87.3576 71.6622V71.5031L73.7996 57.9453C73.5166 57.6614 73.1769 57.4406 72.8026 57.2972C72.4283 57.1538 72.0279 57.0912 71.6278 57.1134C68.4722 57.2887 62.1262 57.2069 58.4513 55.2281L67.1687 51.3142L36.4643 20.6098C35.6353 19.7808 34.1961 19.9857 33.711 21.053C33.7072 21.0612 33.7035 21.0694 33.7 21.0776C33.1346 22.3496 30.9395 39.6592 30.9395 39.6592V71.6622C30.9395 73.3075 32.3009 74.6411 33.9804 74.6411H84.3164Z" fill="#D72C38"/>
<path d="M26.6588 44.2392L30.9395 45.1799V30.1641H24.2969V41.3489C24.2969 42.735 25.2781 43.9359 26.6588 44.2392Z" fill="#F6737C"/>
<path d="M40.5822 64.4706C42.5223 64.4706 44.095 62.9298 44.095 61.0292C44.095 59.1286 42.5223 57.5879 40.5822 57.5879C38.6421 57.5879 37.0693 59.1286 37.0693 61.0292C37.0693 62.9298 38.6421 64.4706 40.5822 64.4706Z" fill="white"/>
<path d="M91.6383 44.2392L87.3574 45.1799V30.1641H94V41.3489C94 42.735 93.0188 43.9359 91.6383 44.2392Z" fill="#F6737C"/>
<path d="M56.4761 15.7895C53.6602 16.0627 49.2197 16.6003 46.1736 17.4878C45.8471 17.5832 45.5605 17.782 45.3568 18.0544C45.1531 18.3267 45.0433 18.6578 45.0439 18.9979C45.0439 19.2043 45.0846 19.4088 45.1636 19.5995C45.2426 19.7902 45.3584 19.9636 45.5044 20.1095C45.6504 20.2555 45.8237 20.3713 46.0145 20.4503C46.2052 20.5294 46.4096 20.57 46.6161 20.57H71.6811C71.8875 20.57 72.092 20.5294 72.2827 20.4503C72.4734 20.3713 72.6467 20.2555 72.7927 20.1095C72.9386 19.9635 73.0544 19.7902 73.1334 19.5995C73.2124 19.4087 73.253 19.2043 73.253 18.9979C73.2537 18.6578 73.1439 18.3267 72.9401 18.0544C72.7364 17.782 72.4498 17.5832 72.1234 17.4878C69.0773 16.6003 64.637 16.0627 61.8211 15.7895C60.0436 15.6171 58.2536 15.6171 56.4761 15.7895Z" fill="#D72C38"/>
<path d="M59.1477 26.3047H37.3887V49.6139C37.3887 50.7935 38.1529 51.8395 39.2931 52.2186C42.7712 53.3758 50.5864 55.6066 59.1475 55.6066C67.7084 55.6066 75.5236 53.3758 79.0017 52.2186C80.1419 51.8395 80.9061 50.7935 80.9061 49.6139V26.3047H59.1477Z" fill="#CFEAFF"/>
<path d="M77.7121 64.4706C79.6522 64.4706 81.2249 62.9298 81.2249 61.0292C81.2249 59.1286 79.6522 57.5879 77.7121 57.5879C75.772 57.5879 74.1992 59.1286 74.1992 61.0292C74.1992 62.9298 75.772 64.4706 77.7121 64.4706Z" fill="white"/>
<path d="M68.907 65.1913C68.7048 64.2249 67.8366 63.5312 66.8294 63.5312H51.4676C50.4604 63.5312 49.5924 64.2251 49.3898 65.1913C49.1302 66.4323 50.0769 67.5978 51.3448 67.5978H66.952C68.2199 67.598 69.1669 66.4325 68.907 65.1913Z" fill="#9E1B2B"/>
<path d="M10.7533 37.0594C16.6922 37.0594 21.5066 32.2449 21.5066 26.306C21.5066 20.3672 16.6922 15.5527 10.7533 15.5527C4.81442 15.5527 0 20.3672 0 26.306C0 32.2449 4.81442 37.0594 10.7533 37.0594Z" fill="#F6737C"/>
<path d="M2.70424 19.1777C1.02292 21.0752 0 23.57 0 26.3048C0 32.2437 4.81442 37.0578 10.7533 37.0578C13.488 37.0578 15.9829 36.0352 17.8803 34.3538L2.70424 19.1777Z" fill="#D72C38"/>
<path d="M10.753 33.1584C14.5376 33.1584 17.6057 30.0904 17.6057 26.3058C17.6057 22.5212 14.5376 19.4531 10.753 19.4531C6.96842 19.4531 3.90039 22.5212 3.90039 26.3058C3.90039 30.0904 6.96842 33.1584 10.753 33.1584Z" fill="white"/>
<path d="M14.4044 57.5873H7.10384C6.83178 57.5873 6.56237 57.5337 6.31102 57.4295C6.05966 57.3254 5.83128 57.1728 5.63891 56.9804C5.44654 56.788 5.29395 56.5596 5.18985 56.3083C5.08576 56.0569 5.0322 55.7875 5.03223 55.5154V41.6055H16.476V55.5154C16.4761 55.7875 16.4225 56.0569 16.3184 56.3083C16.2143 56.5597 16.0618 56.7881 15.8694 56.9805C15.677 57.1729 15.4486 57.3255 15.1972 57.4296C14.9459 57.5337 14.6765 57.5873 14.4044 57.5873Z" fill="#90CAF4"/>
<path d="M10.7545 33.1565C12.347 33.1589 13.8902 32.6042 15.1167 31.5884L9.49033 25.962C8.16119 24.6329 5.92525 25.0644 5.15565 26.7794C4.82507 27.5164 4.60481 28.298 4.50195 29.0992C5.5724 31.4889 7.9666 33.1565 10.7545 33.1565Z" fill="#EDEDED"/>
<path d="M5.03223 54.0256V55.5162C5.0322 55.7882 5.08576 56.0576 5.18985 56.309C5.29395 56.5604 5.44654 56.7888 5.63891 56.9812C5.83128 57.1736 6.05966 57.3262 6.31102 57.4303C6.56237 57.5344 6.83178 57.588 7.10384 57.588H14.4042C15.3085 57.588 16.0693 57.0047 16.352 56.197L9.08198 48.9269C8.09807 47.943 6.41697 48.4116 6.08362 49.7625L5.03223 54.0256Z" fill="#6FB0D8"/>
<path d="M42.1494 26.3047H37.3896V36.5747L56.3402 55.5252C57.2645 55.5754 58.2009 55.6066 59.1485 55.6066C63.1615 55.6066 67.0036 55.1145 70.319 54.4743L42.1494 26.3047ZM66.2903 26.3047H56.7576L80.7992 50.3463C80.8656 50.1109 80.9073 49.8663 80.9073 49.6137V40.9217L66.2903 26.3047Z" fill="white"/>
<path d="M89.4676 30.1641H87.3574V45.1799L89.4676 44.7163V30.1641Z" fill="#D72C38"/>
</g>
<defs>
<clipPath id="clip0_102_4761">
<rect width="94" height="94" fill="white"/>
</clipPath>
</defs>
</svg>
