<svg width="94" height="94" viewBox="0 0 94 94" fill="none" xmlns="http://www.w3.org/2000/svg">
<g clip-path="url(#clip0_102_4787)">
<path d="M92.1637 86.4908H65.001C63.987 86.4908 63.165 85.6689 63.165 84.6549V74.2248C63.165 68.3114 67.9589 63.5176 73.8722 63.5176H83.2924C89.2058 63.5176 93.9996 68.3114 93.9996 74.2248V84.6549C93.9996 85.6689 93.1777 86.4908 92.1637 86.4908Z" fill="#27D1B3"/>
<path d="M83.0102 77.8829L79.328 81.1198C79.1219 81.3009 78.857 81.4008 78.5826 81.4008C78.3083 81.4008 78.0433 81.3009 77.8372 81.1198L74.1551 77.8829C73.9986 77.7453 73.8832 77.567 73.8217 77.3679C73.7603 77.1688 73.7551 76.9566 73.8068 76.7547L77.1983 63.5176H79.9667L83.3582 76.7547C83.4101 76.9565 83.405 77.1688 83.3436 77.3679C83.2821 77.5671 83.1667 77.7453 83.0102 77.8829Z" fill="#FB4A59"/>
<path d="M94.0005 74.2246V84.6547C94.0005 85.6687 93.1786 86.4907 92.1646 86.4907H88.4277V74.2246C88.4277 68.3127 83.6326 63.5176 77.7207 63.5176H83.2935C89.2069 63.5174 94.0005 68.3112 94.0005 74.2246Z" fill="#20B69F"/>
<path d="M78.5825 64.4625C73.7617 64.4625 69.8535 60.5545 69.8535 55.7335V52.5825C69.8535 47.7617 73.7615 43.8535 78.5825 43.8535C83.4033 43.8535 87.3114 47.7615 87.3114 52.5825V55.7335C87.3114 60.5545 83.4033 64.4625 78.5825 64.4625Z" fill="#FFCEC0"/>
<path d="M87.3116 52.5843V55.7344C87.3116 60.5552 83.4035 64.4633 78.5827 64.4633C77.6439 64.4641 76.7111 64.3133 75.8203 64.0168C79.2869 62.8589 81.7844 59.5885 81.7844 55.7345V52.5844C81.7844 50.1753 80.808 47.9918 79.228 46.4118C78.2712 45.4537 77.1045 44.7313 75.8203 44.302C76.7111 44.0055 77.6439 43.8547 78.5827 43.8555C80.9918 43.8555 83.1753 44.8318 84.7553 46.4118C86.3351 47.9917 87.3116 50.1749 87.3116 52.5843Z" fill="#FDB0A0"/>
<path d="M28.9986 86.4908H1.83594C0.821949 86.4908 0 85.6689 0 84.6549V74.2248C0 68.3114 4.79382 63.5176 10.7072 63.5176H20.1274C26.0408 63.5176 30.8346 68.3114 30.8346 74.2248V84.6549C30.8346 85.6689 30.0126 86.4908 28.9986 86.4908Z" fill="#FB4A59"/>
<path d="M19.8451 77.8829L16.163 81.1198C15.9569 81.3009 15.6919 81.4008 15.4176 81.4008C15.1432 81.4008 14.8782 81.3009 14.6722 81.1198L10.99 77.8829C10.8335 77.7453 10.7182 77.567 10.6567 77.3679C10.5952 77.1688 10.59 76.9566 10.6417 76.7547L14.0333 63.5176H16.8017L20.1932 76.7547C20.245 76.9565 20.2398 77.1688 20.1784 77.3679C20.117 77.567 20.0016 77.7453 19.8451 77.8829Z" fill="#F8F3F1"/>
<path d="M30.8345 74.2246V84.6547C30.8345 85.6687 30.0125 86.4907 28.9986 86.4907H25.2617V74.2246C25.2617 68.3127 20.4666 63.5176 14.5547 63.5176H20.1275C26.0409 63.5174 30.8345 68.3112 30.8345 74.2246Z" fill="#F82F40"/>
<path d="M15.4174 64.4625C10.5966 64.4625 6.68848 60.5545 6.68848 55.7335V52.5825C6.68848 47.7617 10.5965 43.8535 15.4174 43.8535C20.2382 43.8535 24.1464 47.7615 24.1464 52.5825V55.7335C24.1464 60.5545 20.2382 64.4625 15.4174 64.4625Z" fill="#FFCEC0"/>
<path d="M24.1466 52.5843V55.7344C24.1466 60.5552 20.2384 64.4633 15.4176 64.4633C14.4788 64.4641 13.546 64.3133 12.6553 64.0168C16.1219 62.8589 18.6193 59.5885 18.6193 55.7345V52.5844C18.6193 50.1753 17.643 47.9918 16.063 46.4118C15.1061 45.4537 13.9395 44.7313 12.6553 44.302C13.546 44.0055 14.4788 43.8547 15.4176 43.8555C17.8267 43.8555 20.0102 44.8318 21.5902 46.4118C23.1702 47.9917 24.1466 50.1749 24.1466 52.5843Z" fill="#FDB0A0"/>
<path d="M66.8278 92.4496H27.1719C26.1579 92.4496 25.3359 91.6277 25.3359 90.6137V73.6039C25.3359 65.2947 32.072 58.5586 40.3813 58.5586H53.6184C61.9276 58.5586 68.6637 65.2947 68.6637 73.6039V90.6137C68.6637 91.6277 67.8417 92.4496 66.8278 92.4496Z" fill="#0D5F7F"/>
<path d="M68.6642 73.6037V90.6135C68.6642 91.6275 67.8423 92.4494 66.8283 92.4494H60.8334V73.6039C60.8334 65.2967 54.0953 58.5586 45.7881 58.5586H53.6189C61.9284 58.5586 68.6642 65.2945 68.6642 73.6037Z" fill="#094C66"/>
<path d="M58.5536 59.3868L47.0005 81.3911L35.4473 59.3866C37.035 58.8373 38.7033 58.5574 40.3834 58.5586H53.6175C55.2976 58.5576 56.9659 58.8375 58.5536 59.3868Z" fill="white"/>
<path d="M52.8957 70.159L46.9996 81.3909L41.1035 70.159L45.35 58.5586H48.6492L52.8957 70.159Z" fill="#FB4A59"/>
<path d="M32.5109 48.7737C35.0766 48.7737 37.1565 46.6938 37.1565 44.1281C37.1565 41.5624 35.0766 39.4824 32.5109 39.4824C29.9452 39.4824 27.8652 41.5624 27.8652 44.1281C27.8652 46.6938 29.9452 48.7737 32.5109 48.7737Z" fill="#FDB0A0"/>
<path d="M61.4894 48.7737C64.0551 48.7737 66.1351 46.6938 66.1351 44.1281C66.1351 41.5624 64.0551 39.4824 61.4894 39.4824C58.9237 39.4824 56.8438 41.5624 56.8438 44.1281C56.8438 46.6938 58.9237 48.7737 61.4894 48.7737Z" fill="#F69583"/>
<path d="M47.0001 59.8846C40.226 59.8846 34.7344 54.3931 34.7344 47.619V43.1913C34.7344 36.4173 40.2258 30.9258 46.9999 30.9258C53.774 30.9258 59.2654 36.4173 59.2654 43.1913V47.619C59.2656 54.3931 53.7741 59.8846 47.0001 59.8846Z" fill="#FFCEC0"/>
<path d="M59.2663 43.1897V47.6165C59.2663 54.393 53.7741 59.8823 47.0004 59.8823C45.986 59.8823 44.9972 59.7602 44.0539 59.5242C49.404 58.2059 53.3704 53.3757 53.3704 47.6165V43.1897C53.3704 39.803 51.998 36.7371 49.7761 34.5153C48.222 32.9612 46.2557 31.8245 44.0537 31.2818C44.997 31.0459 45.9859 30.9238 47.0002 30.9238C50.387 30.9238 53.4528 32.2962 55.6746 34.5153C57.8939 36.7371 59.2663 39.8028 59.2663 43.1897Z" fill="#FDB0A0"/>
<path d="M63.2801 39.884C60.8234 40.1278 55.9249 40.3911 51.7256 39.2479C48.74 38.4351 46.6924 35.6884 46.6924 32.5943V27.913C46.6924 25.5395 48.6164 23.6152 50.9901 23.6152H54.2232C60.0951 23.6152 64.8551 28.3753 64.8551 34.2472V38.1443C64.8555 38.5781 64.6944 38.9965 64.4033 39.3181C64.1122 39.6397 63.7118 39.8414 63.2801 39.884Z" fill="#7A7179"/>
<path d="M64.8552 34.2472V38.1444C64.8551 38.5782 64.6936 38.9964 64.4021 39.3177C64.1105 39.6389 63.7099 39.8401 63.2781 39.8821C61.5844 40.0521 58.7323 40.2283 55.7449 39.9451C55.9936 39.923 56.2233 39.9041 56.4374 39.8821C56.8686 39.8395 57.2686 39.638 57.5595 39.3168C57.8504 38.9956 58.0115 38.5777 58.0113 38.1444V34.2472C58.0113 29.1317 54.4037 24.863 49.5967 23.8463C50.0442 23.6913 50.5145 23.6125 50.9881 23.6133H54.221C60.0953 23.6133 64.8552 28.3731 64.8552 34.2472Z" fill="#685E67"/>
<path d="M30.7051 40.3595C33.4875 40.6533 39.4967 41.0353 44.6223 39.6402C48.1416 38.6822 50.5553 35.4443 50.5553 31.7971V26.279C50.5553 23.481 48.2872 21.2129 45.4892 21.2129H41.6782C34.7565 21.2129 29.1455 26.8239 29.1455 33.7455V38.6218C29.1455 39.5142 29.8175 40.2657 30.7051 40.3595Z" fill="#9B8F99"/>
<path d="M50.5544 26.2781V31.7965C50.5544 35.4451 48.1399 38.6844 44.6235 39.6413C40.3895 40.7935 35.5542 40.7337 32.4346 40.5134C34.1943 40.3748 36.0108 40.1073 37.7263 39.6413C41.2458 38.6844 43.6602 35.4451 43.6602 31.7965V26.2781C43.6602 23.8919 42.0075 21.8898 39.7851 21.3546C40.4113 21.2596 41.0437 21.2122 41.677 21.2129H45.4892C48.2879 21.2129 50.5544 23.4827 50.5544 26.2781Z" fill="#8B8088"/>
<path d="M45.582 92.4372V81.3911C45.582 81.0149 45.7315 80.6541 45.9975 80.3881C46.2635 80.1221 46.6243 79.9727 47.0005 79.9727C47.3767 79.9727 47.7375 80.1221 48.0035 80.3881C48.2695 80.6541 48.4189 81.0149 48.4189 81.3911V92.4372H45.582Z" fill="#094C66"/>
<path d="M52.3348 85.6302H52.3307L52.2981 85.63C51.9246 85.6253 51.5681 85.4735 51.3059 85.2075C51.0437 84.9416 50.8969 84.583 50.8975 84.2095C50.898 83.836 51.0458 83.4778 51.3087 83.2126C51.5717 82.9474 51.9286 82.7967 52.3021 82.793H52.339C52.5253 82.7935 52.7097 82.8307 52.8816 82.9025C53.0535 82.9743 53.2095 83.0792 53.3409 83.2113C53.4722 83.3434 53.5763 83.5001 53.647 83.6725C53.7178 83.8448 53.754 84.0293 53.7534 84.2156C53.7522 84.5911 53.6023 84.9509 53.3364 85.216C53.0705 85.4812 52.7103 85.6301 52.3348 85.6302Z" fill="white"/>
<path d="M25.0673 36.1444C34.6195 36.1444 42.3631 28.4008 42.3631 18.8486C42.3631 9.29634 34.6195 1.55273 25.0673 1.55273C15.5151 1.55273 7.77148 9.29634 7.77148 18.8486C7.77148 28.4008 15.5151 36.1444 25.0673 36.1444Z" fill="#27D1B3"/>
<path d="M42.3636 18.849C42.3636 28.4012 34.6196 36.1452 25.0675 36.1452C23.5173 36.1469 21.9739 35.9398 20.4791 35.5294C29.6646 35.4992 37.1026 28.0418 37.1026 18.849C37.1026 9.65632 29.663 2.19893 20.4756 2.17047C21.9717 1.76022 23.5161 1.5531 25.0675 1.5547C34.6196 1.5547 42.3636 9.29684 42.3636 18.849Z" fill="#20B69F"/>
<path d="M20.4422 27.3106L14.2353 21.1036C14.1526 21.021 14.0871 20.9229 14.0424 20.8149C13.9976 20.7069 13.9746 20.5912 13.9746 20.4743C13.9746 20.3575 13.9976 20.2418 14.0424 20.1338C14.0871 20.0258 14.1526 19.9277 14.2353 19.8451L16.7988 17.2817C16.8814 17.1991 16.9795 17.1336 17.0875 17.0888C17.1955 17.0441 17.3112 17.0211 17.4281 17.0211C17.5449 17.0211 17.6607 17.0441 17.7686 17.0888C17.8766 17.1336 17.9747 17.1991 18.0573 17.2817L21.7009 20.9253L32.0765 10.5497C32.1592 10.4671 32.2573 10.4015 32.3653 10.3568C32.4732 10.3121 32.589 10.2891 32.7058 10.2891C32.8227 10.2891 32.9384 10.3121 33.0464 10.3568C33.1543 10.4015 33.2524 10.4671 33.3351 10.5497L35.8984 13.1131C35.9811 13.1957 36.0466 13.2938 36.0913 13.4018C36.1361 13.5097 36.1591 13.6255 36.1591 13.7423C36.1591 13.8592 36.1361 13.9749 36.0913 14.0829C36.0466 14.1909 35.9811 14.289 35.8984 14.3716L22.9593 27.3106C22.794 27.4758 22.5978 27.6069 22.3819 27.6964C22.1659 27.7859 21.9345 27.8319 21.7007 27.8319C21.467 27.8319 21.2356 27.7859 21.0196 27.6964C20.8037 27.6069 20.6075 27.4758 20.4422 27.3106Z" fill="#BCEA73"/>
</g>
<defs>
<clipPath id="clip0_102_4787">
<rect width="94" height="94" fill="white"/>
</clipPath>
</defs>
</svg>
