<svg width="58" height="59" viewBox="0 0 58 59" fill="none" xmlns="http://www.w3.org/2000/svg">
<path d="M50.9673 20.947H41.7088C40.5494 20.947 39.6094 20.0071 39.6094 18.8476V15.4002C39.6094 14.2408 40.5493 13.3008 41.7088 13.3008H50.9673C52.1267 13.3008 53.0667 14.2407 53.0667 15.4002V18.8476C53.0667 20.0071 52.1268 20.947 50.9673 20.947Z" fill="#81A7C6"/>
<path d="M49.4729 14.9955C49.2442 14.9955 49.0249 14.9046 48.8632 14.7429C48.7014 14.5812 48.6106 14.3619 48.6106 14.1332V5.17284C48.6106 4.94415 48.7014 4.72482 48.8632 4.56311C49.0249 4.4014 49.2442 4.31055 49.4729 4.31055C49.7016 4.31055 49.9209 4.4014 50.0826 4.56311C50.2443 4.72482 50.3352 4.94415 50.3352 5.17284V14.1333C50.3352 14.362 50.2443 14.5813 50.0826 14.7429C49.9209 14.9046 49.7016 14.9955 49.4729 14.9955ZM43.2031 14.9955C42.9744 14.9955 42.7551 14.9046 42.5934 14.7429C42.4317 14.5812 42.3408 14.3619 42.3408 14.1332V5.17284C42.3408 4.69661 42.7268 4.31055 43.2031 4.31055C43.6795 4.31055 44.0654 4.69661 44.0654 5.17284V14.1333C44.0654 14.362 43.9745 14.5813 43.8128 14.7429C43.6511 14.9046 43.4318 14.9955 43.2031 14.9955Z" fill="#4D5961"/>
<path d="M39.8013 6.00555H57.1381V0.958984H39.8013C38.4257 0.958984 37.3105 2.07412 37.3105 3.4497V3.51484C37.3105 4.89041 38.4257 6.00555 39.8013 6.00555Z" fill="#909BA5"/>
<path d="M36.0566 58.0975H57.1378V47.4453H37.7409C36.8108 47.4453 36.0568 48.1993 36.0568 49.1295V58.0975H36.0566Z" fill="#B9C1CB"/>
<path d="M56.2754 0.958984H57.9999V58.097H56.2754V0.958984Z" fill="#909BA5"/>
<path d="M5.80078 51.9727H30.255V55.5035H5.80078V51.9727Z" fill="#C6865C"/>
<path d="M10.2992 48.0488L9.20297 51.0572L6.63704 58.0964H0L4.75827 50.7229L6.48365 48.0488H10.2992Z" fill="#B9C1CB"/>
<path d="M7.96424 48.0488L3.39572 58.0964H0L6.48365 48.0488H7.96424Z" fill="#909BA5"/>
<path d="M36.0569 58.0964H29.419L26.8529 51.0572L25.7568 48.0488H29.5733L31.2987 50.7229L36.0569 58.0964Z" fill="#B9C1CB"/>
<path d="M28.0918 48.0489L32.6603 58.0965H36.0561L29.5724 48.0489H28.0918ZM6.4832 48.0489L8.75789 46.5781L10.2987 48.0489L9.20252 51.0573H6.4832C5.89192 51.0579 5.30607 50.9444 4.75781 50.723L6.4832 48.0489Z" fill="#909BA5"/>
<path d="M31.2988 50.7239C30.7505 50.9453 30.1647 51.0588 29.5734 51.0582H26.8531L25.7568 48.0498L27.0991 45.8926L29.5733 48.0498L31.2988 50.7239Z" fill="#909BA5"/>
<path d="M18.0275 16.4226L26.5337 12.6837L26.2146 10.3303C26.1738 10.0273 26.0244 9.74939 25.7942 9.5482C25.564 9.34701 25.2686 9.2362 24.9629 9.23633H11.0925C10.7867 9.23615 10.4913 9.34695 10.2611 9.54815C10.0309 9.74935 9.88148 10.0273 9.84071 10.3303L9.52148 12.6837L18.0275 16.4226Z" fill="#B9C1CB"/>
<path d="M19.5257 15.7642L18.0274 16.4229L9.52148 12.6831L9.84003 10.3305C9.8808 10.0275 10.0301 9.74959 10.2603 9.54836C10.4905 9.34713 10.7858 9.23626 11.0916 9.23633H14.0872C13.7814 9.23626 13.4861 9.34713 13.2559 9.54836C13.0257 9.74959 12.8764 10.0275 12.8356 10.3305L12.5171 12.6831L19.5257 15.7642Z" fill="#909BA5"/>
<path d="M29.5727 12.6836H6.48319C3.93924 12.6836 1.87695 14.7459 1.87695 17.2898V43.4443C1.87695 45.9883 3.93924 48.0506 6.48319 48.0506H29.5727C32.1167 48.0506 34.179 45.9883 34.179 43.4443V17.2898C34.1791 14.7459 32.1167 12.6836 29.5727 12.6836Z" fill="#FF4040"/>
<path d="M9.09897 48.0485H6.48286C3.93946 48.0485 1.87695 45.9869 1.87695 43.4426V17.2886C1.87695 14.7443 3.93958 12.6816 6.48286 12.6816H9.09897C6.55468 12.6816 4.49205 14.7443 4.49205 17.2886V43.4426C4.49205 45.9869 6.55468 48.0485 9.09897 48.0485Z" fill="#D82E3D"/>
<path d="M14.8465 19.8848H6.7569C5.5261 19.8848 4.52832 20.8825 4.52832 22.1133V29.1729C4.52832 30.4037 5.5261 31.4015 6.7569 31.4015H14.8465C16.0773 31.4015 17.0751 30.4037 17.0751 29.1729V22.1133C17.0751 20.8825 16.0773 19.8848 14.8465 19.8848ZM18.9812 22.1133V29.1729C18.9812 30.4037 19.979 31.4015 21.2098 31.4015H29.2995C30.5303 31.4015 31.5281 30.4037 31.5281 29.1729V22.1133C31.5281 20.8825 30.5303 19.8848 29.2995 19.8848H21.2097C19.9789 19.8848 18.9812 20.8825 18.9812 22.1133Z" fill="#D3EFFB"/>
<path d="M14.8466 31.9914H6.75691C5.20281 31.9914 3.93848 30.727 3.93848 29.1729V22.1134C3.93848 20.5593 5.20281 19.2949 6.75691 19.2949H14.8466C16.4007 19.2949 17.665 20.5593 17.665 22.1134V29.1729C17.665 30.727 16.4007 31.9914 14.8466 31.9914ZM6.75691 20.4746C5.85338 20.4746 5.1183 21.2097 5.1183 22.1134V29.1729C5.1183 30.0765 5.85338 30.8115 6.75691 30.8115H14.8466C15.7501 30.8115 16.4853 30.0765 16.4853 29.1729V22.1134C16.4853 21.2098 15.7502 20.4746 14.8466 20.4746H6.75691ZM29.2994 31.9914H21.2097C19.6556 31.9914 18.3912 30.727 18.3912 29.1729V22.1134C18.3912 20.5593 19.6556 19.2949 21.2097 19.2949H29.2994C30.8535 19.2949 32.1179 20.5593 32.1179 22.1134V29.1729C32.1179 30.727 30.8535 31.9914 29.2994 31.9914ZM21.2097 20.4746C20.3061 20.4746 19.5711 21.2097 19.5711 22.1134V29.1729C19.5711 30.0765 20.3061 30.8115 21.2097 30.8115H29.2994C30.203 30.8115 30.938 30.0765 30.938 29.1729V22.1134C30.938 21.2098 30.203 20.4746 29.2994 20.4746H21.2097Z" fill="#D82E3D"/>
<path d="M7.21972 42.1289C8.68565 42.1289 9.87402 40.9405 9.87402 39.4746C9.87402 38.0087 8.68565 36.8203 7.21972 36.8203C5.7538 36.8203 4.56543 38.0087 4.56543 39.4746C4.56543 40.9405 5.7538 42.1289 7.21972 42.1289Z" fill="#ECBE6B"/>
<path d="M28.8369 42.1289C30.3028 42.1289 31.4912 40.9405 31.4912 39.4746C31.4912 38.0087 30.3028 36.8203 28.8369 36.8203C27.371 36.8203 26.1826 38.0087 26.1826 39.4746C26.1826 40.9405 27.371 42.1289 28.8369 42.1289Z" fill="#ECBE6B"/>
<path d="M7.21977 42.8673C5.34961 42.8673 3.82812 41.3458 3.82812 39.4756C3.82812 37.6055 5.34961 36.084 7.21977 36.084C9.08993 36.084 10.6114 37.6055 10.6114 39.4756C10.6114 41.3458 9.08993 42.8673 7.21977 42.8673ZM7.21977 37.5588C6.16274 37.5588 5.30282 38.4187 5.30282 39.4757C5.30282 40.5328 6.16274 41.3927 7.21977 41.3927C8.27679 41.3927 9.13671 40.5328 9.13671 39.4757C9.13671 38.4187 8.27679 37.5588 7.21977 37.5588ZM28.8375 42.8673C26.9673 42.8673 25.4459 41.3458 25.4459 39.4756C25.4459 37.6055 26.9674 36.084 28.8375 36.084C30.7075 36.084 32.229 37.6056 32.229 39.4757C32.229 41.3458 30.7075 42.8673 28.8375 42.8673ZM28.8375 37.5588C27.7805 37.5588 26.9205 38.4187 26.9205 39.4757C26.9205 40.5328 27.7804 41.3927 28.8375 41.3927C29.8945 41.3927 30.7544 40.5328 30.7544 39.4757C30.7543 38.4187 29.8944 37.5588 28.8375 37.5588Z" fill="#EA1827"/>
<path d="M30.2068 17.5113C30.8679 17.5113 31.4038 16.9753 31.4038 16.3142C31.4038 15.6531 30.8679 15.1172 30.2068 15.1172C29.5457 15.1172 29.0098 15.6531 29.0098 16.3142C29.0098 16.9753 29.5457 17.5113 30.2068 17.5113Z" fill="#E7ECF1"/>
<path d="M5.84939 17.5113C6.5105 17.5113 7.04643 16.9753 7.04643 16.3142C7.04643 15.6531 6.5105 15.1172 5.84939 15.1172C5.18828 15.1172 4.65234 15.6531 4.65234 16.3142C4.65234 16.9753 5.18828 17.5113 5.84939 17.5113Z" fill="#E7ECF1"/>
<path d="M23.6611 48.0501L23.079 44.6297C22.9436 43.8331 22.2526 43.25 21.4443 43.25H14.6121C14.2205 43.2499 13.8415 43.3884 13.5422 43.6409C13.2429 43.8934 13.0426 44.2436 12.9767 44.6297L12.3945 48.0501" fill="#4D5961"/>
<path d="M21.32 17.7276H14.7369C14.0159 17.7276 13.4316 17.1432 13.4316 16.4224C13.4316 15.7015 14.0161 15.1172 14.7369 15.1172H21.32C22.0409 15.1172 22.6252 15.7016 22.6252 16.4224C22.6253 17.1432 22.0409 17.7276 21.32 17.7276Z" fill="#ECBE6B"/>
<path d="M23.3616 36.1915H12.6924C12.4969 36.1915 12.3093 36.1138 12.171 35.9755C12.0328 35.8373 11.9551 35.6497 11.9551 35.4541C11.9551 35.2586 12.0328 35.071 12.171 34.9328C12.3093 34.7945 12.4969 34.7168 12.6924 34.7168H23.3616C23.5572 34.7168 23.7447 34.7945 23.883 34.9328C24.0213 35.071 24.0989 35.2586 24.0989 35.4541C24.0989 35.6497 24.0213 35.8373 23.883 35.9755C23.7447 36.1138 23.5572 36.1915 23.3616 36.1915ZM23.3616 38.7462H12.6924C12.4969 38.7462 12.3093 38.6685 12.171 38.5302C12.0328 38.392 11.9551 38.2044 11.9551 38.0089C11.9551 37.8133 12.0328 37.6258 12.171 37.4875C12.3093 37.3492 12.4969 37.2715 12.6924 37.2715H23.3616C23.5572 37.2715 23.7447 37.3492 23.883 37.4875C24.0213 37.6258 24.0989 37.8133 24.0989 38.0089C24.0989 38.2044 24.0213 38.392 23.883 38.5302C23.7447 38.6685 23.5572 38.7462 23.3616 38.7462Z" fill="#4D5961"/>
</svg>
