<svg width="186" height="158" viewBox="0 0 186 158" fill="none" xmlns="http://www.w3.org/2000/svg">
<path d="M-2.01277 2.74496C-18.1378 12.4621 -34.7592 23.4086 -24.5015 43.4245C-19.3004 53.5734 -8.18949 61.7711 2.6364 65.6363C16.9211 70.7364 30.8148 70.1552 44.345 63.5762C54.7212 58.5308 62.4363 47.1659 53.7925 36.758C46.4454 27.9115 31.6034 32.1555 26.6834 41.3924C20.7883 52.4603 23.2641 65.9811 29.4979 76.2019C44.0555 100.07 78.004 97.0632 101.173 87.2737C113.688 81.9856 116.895 71.9133 108.375 60.9021C100.418 50.6194 85.1362 61.6684 82.1449 70.568C74.1208 94.4407 97.8898 118.716 119.827 122.672C134.112 125.248 145.995 122.298 159.306 116.23C168.967 111.826 175.875 101.027 167.206 92.1464C157.255 81.9526 140.73 95.6385 138.87 106.623C134.714 131.178 165.907 146.394 182.8 155.392" stroke="#FF4040" stroke-width="5" stroke-linecap="round"/>
</svg>
